<ttFont>
    <TTGlyph name="A" xMin="10" yMin="0" xMax="1862" yMax="1374">
      <contour>
        <pt x="1319" y="260" on="1"/>
        <pt x="553" y="260" on="1"/>
        <pt x="424" y="0" on="1"/>
        <pt x="10" y="0" on="1"/>
        <pt x="729" y="1374" on="1"/>
        <pt x="1143" y="1374" on="1"/>
        <pt x="1862" y="0" on="1"/>
        <pt x="1448" y="0" on="1"/>
      </contour>
      <contour>
        <pt x="686" y="528" on="1"/>
        <pt x="1188" y="528" on="1"/>
        <pt x="938" y="1034" on="1"/>
      </contour>
    </TTGlyph>
    <TTGlyph name="AE" xMin="-41" yMin="0" xMax="2521" yMax="1374">
      <contour>
        <pt x="1178" y="0" on="1"/>
        <pt x="1178" y="287" on="1"/>
        <pt x="565" y="287" on="1"/>
        <pt x="369" y="0" on="1"/>
        <pt x="-41" y="0" on="1"/>
        <pt x="899" y="1374" on="1"/>
        <pt x="2507" y="1374" on="1"/>
        <pt x="2507" y="1081" on="1"/>
        <pt x="1559" y="1081" on="1"/>
        <pt x="1559" y="854" on="1"/>
        <pt x="2456" y="854" on="1"/>
        <pt x="2456" y="561" on="1"/>
        <pt x="1559" y="561" on="1"/>
        <pt x="1559" y="293" on="1"/>
        <pt x="2521" y="293" on="1"/>
        <pt x="2521" y="0" on="1"/>
      </contour>
      <contour>
        <pt x="743" y="547" on="1"/>
        <pt x="1178" y="547" on="1"/>
        <pt x="1178" y="1081" on="1"/>
        <pt x="1108" y="1081" on="1"/>
      </contour>
    </TTGlyph>
    <TTGlyph name="AEacute" xMin="-41" yMin="0" xMax="2521" yMax="1951">
      <component glyphName="AE" x="0" y="0" flags="0x204"/>
      <component glyphName="acute" x="1135" y="362" flags="0x4"/>
    </TTGlyph>
    <TTGlyph name="Aacute" xMin="10" yMin="0" xMax="1862" yMax="1951">
      <component glyphName="A" x="0" y="0" flags="0x204"/>
      <component glyphName="acute" x="401" y="362" flags="0x4"/>
    </TTGlyph>
    <TTGlyph name="Abreve" xMin="10" yMin="0" xMax="1862" yMax="1914">
      <component glyphName="A" x="0" y="0" flags="0x204"/>
      <component glyphName="breve" x="395" y="362" flags="0x4"/>
    </TTGlyph>
    <TTGlyph name="Acircumflex" xMin="10" yMin="0" xMax="1862" yMax="1955">
      <component glyphName="A" x="0" y="0" flags="0x204"/>
      <component glyphName="circumflex" x="395" y="362" flags="0x4"/>
    </TTGlyph>
    <TTGlyph name="Adieresis" xMin="10" yMin="0" xMax="1862" yMax="1832">
      <component glyphName="A" x="0" y="0" flags="0x204"/>
      <component glyphName="dieresis" x="395" y="362" flags="0x4"/>
    </TTGlyph>
    <TTGlyph name="Agrave" xMin="10" yMin="0" xMax="1862" yMax="1951">
      <component glyphName="A" x="0" y="0" flags="0x204"/>
      <component glyphName="grave" x="395" y="362" flags="0x4"/>
    </TTGlyph>
    <TTGlyph name="Amacron" xMin="10" yMin="0" xMax="1862" yMax="1798">
      <component glyphName="A" x="0" y="0" flags="0x204"/>
      <component glyphName="macron" x="395" y="362" flags="0x4"/>
    </TTGlyph>
    <TTGlyph name="Aogonek" xMin="10" yMin="-483" xMax="1911" yMax="1374">
      <contour>
        <pt x="1319" y="260" on="1"/>
        <pt x="553" y="260" on="1"/>
        <pt x="424" y="0" on="1"/>
        <pt x="10" y="0" on="1"/>
        <pt x="729" y="1374" on="1"/>
        <pt x="1143" y="1374" on="1"/>
        <pt x="1862" y="0" on="1"/>
        <pt x="1667" y="0" on="1"/>
        <pt x="1611" y="-48" on="0"/>
        <pt x="1546" y="-157" on="0"/>
        <pt x="1546" y="-207" on="1"/>
        <pt x="1546" y="-249" on="0"/>
        <pt x="1604" y="-283" on="0"/>
        <pt x="1667" y="-283" on="1"/>
        <pt x="1695" y="-283" on="0"/>
        <pt x="1763" y="-271" on="0"/>
        <pt x="1830" y="-254" on="0"/>
        <pt x="1890" y="-234" on="0"/>
        <pt x="1911" y="-225" on="1"/>
        <pt x="1911" y="-432" on="1"/>
        <pt x="1890" y="-438" on="0"/>
        <pt x="1824" y="-456" on="0"/>
        <pt x="1737" y="-472" on="0"/>
        <pt x="1632" y="-483" on="0"/>
        <pt x="1571" y="-483" on="1"/>
        <pt x="1511" y="-483" on="0"/>
        <pt x="1401" y="-461" on="0"/>
        <pt x="1318" y="-411" on="0"/>
        <pt x="1268" y="-331" on="0"/>
        <pt x="1268" y="-272" on="1"/>
        <pt x="1268" y="-243" on="0"/>
        <pt x="1293" y="-171" on="0"/>
        <pt x="1340" y="-97" on="0"/>
        <pt x="1406" y="-27" on="0"/>
        <pt x="1448" y="0" on="1"/>
      </contour>
      <contour>
        <pt x="686" y="528" on="1"/>
        <pt x="1188" y="528" on="1"/>
        <pt x="938" y="1034" on="1"/>
      </contour>
    </TTGlyph>
    <TTGlyph name="Aring" xMin="10" yMin="0" xMax="1862" yMax="1955">
      <component glyphName="A" x="0" y="0" flags="0x204"/>
      <component glyphName="ring" x="395" y="362" flags="0x4"/>
    </TTGlyph>
    <TTGlyph name="Atilde" xMin="10" yMin="0" xMax="1862" yMax="1873">
      <component glyphName="A" x="0" y="0" flags="0x204"/>
      <component glyphName="tilde" x="397" y="362" flags="0x4"/>
    </TTGlyph>
    <TTGlyph name="B" xMin="215" yMin="0" xMax="1782" yMax="1374">
      <contour>
        <pt x="1782" y="379" on="1"/>
        <pt x="1782" y="299" on="0"/>
        <pt x="1740" y="181" on="0"/>
        <pt x="1665" y="96" on="0"/>
        <pt x="1560" y="43" on="0"/>
        <pt x="1433" y="12" on="0"/>
        <pt x="1289" y="0" on="0"/>
        <pt x="1212" y="0" on="1"/>
        <pt x="215" y="0" on="1"/>
        <pt x="215" y="1374" on="1"/>
        <pt x="1194" y="1374" on="1"/>
        <pt x="1253" y="1374" on="0"/>
        <pt x="1372" y="1364" on="0"/>
        <pt x="1480" y="1337" on="0"/>
        <pt x="1573" y="1289" on="0"/>
        <pt x="1642" y="1211" on="0"/>
        <pt x="1681" y="1101" on="0"/>
        <pt x="1681" y="1026" on="1"/>
        <pt x="1681" y="892" on="0"/>
        <pt x="1549" y="735" on="0"/>
        <pt x="1407" y="709" on="1"/>
        <pt x="1507" y="702" on="0"/>
        <pt x="1650" y="655" on="0"/>
        <pt x="1740" y="574" on="0"/>
        <pt x="1782" y="457" on="0"/>
      </contour>
      <contour>
        <pt x="1319" y="967" on="1"/>
        <pt x="1319" y="993" on="0"/>
        <pt x="1303" y="1040" on="0"/>
        <pt x="1261" y="1076" on="0"/>
        <pt x="1189" y="1098" on="0"/>
        <pt x="1133" y="1098" on="1"/>
        <pt x="586" y="1098" on="1"/>
        <pt x="586" y="840" on="1"/>
        <pt x="1133" y="840" on="1"/>
        <pt x="1189" y="840" on="0"/>
        <pt x="1261" y="860" on="0"/>
        <pt x="1303" y="894" on="0"/>
        <pt x="1319" y="941" on="0"/>
      </contour>
      <contour>
        <pt x="1405" y="422" on="1"/>
        <pt x="1405" y="469" on="0"/>
        <pt x="1373" y="526" on="0"/>
        <pt x="1305" y="557" on="0"/>
        <pt x="1197" y="567" on="0"/>
        <pt x="1122" y="567" on="1"/>
        <pt x="586" y="567" on="1"/>
        <pt x="586" y="276" on="1"/>
        <pt x="1122" y="276" on="1"/>
        <pt x="1197" y="276" on="0"/>
        <pt x="1305" y="286" on="0"/>
        <pt x="1373" y="318" on="0"/>
        <pt x="1405" y="375" on="0"/>
      </contour>
    </TTGlyph>
    <TTGlyph name="C" xMin="123" yMin="-37" xMax="1729" yMax="1409">
      <contour>
        <pt x="1657" y="64" on="0"/>
        <pt x="1511" y="16" on="0"/>
        <pt x="1355" y="-19" on="0"/>
        <pt x="1182" y="-37" on="0"/>
        <pt x="1083" y="-37" on="1"/>
        <pt x="873" y="-37" on="0"/>
        <pt x="520" y="53" on="0"/>
        <pt x="265" y="234" on="0"/>
        <pt x="123" y="505" on="0"/>
        <pt x="123" y="686" on="1"/>
        <pt x="123" y="867" on="0"/>
        <pt x="265" y="1138" on="0"/>
        <pt x="520" y="1319" on="0"/>
        <pt x="873" y="1409" on="0"/>
        <pt x="1083" y="1409" on="1"/>
        <pt x="1182" y="1409" on="0"/>
        <pt x="1355" y="1391" on="0"/>
        <pt x="1511" y="1356" on="0"/>
        <pt x="1657" y="1308" on="0"/>
        <pt x="1729" y="1278" on="1"/>
        <pt x="1729" y="944" on="1"/>
        <pt x="1672" y="975" on="0"/>
        <pt x="1546" y="1036" on="0"/>
        <pt x="1394" y="1085" on="0"/>
        <pt x="1212" y="1116" on="0"/>
        <pt x="1098" y="1116" on="1"/>
        <pt x="923" y="1116" on="0"/>
        <pt x="692" y="1044" on="0"/>
        <pt x="554" y="924" on="0"/>
        <pt x="498" y="769" on="0"/>
        <pt x="498" y="686" on="1"/>
        <pt x="498" y="631" on="0"/>
        <pt x="522" y="524" on="0"/>
        <pt x="578" y="429" on="0"/>
        <pt x="668" y="349" on="0"/>
        <pt x="802" y="291" on="0"/>
        <pt x="981" y="258" on="0"/>
        <pt x="1098" y="258" on="1"/>
        <pt x="1212" y="258" on="0"/>
        <pt x="1394" y="287" on="0"/>
        <pt x="1546" y="335" on="0"/>
        <pt x="1672" y="396" on="0"/>
        <pt x="1729" y="428" on="1"/>
        <pt x="1729" y="94" on="1"/>
      </contour>
    </TTGlyph>
    <TTGlyph name="Cacute" xMin="123" yMin="-37" xMax="1729" yMax="1951">
      <component glyphName="C" x="0" y="0" flags="0x204"/>
      <component glyphName="acute" x="532" y="362" flags="0x4"/>
    </TTGlyph>
    <TTGlyph name="Ccaron" xMin="123" yMin="-37" xMax="1729" yMax="1955">
      <component glyphName="C" x="0" y="0" flags="0x204"/>
      <component glyphName="caron" x="526" y="362" flags="0x4"/>
    </TTGlyph>
    <TTGlyph name="Ccedilla" xMin="123" yMin="-523" xMax="1729" yMax="1409">
      <component glyphName="C" x="0" y="0" flags="0x204"/>
      <component glyphName="cedilla" x="500" y="-19" flags="0x4"/>
    </TTGlyph>
    <TTGlyph name="Ccircumflex" xMin="123" yMin="-37" xMax="1729" yMax="1955">
      <component glyphName="C" x="0" y="0" flags="0x204"/>
      <component glyphName="circumflex" x="526" y="362" flags="0x4"/>
    </TTGlyph>
    <TTGlyph name="Cdotaccent" xMin="123" yMin="-37" xMax="1729" yMax="1839">
      <component glyphName="C" x="0" y="0" flags="0x204"/>
      <component glyphName="dotaccent" x="524" y="362" flags="0x4"/>
    </TTGlyph>
    <TTGlyph name="D" xMin="215" yMin="0" xMax="1898" yMax="1374">
      <contour>
        <pt x="1898" y="688" on="1"/>
        <pt x="1898" y="556" on="0"/>
        <pt x="1840" y="351" on="0"/>
        <pt x="1735" y="199" on="0"/>
        <pt x="1588" y="93" on="0"/>
        <pt x="1408" y="29" on="0"/>
        <pt x="1200" y="0" on="0"/>
        <pt x="1087" y="0" on="1"/>
        <pt x="215" y="0" on="1"/>
        <pt x="215" y="1374" on="1"/>
        <pt x="1085" y="1374" on="1"/>
        <pt x="1198" y="1374" on="0"/>
        <pt x="1406" y="1345" on="0"/>
        <pt x="1587" y="1281" on="0"/>
        <pt x="1735" y="1176" on="0"/>
        <pt x="1840" y="1023" on="0"/>
        <pt x="1898" y="819" on="0"/>
      </contour>
      <contour>
        <pt x="1524" y="688" on="1"/>
        <pt x="1524" y="787" on="0"/>
        <pt x="1473" y="933" on="0"/>
        <pt x="1360" y="1028" on="0"/>
        <pt x="1178" y="1075" on="0"/>
        <pt x="1047" y="1075" on="1"/>
        <pt x="586" y="1075" on="1"/>
        <pt x="586" y="299" on="1"/>
        <pt x="1047" y="299" on="1"/>
        <pt x="1178" y="299" on="0"/>
        <pt x="1360" y="346" on="0"/>
        <pt x="1473" y="443" on="0"/>
        <pt x="1524" y="589" on="0"/>
      </contour>
    </TTGlyph>
    <TTGlyph name="Dcaron" xMin="215" yMin="0" xMax="1898" yMax="1955">
      <component glyphName="D" x="0" y="0" flags="0x204"/>
      <component glyphName="caron" x="412" y="362" flags="0x4"/>
    </TTGlyph>
    <TTGlyph name="Dcroat" xMin="10" yMin="0" xMax="1898" yMax="1374">
      <component glyphName="Eth" x="0" y="0" flags="0x204"/>
    </TTGlyph>
    <TTGlyph name="E" xMin="215" yMin="0" xMax="1620" yMax="1374">
      <contour>
        <pt x="215" y="0" on="1"/>
        <pt x="215" y="1374" on="1"/>
        <pt x="1606" y="1374" on="1"/>
        <pt x="1606" y="1081" on="1"/>
        <pt x="596" y="1081" on="1"/>
        <pt x="596" y="854" on="1"/>
        <pt x="1554" y="854" on="1"/>
        <pt x="1554" y="561" on="1"/>
        <pt x="596" y="561" on="1"/>
        <pt x="596" y="293" on="1"/>
        <pt x="1620" y="293" on="1"/>
        <pt x="1620" y="0" on="1"/>
      </contour>
    </TTGlyph>
    <TTGlyph name="Eacute" xMin="215" yMin="0" xMax="1620" yMax="1951">
      <component glyphName="E" x="0" y="0" flags="0x204"/>
      <component glyphName="acute" x="365" y="362" flags="0x4"/>
    </TTGlyph>
    <TTGlyph name="Ebreve" xMin="215" yMin="0" xMax="1620" yMax="1914">
      <component glyphName="E" x="0" y="0" flags="0x204"/>
      <component glyphName="breve" x="371" y="362" flags="0x4"/>
    </TTGlyph>
    <TTGlyph name="Ecaron" xMin="215" yMin="0" xMax="1620" yMax="1955">
      <component glyphName="E" x="0" y="0" flags="0x204"/>
      <component glyphName="caron" x="358" y="362" flags="0x4"/>
    </TTGlyph>
    <TTGlyph name="Ecircumflex" xMin="215" yMin="0" xMax="1620" yMax="1955">
      <component glyphName="E" x="0" y="0" flags="0x204"/>
      <component glyphName="circumflex" x="379" y="362" flags="0x4"/>
    </TTGlyph>
    <TTGlyph name="Edieresis" xMin="215" yMin="0" xMax="1620" yMax="1832">
      <component glyphName="E" x="0" y="0" flags="0x204"/>
      <component glyphName="dieresis" x="365" y="362" flags="0x4"/>
    </TTGlyph>
    <TTGlyph name="Edotaccent" xMin="215" yMin="0" xMax="1620" yMax="1839">
      <component glyphName="E" x="0" y="0" flags="0x204"/>
      <component glyphName="dotaccent" x="379" y="362" flags="0x4"/>
    </TTGlyph>
    <TTGlyph name="Egrave" xMin="215" yMin="0" xMax="1620" yMax="1951">
      <component glyphName="E" x="0" y="0" flags="0x204"/>
      <component glyphName="grave" x="358" y="362" flags="0x4"/>
    </TTGlyph>
    <TTGlyph name="Emacron" xMin="215" yMin="0" xMax="1620" yMax="1798">
      <component glyphName="E" x="0" y="0" flags="0x204"/>
      <component glyphName="macron" x="379" y="362" flags="0x4"/>
    </TTGlyph>
    <TTGlyph name="Eng" xMin="215" yMin="-27" xMax="1915" yMax="1374">
      <contour>
        <pt x="1286" y="270" on="1"/>
        <pt x="1331" y="270" on="0"/>
        <pt x="1402" y="282" on="0"/>
        <pt x="1430" y="293" on="1"/>
        <pt x="586" y="944" on="1"/>
        <pt x="586" y="0" on="1"/>
        <pt x="215" y="0" on="1"/>
        <pt x="215" y="1374" on="1"/>
        <pt x="618" y="1374" on="1"/>
        <pt x="1546" y="655" on="1"/>
        <pt x="1546" y="1374" on="1"/>
        <pt x="1915" y="1374" on="1"/>
        <pt x="1915" y="498" on="1"/>
        <pt x="1915" y="349" on="0"/>
        <pt x="1810" y="147" on="0"/>
        <pt x="1636" y="25" on="0"/>
        <pt x="1411" y="-27" on="0"/>
        <pt x="1290" y="-27" on="1"/>
        <pt x="1215" y="-27" on="0"/>
        <pt x="1083" y="-11" on="0"/>
        <pt x="968" y="12" on="0"/>
        <pt x="870" y="38" on="0"/>
        <pt x="829" y="49" on="1"/>
        <pt x="829" y="362" on="1"/>
        <pt x="871" y="346" on="0"/>
        <pt x="967" y="313" on="0"/>
        <pt x="1079" y="287" on="0"/>
        <pt x="1210" y="270" on="0"/>
      </contour>
    </TTGlyph>
    <TTGlyph name="Eogonek" xMin="215" yMin="-483" xMax="1620" yMax="1374">
      <contour>
        <pt x="1500" y="-15" on="0"/>
        <pt x="1355" y="-64" on="0"/>
        <pt x="1276" y="-122" on="0"/>
        <pt x="1251" y="-182" on="0"/>
        <pt x="1251" y="-207" on="1"/>
        <pt x="1251" y="-249" on="0"/>
        <pt x="1309" y="-283" on="0"/>
        <pt x="1372" y="-283" on="1"/>
        <pt x="1400" y="-283" on="0"/>
        <pt x="1468" y="-271" on="0"/>
        <pt x="1535" y="-254" on="0"/>
        <pt x="1595" y="-234" on="0"/>
        <pt x="1616" y="-225" on="1"/>
        <pt x="1616" y="-432" on="1"/>
        <pt x="1595" y="-438" on="0"/>
        <pt x="1530" y="-456" on="0"/>
        <pt x="1443" y="-472" on="0"/>
        <pt x="1337" y="-483" on="0"/>
        <pt x="1276" y="-483" on="1"/>
        <pt x="1216" y="-483" on="0"/>
        <pt x="1106" y="-461" on="0"/>
        <pt x="1023" y="-411" on="0"/>
        <pt x="973" y="-331" on="0"/>
        <pt x="973" y="-272" on="1"/>
        <pt x="973" y="-243" on="0"/>
        <pt x="999" y="-168" on="0"/>
        <pt x="1061" y="-92" on="0"/>
        <pt x="1161" y="-23" on="0"/>
        <pt x="1235" y="0" on="1"/>
        <pt x="215" y="0" on="1"/>
        <pt x="215" y="1374" on="1"/>
        <pt x="1606" y="1374" on="1"/>
        <pt x="1606" y="1081" on="1"/>
        <pt x="596" y="1081" on="1"/>
        <pt x="596" y="854" on="1"/>
        <pt x="1554" y="854" on="1"/>
        <pt x="1554" y="561" on="1"/>
        <pt x="596" y="561" on="1"/>
        <pt x="596" y="293" on="1"/>
        <pt x="1620" y="293" on="1"/>
        <pt x="1620" y="0" on="1"/>
      </contour>
    </TTGlyph>
    <TTGlyph name="Eth" xMin="10" yMin="0" xMax="1898" yMax="1374">
      <contour>
        <pt x="1898" y="688" on="1"/>
        <pt x="1898" y="556" on="0"/>
        <pt x="1840" y="351" on="0"/>
        <pt x="1735" y="199" on="0"/>
        <pt x="1588" y="93" on="0"/>
        <pt x="1408" y="29" on="0"/>
        <pt x="1200" y="0" on="0"/>
        <pt x="1087" y="0" on="1"/>
        <pt x="215" y="0" on="1"/>
        <pt x="215" y="569" on="1"/>
        <pt x="10" y="569" on="1"/>
        <pt x="10" y="836" on="1"/>
        <pt x="215" y="836" on="1"/>
        <pt x="215" y="1374" on="1"/>
        <pt x="1085" y="1374" on="1"/>
        <pt x="1198" y="1374" on="0"/>
        <pt x="1406" y="1345" on="0"/>
        <pt x="1587" y="1281" on="0"/>
        <pt x="1735" y="1176" on="0"/>
        <pt x="1840" y="1023" on="0"/>
        <pt x="1898" y="819" on="0"/>
      </contour>
      <contour>
        <pt x="1524" y="688" on="1"/>
        <pt x="1524" y="787" on="0"/>
        <pt x="1473" y="933" on="0"/>
        <pt x="1360" y="1028" on="0"/>
        <pt x="1178" y="1075" on="0"/>
        <pt x="1047" y="1075" on="1"/>
        <pt x="586" y="1075" on="1"/>
        <pt x="586" y="836" on="1"/>
        <pt x="979" y="836" on="1"/>
        <pt x="979" y="569" on="1"/>
        <pt x="586" y="569" on="1"/>
        <pt x="586" y="299" on="1"/>
        <pt x="1047" y="299" on="1"/>
        <pt x="1178" y="299" on="0"/>
        <pt x="1360" y="346" on="0"/>
        <pt x="1473" y="443" on="0"/>
        <pt x="1524" y="589" on="0"/>
      </contour>
    </TTGlyph>
    <TTGlyph name="Euro" xMin="51" yMin="-27" xMax="1731" yMax="1399">
      <contour>
        <pt x="301" y="946" on="1"/>
        <pt x="343" y="1053" on="0"/>
        <pt x="493" y="1221" on="0"/>
        <pt x="700" y="1338" on="0"/>
        <pt x="960" y="1399" on="0"/>
        <pt x="1110" y="1399" on="1"/>
        <pt x="1293" y="1399" on="0"/>
        <pt x="1609" y="1325" on="0"/>
        <pt x="1731" y="1270" on="1"/>
        <pt x="1731" y="913" on="1"/>
        <pt x="1683" y="960" on="0"/>
        <pt x="1550" y="1034" on="0"/>
        <pt x="1397" y="1085" on="0"/>
        <pt x="1233" y="1112" on="0"/>
        <pt x="1155" y="1112" on="1"/>
        <pt x="1071" y="1112" on="0"/>
        <pt x="934" y="1088" on="0"/>
        <pt x="825" y="1044" on="0"/>
        <pt x="741" y="983" on="0"/>
        <pt x="711" y="946" on="1"/>
        <pt x="1317" y="946" on="1"/>
        <pt x="1253" y="756" on="1"/>
        <pt x="631" y="756" on="1"/>
        <pt x="629" y="739" on="0"/>
        <pt x="627" y="703" on="0"/>
        <pt x="627" y="686" on="1"/>
        <pt x="627" y="672" on="0"/>
        <pt x="627" y="647" on="0"/>
        <pt x="629" y="635" on="1"/>
        <pt x="1210" y="635" on="1"/>
        <pt x="1147" y="444" on="1"/>
        <pt x="700" y="444" on="1"/>
        <pt x="729" y="403" on="0"/>
        <pt x="813" y="336" on="0"/>
        <pt x="926" y="287" on="0"/>
        <pt x="1068" y="260" on="0"/>
        <pt x="1155" y="260" on="1"/>
        <pt x="1233" y="260" on="0"/>
        <pt x="1397" y="288" on="0"/>
        <pt x="1550" y="340" on="0"/>
        <pt x="1683" y="414" on="0"/>
        <pt x="1731" y="461" on="1"/>
        <pt x="1731" y="104" on="1"/>
        <pt x="1670" y="77" on="0"/>
        <pt x="1522" y="29" on="0"/>
        <pt x="1360" y="-7" on="0"/>
        <pt x="1191" y="-27" on="0"/>
        <pt x="1110" y="-27" on="1"/>
        <pt x="960" y="-27" on="0"/>
        <pt x="697" y="33" on="0"/>
        <pt x="485" y="152" on="0"/>
        <pt x="332" y="328" on="0"/>
        <pt x="293" y="444" on="1"/>
        <pt x="51" y="444" on="1"/>
        <pt x="115" y="635" on="1"/>
        <pt x="258" y="635" on="1"/>
        <pt x="256" y="647" on="0"/>
        <pt x="256" y="672" on="0"/>
        <pt x="256" y="686" on="1"/>
        <pt x="256" y="703" on="0"/>
        <pt x="256" y="739" on="0"/>
        <pt x="258" y="756" on="1"/>
        <pt x="55" y="756" on="1"/>
        <pt x="119" y="946" on="1"/>
      </contour>
    </TTGlyph>
    <TTGlyph name="F" xMin="215" yMin="0" xMax="1528" yMax="1374">
      <contour>
        <pt x="586" y="1081" on="1"/>
        <pt x="586" y="842" on="1"/>
        <pt x="1479" y="842" on="1"/>
        <pt x="1479" y="549" on="1"/>
        <pt x="586" y="549" on="1"/>
        <pt x="586" y="0" on="1"/>
        <pt x="215" y="0" on="1"/>
        <pt x="215" y="1374" on="1"/>
        <pt x="1528" y="1374" on="1"/>
        <pt x="1528" y="1081" on="1"/>
      </contour>
    </TTGlyph>
    <TTGlyph name="G" xMin="123" yMin="-37" xMax="1827" yMax="1409">
      <contour>
        <pt x="1100" y="1409" on="1"/>
        <pt x="1302" y="1409" on="0"/>
        <pt x="1649" y="1340" on="0"/>
        <pt x="1794" y="1286" on="1"/>
        <pt x="1794" y="950" on="1"/>
        <pt x="1737" y="982" on="0"/>
        <pt x="1594" y="1042" on="0"/>
        <pt x="1426" y="1088" on="0"/>
        <pt x="1234" y="1116" on="0"/>
        <pt x="1128" y="1116" on="1"/>
        <pt x="996" y="1116" on="0"/>
        <pt x="800" y="1078" on="0"/>
        <pt x="660" y="1014" on="0"/>
        <pt x="570" y="929" on="0"/>
        <pt x="518" y="833" on="0"/>
        <pt x="498" y="733" on="0"/>
        <pt x="498" y="686" on="1"/>
        <pt x="498" y="645" on="0"/>
        <pt x="515" y="549" on="0"/>
        <pt x="562" y="453" on="0"/>
        <pt x="646" y="365" on="0"/>
        <pt x="781" y="297" on="0"/>
        <pt x="971" y="256" on="0"/>
        <pt x="1102" y="256" on="1"/>
        <pt x="1168" y="256" on="0"/>
        <pt x="1266" y="264" on="0"/>
        <pt x="1347" y="278" on="0"/>
        <pt x="1418" y="298" on="0"/>
        <pt x="1456" y="309" on="1"/>
        <pt x="1456" y="475" on="1"/>
        <pt x="1040" y="475" on="1"/>
        <pt x="1040" y="776" on="1"/>
        <pt x="1827" y="776" on="1"/>
        <pt x="1827" y="74" on="1"/>
        <pt x="1753" y="49" on="0"/>
        <pt x="1570" y="8" on="0"/>
        <pt x="1375" y="-21" on="0"/>
        <pt x="1179" y="-37" on="0"/>
        <pt x="1092" y="-37" on="1"/>
        <pt x="957" y="-37" on="0"/>
        <pt x="709" y="-1" on="0"/>
        <pt x="494" y="74" on="0"/>
        <pt x="317" y="190" on="0"/>
        <pt x="192" y="350" on="0"/>
        <pt x="123" y="557" on="0"/>
        <pt x="123" y="686" on="1"/>
        <pt x="123" y="814" on="0"/>
        <pt x="195" y="1022" on="0"/>
        <pt x="324" y="1182" on="0"/>
        <pt x="505" y="1298" on="0"/>
        <pt x="722" y="1373" on="0"/>
        <pt x="969" y="1409" on="0"/>
      </contour>
    </TTGlyph>
    <TTGlyph name="Gbreve" xMin="123" yMin="-37" xMax="1827" yMax="1914">
      <component glyphName="G" x="0" y="0" flags="0x204"/>
      <component glyphName="breve" x="543" y="362" flags="0x4"/>
    </TTGlyph>
    <TTGlyph name="Gcircumflex" xMin="123" yMin="-37" xMax="1827" yMax="1955">
      <component glyphName="G" x="0" y="0" flags="0x204"/>
      <component glyphName="circumflex" x="543" y="362" flags="0x4"/>
    </TTGlyph>
    <TTGlyph name="Gcommaaccent" xMin="123" yMin="-504" xMax="1827" yMax="1409">
      <component glyphName="G" x="0" y="0" flags="0x204"/>
      <component glyphName="commaaccent" x="502" y="0" flags="0x4"/>
    </TTGlyph>
    <TTGlyph name="Gdotaccent" xMin="123" yMin="-37" xMax="1827" yMax="1839">
      <component glyphName="G" x="0" y="0" flags="0x204"/>
      <component glyphName="dotaccent" x="543" y="362" flags="0x4"/>
    </TTGlyph>
    <TTGlyph name="H" xMin="215" yMin="0" xMax="1901" yMax="1374">
      <contour>
        <pt x="1530" y="0" on="1"/>
        <pt x="1530" y="573" on="1"/>
        <pt x="586" y="573" on="1"/>
        <pt x="586" y="0" on="1"/>
        <pt x="215" y="0" on="1"/>
        <pt x="215" y="1374" on="1"/>
        <pt x="586" y="1374" on="1"/>
        <pt x="586" y="874" on="1"/>
        <pt x="1530" y="874" on="1"/>
        <pt x="1530" y="1374" on="1"/>
        <pt x="1901" y="1374" on="1"/>
        <pt x="1901" y="0" on="1"/>
      </contour>
    </TTGlyph>
    <TTGlyph name="Hbar" xMin="55" yMin="0" xMax="2060" yMax="1374">
      <contour>
        <pt x="1530" y="0" on="1"/>
        <pt x="1530" y="532" on="1"/>
        <pt x="586" y="532" on="1"/>
        <pt x="586" y="0" on="1"/>
        <pt x="215" y="0" on="1"/>
        <pt x="215" y="961" on="1"/>
        <pt x="55" y="961" on="1"/>
        <pt x="55" y="1176" on="1"/>
        <pt x="215" y="1176" on="1"/>
        <pt x="215" y="1374" on="1"/>
        <pt x="586" y="1374" on="1"/>
        <pt x="586" y="1176" on="1"/>
        <pt x="1530" y="1176" on="1"/>
        <pt x="1530" y="1374" on="1"/>
        <pt x="1901" y="1374" on="1"/>
        <pt x="1901" y="1176" on="1"/>
        <pt x="2060" y="1176" on="1"/>
        <pt x="2060" y="961" on="1"/>
        <pt x="1901" y="961" on="1"/>
        <pt x="1901" y="0" on="1"/>
      </contour>
      <contour>
        <pt x="1530" y="834" on="1"/>
        <pt x="1530" y="961" on="1"/>
        <pt x="586" y="961" on="1"/>
        <pt x="586" y="834" on="1"/>
      </contour>
    </TTGlyph>
    <TTGlyph name="Hcircumflex" xMin="215" yMin="0" xMax="1901" yMax="1955">
      <component glyphName="H" x="0" y="0" flags="0x204"/>
      <component glyphName="circumflex" x="510" y="362" flags="0x4"/>
    </TTGlyph>
    <TTGlyph name="I" xMin="215" yMin="0" xMax="586" yMax="1374">
      <contour>
        <pt x="215" y="0" on="1"/>
        <pt x="215" y="1374" on="1"/>
        <pt x="586" y="1374" on="1"/>
        <pt x="586" y="0" on="1"/>
      </contour>
    </TTGlyph>
    <TTGlyph name="IJ" xMin="215" yMin="-16" xMax="2011" yMax="1374">
      <component glyphName="I" x="0" y="0" flags="0x4"/>
      <component glyphName="J" x="801" y="0" flags="0x4"/>
    </TTGlyph>
    <TTGlyph name="Iacute" xMin="186" yMin="0" xMax="798" yMax="1951">
      <component glyphName="I" x="0" y="0" flags="0x204"/>
      <component glyphName="acute" x="-138" y="362" flags="0x4"/>
    </TTGlyph>
    <TTGlyph name="Ibreve" xMin="-11" yMin="0" xMax="804" yMax="1914">
      <component glyphName="I" x="0" y="0" flags="0x204"/>
      <component glyphName="breve" x="-144" y="362" flags="0x4"/>
    </TTGlyph>
    <TTGlyph name="Icircumflex" xMin="-72" yMin="0" xMax="866" yMax="1955">
      <component glyphName="I" x="0" y="0" flags="0x204"/>
      <component glyphName="circumflex" x="-144" y="362" flags="0x4"/>
    </TTGlyph>
    <TTGlyph name="Idieresis" xMin="10" yMin="0" xMax="784" yMax="1832">
      <component glyphName="I" x="0" y="0" flags="0x204"/>
      <component glyphName="dieresis" x="-144" y="362" flags="0x4"/>
    </TTGlyph>
    <TTGlyph name="Idotaccent" xMin="215" yMin="0" xMax="586" yMax="1839">
      <component glyphName="I" x="0" y="0" flags="0x204"/>
      <component glyphName="dotaccent" x="-144" y="362" flags="0x4"/>
    </TTGlyph>
    <TTGlyph name="Igrave" xMin="1" yMin="0" xMax="614" yMax="1951">
      <component glyphName="I" x="0" y="0" flags="0x204"/>
      <component glyphName="grave" x="-144" y="362" flags="0x4"/>
    </TTGlyph>
    <TTGlyph name="Imacron" xMin="61" yMin="0" xMax="733" yMax="1798">
      <component glyphName="I" x="0" y="0" flags="0x204"/>
      <component glyphName="macron" x="-144" y="362" flags="0x4"/>
    </TTGlyph>
    <TTGlyph name="Iogonek" xMin="81" yMin="-483" xMax="724" yMax="1374">
      <component glyphName="I" x="0" y="0" flags="0x204"/>
      <component glyphName="ogonek" x="-130" y="0" flags="0x4"/>
    </TTGlyph>
    <TTGlyph name="Itilde" xMin="5" yMin="0" xMax="792" yMax="1873">
      <component glyphName="I" x="0" y="0" flags="0x204"/>
      <component glyphName="tilde" x="-142" y="362" flags="0x4"/>
    </TTGlyph>
    <TTGlyph name="J" xMin="0" yMin="-16" xMax="1210" yMax="1374">
      <contour>
        <pt x="1210" y="508" on="1"/>
        <pt x="1210" y="371" on="0"/>
        <pt x="1121" y="173" on="0"/>
        <pt x="950" y="45" on="0"/>
        <pt x="702" y="-16" on="0"/>
        <pt x="543" y="-16" on="1"/>
        <pt x="468" y="-16" on="0"/>
        <pt x="310" y="-1" on="0"/>
        <pt x="164" y="21" on="0"/>
        <pt x="41" y="46" on="0"/>
        <pt x="0" y="57" on="1"/>
        <pt x="0" y="379" on="1"/>
        <pt x="42" y="362" on="0"/>
        <pt x="142" y="327" on="0"/>
        <pt x="265" y="299" on="0"/>
        <pt x="414" y="281" on="0"/>
        <pt x="504" y="281" on="1"/>
        <pt x="601" y="281" on="0"/>
        <pt x="730" y="324" on="0"/>
        <pt x="808" y="401" on="0"/>
        <pt x="840" y="505" on="0"/>
        <pt x="840" y="567" on="1"/>
        <pt x="840" y="1374" on="1"/>
        <pt x="1210" y="1374" on="1"/>
      </contour>
    </TTGlyph>
    <TTGlyph name="Jcircumflex" xMin="0" yMin="-16" xMax="1504" yMax="1955">
      <component glyphName="J" x="0" y="0" flags="0x204"/>
      <component glyphName="circumflex" x="494" y="362" flags="0x4"/>
    </TTGlyph>
    <TTGlyph name="K" xMin="215" yMin="0" xMax="1907" yMax="1374">
      <contour>
        <pt x="588" y="850" on="1"/>
        <pt x="1348" y="1374" on="1"/>
        <pt x="1845" y="1374" on="1"/>
        <pt x="920" y="715" on="1"/>
        <pt x="1907" y="0" on="1"/>
        <pt x="1366" y="0" on="1"/>
        <pt x="588" y="571" on="1"/>
        <pt x="588" y="0" on="1"/>
        <pt x="215" y="0" on="1"/>
        <pt x="215" y="1374" on="1"/>
        <pt x="588" y="1374" on="1"/>
      </contour>
    </TTGlyph>
    <TTGlyph name="Kcommaaccent" xMin="215" yMin="-504" xMax="1907" yMax="1374">
      <component glyphName="K" x="0" y="0" flags="0x204"/>
      <component glyphName="commaaccent" x="408" y="0" flags="0x4"/>
    </TTGlyph>
    <TTGlyph name="L" xMin="215" yMin="0" xMax="1589" yMax="1374">
      <contour>
        <pt x="215" y="0" on="1"/>
        <pt x="215" y="1374" on="1"/>
        <pt x="586" y="1374" on="1"/>
        <pt x="586" y="301" on="1"/>
        <pt x="1589" y="301" on="1"/>
        <pt x="1589" y="0" on="1"/>
      </contour>
    </TTGlyph>
    <TTGlyph name="Lacute" xMin="192" yMin="0" xMax="1589" yMax="1951">
      <component glyphName="L" x="0" y="0" flags="0x204"/>
      <component glyphName="acute" x="-132" y="362" flags="0x4"/>
    </TTGlyph>
    <TTGlyph name="Lcaron" xMin="215" yMin="0" xMax="1589" yMax="1374">
      <component glyphName="L" x="0" y="0" flags="0x204"/>
      <component glyphName="quoteright" x="938" y="0" flags="0x4"/>
    </TTGlyph>
    <TTGlyph name="Lcommaaccent" xMin="215" yMin="-504" xMax="1589" yMax="1374">
      <component glyphName="L" x="0" y="0" flags="0x204"/>
      <component glyphName="commaaccent" x="332" y="0" flags="0x4"/>
    </TTGlyph>
    <TTGlyph name="Ldot" xMin="215" yMin="0" xMax="1589" yMax="1374">
      <component glyphName="L" x="0" y="0" flags="0x204"/>
      <component glyphName="periodcentered" x="967" y="57" flags="0x4"/>
    </TTGlyph>
    <TTGlyph name="Lslash" xMin="-27" yMin="0" xMax="1589" yMax="1374">
      <contour>
        <pt x="215" y="0" on="1"/>
        <pt x="215" y="522" on="1"/>
        <pt x="63" y="465" on="1"/>
        <pt x="-27" y="686" on="1"/>
        <pt x="215" y="780" on="1"/>
        <pt x="215" y="1374" on="1"/>
        <pt x="586" y="1374" on="1"/>
        <pt x="586" y="924" on="1"/>
        <pt x="817" y="1014" on="1"/>
        <pt x="907" y="793" on="1"/>
        <pt x="586" y="668" on="1"/>
        <pt x="586" y="301" on="1"/>
        <pt x="1589" y="301" on="1"/>
        <pt x="1589" y="0" on="1"/>
      </contour>
    </TTGlyph>
    <TTGlyph name="M" xMin="215" yMin="0" xMax="2331" yMax="1374">
      <contour>
        <pt x="1962" y="0" on="1"/>
        <pt x="1962" y="965" on="1"/>
        <pt x="1452" y="0" on="1"/>
        <pt x="1096" y="0" on="1"/>
        <pt x="586" y="965" on="1"/>
        <pt x="586" y="0" on="1"/>
        <pt x="215" y="0" on="1"/>
        <pt x="215" y="1374" on="1"/>
        <pt x="719" y="1374" on="1"/>
        <pt x="1274" y="334" on="1"/>
        <pt x="1829" y="1374" on="1"/>
        <pt x="2331" y="1374" on="1"/>
        <pt x="2331" y="0" on="1"/>
      </contour>
    </TTGlyph>
    <TTGlyph name="N" xMin="215" yMin="0" xMax="1915" yMax="1374">
      <contour>
        <pt x="1513" y="0" on="1"/>
        <pt x="586" y="944" on="1"/>
        <pt x="586" y="0" on="1"/>
        <pt x="215" y="0" on="1"/>
        <pt x="215" y="1374" on="1"/>
        <pt x="618" y="1374" on="1"/>
        <pt x="1546" y="426" on="1"/>
        <pt x="1546" y="1374" on="1"/>
        <pt x="1915" y="1374" on="1"/>
        <pt x="1915" y="0" on="1"/>
      </contour>
    </TTGlyph>
    <TTGlyph name="Nacute" xMin="215" yMin="0" xMax="1915" yMax="1951">
      <component glyphName="N" x="0" y="0" flags="0x204"/>
      <component glyphName="acute" x="545" y="362" flags="0x4"/>
    </TTGlyph>
    <TTGlyph name="Ncaron" xMin="215" yMin="0" xMax="1915" yMax="1955">
      <component glyphName="N" x="0" y="0" flags="0x204"/>
      <component glyphName="caron" x="539" y="362" flags="0x4"/>
    </TTGlyph>
    <TTGlyph name="Ncommaaccent" xMin="215" yMin="-504" xMax="1915" yMax="1374">
      <component glyphName="N" x="0" y="0" flags="0x204"/>
      <component glyphName="commaaccent" x="541" y="0" flags="0x4"/>
    </TTGlyph>
    <TTGlyph name="Ntilde" xMin="215" yMin="0" xMax="1915" yMax="1873">
      <component glyphName="N" x="0" y="0" flags="0x204"/>
      <component glyphName="tilde" x="541" y="362" flags="0x4"/>
    </TTGlyph>
    <TTGlyph name="O" xMin="123" yMin="-37" xMax="1993" yMax="1409">
      <contour>
        <pt x="1993" y="686" on="1"/>
        <pt x="1993" y="509" on="0"/>
        <pt x="1863" y="238" on="0"/>
        <pt x="1621" y="56" on="0"/>
        <pt x="1276" y="-37" on="0"/>
        <pt x="1061" y="-37" on="1"/>
        <pt x="846" y="-37" on="0"/>
        <pt x="499" y="56" on="0"/>
        <pt x="255" y="238" on="0"/>
        <pt x="123" y="509" on="0"/>
        <pt x="123" y="686" on="1"/>
        <pt x="123" y="863" on="0"/>
        <pt x="255" y="1134" on="0"/>
        <pt x="499" y="1316" on="0"/>
        <pt x="846" y="1409" on="0"/>
        <pt x="1061" y="1409" on="1"/>
        <pt x="1276" y="1409" on="0"/>
        <pt x="1621" y="1316" on="0"/>
        <pt x="1863" y="1134" on="0"/>
        <pt x="1993" y="863" on="0"/>
      </contour>
      <contour>
        <pt x="1618" y="686" on="1"/>
        <pt x="1618" y="763" on="0"/>
        <pt x="1569" y="916" on="0"/>
        <pt x="1444" y="1038" on="0"/>
        <pt x="1228" y="1114" on="0"/>
        <pt x="1061" y="1114" on="1"/>
        <pt x="949" y="1114" on="0"/>
        <pt x="779" y="1079" on="0"/>
        <pt x="655" y="1017" on="0"/>
        <pt x="571" y="934" on="0"/>
        <pt x="521" y="839" on="0"/>
        <pt x="500" y="736" on="0"/>
        <pt x="500" y="686" on="1"/>
        <pt x="500" y="635" on="0"/>
        <pt x="521" y="531" on="0"/>
        <pt x="571" y="436" on="0"/>
        <pt x="655" y="354" on="0"/>
        <pt x="779" y="293" on="0"/>
        <pt x="949" y="258" on="0"/>
        <pt x="1061" y="258" on="1"/>
        <pt x="1228" y="258" on="0"/>
        <pt x="1444" y="334" on="0"/>
        <pt x="1569" y="456" on="0"/>
        <pt x="1618" y="609" on="0"/>
      </contour>
    </TTGlyph>
    <TTGlyph name="OE" xMin="123" yMin="-37" xMax="2904" yMax="1409">
      <contour>
        <pt x="1497" y="0" on="1"/>
        <pt x="1444" y="-5" on="0"/>
        <pt x="1341" y="-18" on="0"/>
        <pt x="1234" y="-29" on="0"/>
        <pt x="1121" y="-37" on="0"/>
        <pt x="1059" y="-37" on="1"/>
        <pt x="936" y="-37" on="0"/>
        <pt x="701" y="0" on="0"/>
        <pt x="493" y="77" on="0"/>
        <pt x="319" y="194" on="0"/>
        <pt x="193" y="355" on="0"/>
        <pt x="123" y="560" on="0"/>
        <pt x="123" y="686" on="1"/>
        <pt x="123" y="811" on="0"/>
        <pt x="197" y="1016" on="0"/>
        <pt x="326" y="1177" on="0"/>
        <pt x="504" y="1295" on="0"/>
        <pt x="712" y="1372" on="0"/>
        <pt x="942" y="1409" on="0"/>
        <pt x="1059" y="1409" on="1"/>
        <pt x="1121" y="1409" on="0"/>
        <pt x="1234" y="1402" on="0"/>
        <pt x="1341" y="1392" on="0"/>
        <pt x="1444" y="1380" on="0"/>
        <pt x="1497" y="1374" on="1"/>
        <pt x="2890" y="1374" on="1"/>
        <pt x="2890" y="1081" on="1"/>
        <pt x="1880" y="1081" on="1"/>
        <pt x="1880" y="854" on="1"/>
        <pt x="2839" y="854" on="1"/>
        <pt x="2839" y="561" on="1"/>
        <pt x="1880" y="561" on="1"/>
        <pt x="1880" y="293" on="1"/>
        <pt x="2904" y="293" on="1"/>
        <pt x="2904" y="0" on="1"/>
      </contour>
      <contour>
        <pt x="1059" y="258" on="1"/>
        <pt x="1184" y="258" on="0"/>
        <pt x="1406" y="290" on="0"/>
        <pt x="1497" y="311" on="1"/>
        <pt x="1497" y="1061" on="1"/>
        <pt x="1406" y="1083" on="0"/>
        <pt x="1184" y="1114" on="0"/>
        <pt x="1059" y="1114" on="1"/>
        <pt x="953" y="1114" on="0"/>
        <pt x="751" y="1065" on="0"/>
        <pt x="594" y="962" on="0"/>
        <pt x="498" y="800" on="0"/>
        <pt x="498" y="686" on="1"/>
        <pt x="498" y="571" on="0"/>
        <pt x="588" y="408" on="0"/>
        <pt x="742" y="305" on="0"/>
        <pt x="945" y="258" on="0"/>
      </contour>
    </TTGlyph>
    <TTGlyph name="Oacute" xMin="123" yMin="-37" xMax="1993" yMax="1951">
      <component glyphName="O" x="0" y="0" flags="0x204"/>
      <component glyphName="acute" x="526" y="362" flags="0x4"/>
    </TTGlyph>
    <TTGlyph name="Obreve" xMin="123" yMin="-37" xMax="1993" yMax="1914">
      <component glyphName="O" x="0" y="0" flags="0x204"/>
      <component glyphName="breve" x="520" y="362" flags="0x4"/>
    </TTGlyph>
    <TTGlyph name="Ocircumflex" xMin="123" yMin="-37" xMax="1993" yMax="1955">
      <component glyphName="O" x="0" y="0" flags="0x204"/>
      <component glyphName="circumflex" x="520" y="362" flags="0x4"/>
    </TTGlyph>
    <TTGlyph name="Odieresis" xMin="123" yMin="-37" xMax="1993" yMax="1832">
      <component glyphName="O" x="0" y="0" flags="0x204"/>
      <component glyphName="dieresis" x="520" y="362" flags="0x4"/>
    </TTGlyph>
    <TTGlyph name="Ograve" xMin="123" yMin="-37" xMax="1993" yMax="1951">
      <component glyphName="O" x="0" y="0" flags="0x204"/>
      <component glyphName="grave" x="520" y="362" flags="0x4"/>
    </TTGlyph>
    <TTGlyph name="Ohungarumlaut" xMin="123" yMin="-37" xMax="1993" yMax="1900">
      <component glyphName="O" x="0" y="0" flags="0x204"/>
      <component glyphName="hungarumlaut" x="520" y="362" flags="0x4"/>
    </TTGlyph>
    <TTGlyph name="Omacron" xMin="123" yMin="-37" xMax="1993" yMax="1798">
      <component glyphName="O" x="0" y="0" flags="0x204"/>
      <component glyphName="macron" x="520" y="362" flags="0x4"/>
    </TTGlyph>
    <TTGlyph name="Oslash" xMin="123" yMin="-182" xMax="1993" yMax="1554">
      <contour>
        <pt x="1993" y="686" on="1"/>
        <pt x="1993" y="509" on="0"/>
        <pt x="1863" y="238" on="0"/>
        <pt x="1621" y="56" on="0"/>
        <pt x="1276" y="-37" on="0"/>
        <pt x="1061" y="-37" on="1"/>
        <pt x="948" y="-37" on="0"/>
        <pt x="747" y="-12" on="0"/>
        <pt x="657" y="12" on="1"/>
        <pt x="500" y="-182" on="1"/>
        <pt x="207" y="-182" on="1"/>
        <pt x="440" y="104" on="1"/>
        <pt x="288" y="195" on="0"/>
        <pt x="123" y="485" on="0"/>
        <pt x="123" y="686" on="1"/>
        <pt x="123" y="863" on="0"/>
        <pt x="255" y="1134" on="0"/>
        <pt x="499" y="1316" on="0"/>
        <pt x="846" y="1409" on="0"/>
        <pt x="1061" y="1409" on="1"/>
        <pt x="1284" y="1409" on="0"/>
        <pt x="1458" y="1360" on="1"/>
        <pt x="1616" y="1554" on="1"/>
        <pt x="1907" y="1554" on="1"/>
        <pt x="1675" y="1268" on="1"/>
        <pt x="1828" y="1178" on="0"/>
        <pt x="1993" y="887" on="0"/>
      </contour>
      <contour>
        <pt x="1618" y="686" on="1"/>
        <pt x="1618" y="730" on="0"/>
        <pt x="1603" y="818" on="0"/>
        <pt x="1567" y="902" on="0"/>
        <pt x="1509" y="978" on="0"/>
        <pt x="1466" y="1010" on="1"/>
        <pt x="870" y="274" on="1"/>
        <pt x="912" y="266" on="0"/>
        <pt x="1007" y="258" on="0"/>
        <pt x="1061" y="258" on="1"/>
        <pt x="1228" y="258" on="0"/>
        <pt x="1444" y="334" on="0"/>
        <pt x="1569" y="456" on="0"/>
        <pt x="1618" y="609" on="0"/>
      </contour>
      <contour>
        <pt x="500" y="686" on="1"/>
        <pt x="500" y="642" on="0"/>
        <pt x="515" y="554" on="0"/>
        <pt x="550" y="470" on="0"/>
        <pt x="607" y="393" on="0"/>
        <pt x="649" y="362" on="1"/>
        <pt x="1245" y="1098" on="1"/>
        <pt x="1205" y="1106" on="0"/>
        <pt x="1113" y="1114" on="0"/>
        <pt x="1061" y="1114" on="1"/>
        <pt x="949" y="1114" on="0"/>
        <pt x="779" y="1079" on="0"/>
        <pt x="655" y="1017" on="0"/>
        <pt x="571" y="934" on="0"/>
        <pt x="521" y="839" on="0"/>
        <pt x="500" y="736" on="0"/>
      </contour>
    </TTGlyph>
    <TTGlyph name="Oslashacute" xMin="123" yMin="-182" xMax="1993" yMax="1951">
      <component glyphName="Oslash" x="0" y="0" flags="0x204"/>
      <component glyphName="acute" x="477" y="362" flags="0x4"/>
    </TTGlyph>
    <TTGlyph name="Otilde" xMin="123" yMin="-37" xMax="1993" yMax="1873">
      <component glyphName="O" x="0" y="0" flags="0x204"/>
      <component glyphName="tilde" x="522" y="362" flags="0x4"/>
    </TTGlyph>
    <TTGlyph name="P" xMin="215" yMin="0" xMax="1759" yMax="1374">
      <contour>
        <pt x="1759" y="905" on="1"/>
        <pt x="1759" y="802" on="0"/>
        <pt x="1699" y="629" on="0"/>
        <pt x="1566" y="504" on="0"/>
        <pt x="1354" y="434" on="0"/>
        <pt x="1202" y="434" on="1"/>
        <pt x="586" y="434" on="1"/>
        <pt x="586" y="0" on="1"/>
        <pt x="215" y="0" on="1"/>
        <pt x="215" y="1374" on="1"/>
        <pt x="1202" y="1374" on="1"/>
        <pt x="1354" y="1374" on="0"/>
        <pt x="1566" y="1305" on="0"/>
        <pt x="1699" y="1180" on="0"/>
        <pt x="1759" y="1008" on="0"/>
      </contour>
      <contour>
        <pt x="1384" y="899" on="1"/>
        <pt x="1384" y="947" on="0"/>
        <pt x="1357" y="1016" on="0"/>
        <pt x="1295" y="1060" on="0"/>
        <pt x="1195" y="1081" on="0"/>
        <pt x="1122" y="1081" on="1"/>
        <pt x="586" y="1081" on="1"/>
        <pt x="586" y="727" on="1"/>
        <pt x="1122" y="727" on="1"/>
        <pt x="1195" y="727" on="0"/>
        <pt x="1295" y="744" on="0"/>
        <pt x="1357" y="785" on="0"/>
        <pt x="1384" y="851" on="0"/>
      </contour>
    </TTGlyph>
    <TTGlyph name="Q" xMin="123" yMin="-45" xMax="2142" yMax="1409">
      <contour>
        <pt x="1993" y="686" on="1"/>
        <pt x="1993" y="574" on="0"/>
        <pt x="1940" y="385" on="0"/>
        <pt x="1890" y="307" on="1"/>
        <pt x="2030" y="254" on="0"/>
        <pt x="2142" y="225" on="1"/>
        <pt x="1991" y="-45" on="1"/>
        <pt x="1910" y="-14" on="0"/>
        <pt x="1742" y="54" on="0"/>
        <pt x="1657" y="92" on="1"/>
        <pt x="1541" y="27" on="0"/>
        <pt x="1241" y="-37" on="0"/>
        <pt x="1061" y="-37" on="1"/>
        <pt x="846" y="-37" on="0"/>
        <pt x="499" y="56" on="0"/>
        <pt x="255" y="238" on="0"/>
        <pt x="123" y="509" on="0"/>
        <pt x="123" y="686" on="1"/>
        <pt x="123" y="863" on="0"/>
        <pt x="255" y="1134" on="0"/>
        <pt x="499" y="1316" on="0"/>
        <pt x="846" y="1409" on="0"/>
        <pt x="1061" y="1409" on="1"/>
        <pt x="1276" y="1409" on="0"/>
        <pt x="1621" y="1316" on="0"/>
        <pt x="1863" y="1134" on="0"/>
        <pt x="1993" y="863" on="0"/>
      </contour>
      <contour>
        <pt x="1618" y="686" on="1"/>
        <pt x="1618" y="763" on="0"/>
        <pt x="1569" y="916" on="0"/>
        <pt x="1444" y="1038" on="0"/>
        <pt x="1228" y="1114" on="0"/>
        <pt x="1061" y="1114" on="1"/>
        <pt x="949" y="1114" on="0"/>
        <pt x="779" y="1079" on="0"/>
        <pt x="655" y="1017" on="0"/>
        <pt x="571" y="934" on="0"/>
        <pt x="521" y="839" on="0"/>
        <pt x="500" y="736" on="0"/>
        <pt x="500" y="686" on="1"/>
        <pt x="500" y="635" on="0"/>
        <pt x="521" y="531" on="0"/>
        <pt x="571" y="436" on="0"/>
        <pt x="655" y="354" on="0"/>
        <pt x="779" y="293" on="0"/>
        <pt x="949" y="258" on="0"/>
        <pt x="1061" y="258" on="1"/>
        <pt x="1121" y="258" on="0"/>
        <pt x="1225" y="268" on="0"/>
        <pt x="1272" y="279" on="1"/>
        <pt x="1210" y="311" on="0"/>
        <pt x="1095" y="376" on="0"/>
        <pt x="1044" y="408" on="1"/>
        <pt x="1192" y="651" on="1"/>
        <pt x="1263" y="602" on="0"/>
        <pt x="1449" y="500" on="0"/>
        <pt x="1552" y="451" on="1"/>
        <pt x="1590" y="505" on="0"/>
        <pt x="1618" y="624" on="0"/>
      </contour>
    </TTGlyph>
    <TTGlyph name="R" xMin="215" yMin="0" xMax="1841" yMax="1374">
      <contour>
        <pt x="586" y="0" on="1"/>
        <pt x="215" y="0" on="1"/>
        <pt x="215" y="1374" on="1"/>
        <pt x="1145" y="1374" on="1"/>
        <pt x="1295" y="1374" on="0"/>
        <pt x="1504" y="1312" on="0"/>
        <pt x="1635" y="1198" on="0"/>
        <pt x="1694" y="1037" on="0"/>
        <pt x="1694" y="938" on="1"/>
        <pt x="1694" y="851" on="0"/>
        <pt x="1645" y="721" on="0"/>
        <pt x="1562" y="628" on="0"/>
        <pt x="1452" y="564" on="0"/>
        <pt x="1391" y="543" on="1"/>
        <pt x="1841" y="0" on="1"/>
        <pt x="1407" y="0" on="1"/>
        <pt x="991" y="506" on="1"/>
        <pt x="586" y="506" on="1"/>
      </contour>
      <contour>
        <pt x="1319" y="940" on="1"/>
        <pt x="1319" y="980" on="0"/>
        <pt x="1298" y="1036" on="0"/>
        <pt x="1246" y="1071" on="0"/>
        <pt x="1159" y="1087" on="0"/>
        <pt x="1094" y="1087" on="1"/>
        <pt x="586" y="1087" on="1"/>
        <pt x="586" y="793" on="1"/>
        <pt x="1094" y="793" on="1"/>
        <pt x="1159" y="793" on="0"/>
        <pt x="1246" y="809" on="0"/>
        <pt x="1298" y="844" on="0"/>
        <pt x="1319" y="900" on="0"/>
      </contour>
    </TTGlyph>
    <TTGlyph name="Racute" xMin="215" yMin="0" xMax="1841" yMax="1951">
      <component glyphName="R" x="0" y="0" flags="0x204"/>
      <component glyphName="acute" x="350" y="362" flags="0x4"/>
    </TTGlyph>
    <TTGlyph name="Rcaron" xMin="215" yMin="0" xMax="1841" yMax="1955">
      <component glyphName="R" x="0" y="0" flags="0x204"/>
      <component glyphName="caron" x="344" y="362" flags="0x4"/>
    </TTGlyph>
    <TTGlyph name="Rcommaaccent" xMin="215" yMin="-504" xMax="1841" yMax="1374">
      <component glyphName="R" x="0" y="0" flags="0x204"/>
      <component glyphName="commaaccent" x="422" y="0" flags="0x4"/>
    </TTGlyph>
    <TTGlyph name="S" xMin="141" yMin="-37" xMax="1595" yMax="1409">
      <contour>
        <pt x="1481" y="987" on="1"/>
        <pt x="1442" y="1006" on="0"/>
        <pt x="1314" y="1054" on="0"/>
        <pt x="1152" y="1097" on="0"/>
        <pt x="962" y="1126" on="0"/>
        <pt x="862" y="1126" on="1"/>
        <pt x="782" y="1126" on="0"/>
        <pt x="669" y="1116" on="0"/>
        <pt x="592" y="1100" on="0"/>
        <pt x="547" y="1079" on="0"/>
        <pt x="523" y="1057" on="0"/>
        <pt x="516" y="1035" on="0"/>
        <pt x="516" y="1026" on="1"/>
        <pt x="516" y="996" on="0"/>
        <pt x="576" y="951" on="0"/>
        <pt x="680" y="916" on="0"/>
        <pt x="818" y="885" on="0"/>
        <pt x="973" y="852" on="0"/>
        <pt x="1138" y="813" on="0"/>
        <pt x="1293" y="761" on="0"/>
        <pt x="1431" y="692" on="0"/>
        <pt x="1535" y="600" on="0"/>
        <pt x="1595" y="480" on="0"/>
        <pt x="1595" y="403" on="1"/>
        <pt x="1595" y="304" on="0"/>
        <pt x="1525" y="162" on="0"/>
        <pt x="1408" y="64" on="0"/>
        <pt x="1254" y="5" on="0"/>
        <pt x="1085" y="-27" on="0"/>
        <pt x="912" y="-37" on="0"/>
        <pt x="834" y="-37" on="1"/>
        <pt x="630" y="-37" on="0"/>
        <pt x="283" y="30" on="0"/>
        <pt x="150" y="80" on="1"/>
        <pt x="150" y="408" on="1"/>
        <pt x="287" y="332" on="0"/>
        <pt x="638" y="246" on="0"/>
        <pt x="838" y="246" on="1"/>
        <pt x="956" y="246" on="0"/>
        <pt x="1105" y="271" on="0"/>
        <pt x="1189" y="310" on="0"/>
        <pt x="1219" y="356" on="0"/>
        <pt x="1219" y="377" on="1"/>
        <pt x="1219" y="410" on="0"/>
        <pt x="1159" y="459" on="0"/>
        <pt x="1055" y="496" on="0"/>
        <pt x="917" y="527" on="0"/>
        <pt x="762" y="558" on="0"/>
        <pt x="598" y="594" on="0"/>
        <pt x="443" y="643" on="0"/>
        <pt x="305" y="708" on="0"/>
        <pt x="201" y="797" on="0"/>
        <pt x="141" y="914" on="0"/>
        <pt x="141" y="991" on="1"/>
        <pt x="141" y="1082" on="0"/>
        <pt x="205" y="1214" on="0"/>
        <pt x="314" y="1307" on="0"/>
        <pt x="457" y="1365" on="0"/>
        <pt x="615" y="1397" on="0"/>
        <pt x="777" y="1409" on="0"/>
        <pt x="850" y="1409" on="1"/>
        <pt x="930" y="1409" on="0"/>
        <pt x="1099" y="1393" on="0"/>
        <pt x="1263" y="1364" on="0"/>
        <pt x="1416" y="1326" on="0"/>
        <pt x="1481" y="1305" on="1"/>
      </contour>
    </TTGlyph>
    <TTGlyph name="Sacute" xMin="141" yMin="-37" xMax="1595" yMax="1951">
      <component glyphName="S" x="0" y="0" flags="0x204"/>
      <component glyphName="acute" x="315" y="362" flags="0x4"/>
    </TTGlyph>
    <TTGlyph name="Scaron" xMin="141" yMin="-37" xMax="1595" yMax="1955">
      <component glyphName="S" x="0" y="0" flags="0x204"/>
      <component glyphName="caron" x="309" y="362" flags="0x4"/>
    </TTGlyph>
    <TTGlyph name="Scedilla" xMin="141" yMin="-504" xMax="1595" yMax="1409">
      <component glyphName="S" x="0" y="0" flags="0x204"/>
      <component glyphName="cedilla" x="332" y="0" flags="0x4"/>
    </TTGlyph>
    <TTGlyph name="Scircumflex" xMin="141" yMin="-37" xMax="1595" yMax="1955">
      <component glyphName="S" x="0" y="0" flags="0x204"/>
      <component glyphName="circumflex" x="309" y="362" flags="0x4"/>
    </TTGlyph>
    <TTGlyph name="T" xMin="31" yMin="0" xMax="1569" yMax="1374">
      <contour>
        <pt x="985" y="1075" on="1"/>
        <pt x="985" y="0" on="1"/>
        <pt x="614" y="0" on="1"/>
        <pt x="614" y="1075" on="1"/>
        <pt x="31" y="1075" on="1"/>
        <pt x="31" y="1374" on="1"/>
        <pt x="1569" y="1374" on="1"/>
        <pt x="1569" y="1075" on="1"/>
      </contour>
    </TTGlyph>
    <TTGlyph name="Tbar" xMin="31" yMin="0" xMax="1569" yMax="1374">
      <contour>
        <pt x="985" y="1075" on="1"/>
        <pt x="985" y="844" on="1"/>
        <pt x="1417" y="844" on="1"/>
        <pt x="1417" y="629" on="1"/>
        <pt x="985" y="629" on="1"/>
        <pt x="985" y="0" on="1"/>
        <pt x="614" y="0" on="1"/>
        <pt x="614" y="629" on="1"/>
        <pt x="182" y="629" on="1"/>
        <pt x="182" y="844" on="1"/>
        <pt x="614" y="844" on="1"/>
        <pt x="614" y="1075" on="1"/>
        <pt x="31" y="1075" on="1"/>
        <pt x="31" y="1374" on="1"/>
        <pt x="1569" y="1374" on="1"/>
        <pt x="1569" y="1075" on="1"/>
      </contour>
    </TTGlyph>
    <TTGlyph name="Tcaron" xMin="31" yMin="0" xMax="1569" yMax="1955">
      <component glyphName="T" x="0" y="0" flags="0x204"/>
      <component glyphName="caron" x="258" y="362" flags="0x4"/>
    </TTGlyph>
    <TTGlyph name="Tcommaaccent" xMin="31" yMin="-504" xMax="1569" yMax="1374">
      <component glyphName="T" x="0" y="0" flags="0x204"/>
      <component glyphName="commaaccent" x="233" y="0" flags="0x4"/>
    </TTGlyph>
    <TTGlyph name="Thorn" xMin="215" yMin="0" xMax="1759" yMax="1372">
      <contour>
        <pt x="1759" y="709" on="1"/>
        <pt x="1759" y="606" on="0"/>
        <pt x="1699" y="433" on="0"/>
        <pt x="1566" y="308" on="0"/>
        <pt x="1354" y="238" on="0"/>
        <pt x="1202" y="238" on="1"/>
        <pt x="586" y="238" on="1"/>
        <pt x="586" y="0" on="1"/>
        <pt x="215" y="0" on="1"/>
        <pt x="215" y="1372" on="1"/>
        <pt x="586" y="1372" on="1"/>
        <pt x="586" y="1178" on="1"/>
        <pt x="1202" y="1178" on="1"/>
        <pt x="1354" y="1178" on="0"/>
        <pt x="1566" y="1108" on="0"/>
        <pt x="1699" y="984" on="0"/>
        <pt x="1759" y="812" on="0"/>
      </contour>
      <contour>
        <pt x="1384" y="702" on="1"/>
        <pt x="1384" y="750" on="0"/>
        <pt x="1357" y="820" on="0"/>
        <pt x="1295" y="864" on="0"/>
        <pt x="1195" y="885" on="0"/>
        <pt x="1122" y="885" on="1"/>
        <pt x="586" y="885" on="1"/>
        <pt x="586" y="530" on="1"/>
        <pt x="1122" y="530" on="1"/>
        <pt x="1195" y="530" on="0"/>
        <pt x="1295" y="547" on="0"/>
        <pt x="1357" y="588" on="0"/>
        <pt x="1384" y="654" on="0"/>
      </contour>
    </TTGlyph>
    <TTGlyph name="U" xMin="205" yMin="-37" xMax="1837" yMax="1374">
      <contour>
        <pt x="1837" y="360" on="0"/>
        <pt x="1735" y="178" on="0"/>
        <pt x="1531" y="42" on="0"/>
        <pt x="1226" y="-37" on="0"/>
        <pt x="1022" y="-37" on="1"/>
        <pt x="818" y="-37" on="0"/>
        <pt x="511" y="42" on="0"/>
        <pt x="307" y="178" on="0"/>
        <pt x="205" y="360" on="0"/>
        <pt x="205" y="463" on="1"/>
        <pt x="205" y="1374" on="1"/>
        <pt x="575" y="1374" on="1"/>
        <pt x="575" y="596" on="1"/>
        <pt x="575" y="527" on="0"/>
        <pt x="610" y="404" on="0"/>
        <pt x="707" y="312" on="0"/>
        <pt x="882" y="258" on="0"/>
        <pt x="1022" y="258" on="1"/>
        <pt x="1161" y="258" on="0"/>
        <pt x="1335" y="312" on="0"/>
        <pt x="1432" y="404" on="0"/>
        <pt x="1466" y="527" on="0"/>
        <pt x="1466" y="596" on="1"/>
        <pt x="1466" y="1374" on="1"/>
        <pt x="1837" y="1374" on="1"/>
        <pt x="1837" y="463" on="1"/>
      </contour>
    </TTGlyph>
    <TTGlyph name="Uacute" xMin="205" yMin="-37" xMax="1837" yMax="1951">
      <component glyphName="U" x="0" y="0" flags="0x204"/>
      <component glyphName="acute" x="487" y="362" flags="0x4"/>
    </TTGlyph>
    <TTGlyph name="Ubreve" xMin="205" yMin="-37" xMax="1837" yMax="1914">
      <component glyphName="U" x="0" y="0" flags="0x204"/>
      <component glyphName="breve" x="481" y="362" flags="0x4"/>
    </TTGlyph>
    <TTGlyph name="Ucircumflex" xMin="205" yMin="-37" xMax="1837" yMax="1955">
      <component glyphName="U" x="0" y="0" flags="0x204"/>
      <component glyphName="circumflex" x="481" y="362" flags="0x4"/>
    </TTGlyph>
    <TTGlyph name="Udieresis" xMin="205" yMin="-37" xMax="1837" yMax="1832">
      <component glyphName="U" x="0" y="0" flags="0x204"/>
      <component glyphName="dieresis" x="481" y="362" flags="0x4"/>
    </TTGlyph>
    <TTGlyph name="Ugrave" xMin="205" yMin="-37" xMax="1837" yMax="1951">
      <component glyphName="U" x="0" y="0" flags="0x204"/>
      <component glyphName="grave" x="481" y="362" flags="0x4"/>
    </TTGlyph>
    <TTGlyph name="Uhungarumlaut" xMin="205" yMin="-37" xMax="1837" yMax="1900">
      <component glyphName="U" x="0" y="0" flags="0x204"/>
      <component glyphName="hungarumlaut" x="481" y="362" flags="0x4"/>
    </TTGlyph>
    <TTGlyph name="Umacron" xMin="205" yMin="-37" xMax="1837" yMax="1798">
      <component glyphName="U" x="0" y="0" flags="0x204"/>
      <component glyphName="macron" x="481" y="362" flags="0x4"/>
    </TTGlyph>
    <TTGlyph name="Uogonek" xMin="205" yMin="-483" xMax="1837" yMax="1374">
      <contour>
        <pt x="1837" y="364" on="0"/>
        <pt x="1743" y="188" on="0"/>
        <pt x="1554" y="54" on="0"/>
        <pt x="1271" y="-29" on="0"/>
        <pt x="1083" y="-35" on="1"/>
        <pt x="1045" y="-77" on="0"/>
        <pt x="1001" y="-167" on="0"/>
        <pt x="1001" y="-207" on="1"/>
        <pt x="1001" y="-249" on="0"/>
        <pt x="1059" y="-283" on="0"/>
        <pt x="1122" y="-283" on="1"/>
        <pt x="1150" y="-283" on="0"/>
        <pt x="1218" y="-271" on="0"/>
        <pt x="1285" y="-254" on="0"/>
        <pt x="1345" y="-234" on="0"/>
        <pt x="1366" y="-225" on="1"/>
        <pt x="1366" y="-432" on="1"/>
        <pt x="1345" y="-438" on="0"/>
        <pt x="1280" y="-456" on="0"/>
        <pt x="1193" y="-472" on="0"/>
        <pt x="1087" y="-483" on="0"/>
        <pt x="1026" y="-483" on="1"/>
        <pt x="966" y="-483" on="0"/>
        <pt x="856" y="-461" on="0"/>
        <pt x="773" y="-411" on="0"/>
        <pt x="723" y="-331" on="0"/>
        <pt x="723" y="-272" on="1"/>
        <pt x="723" y="-247" on="0"/>
        <pt x="742" y="-185" on="0"/>
        <pt x="777" y="-121" on="0"/>
        <pt x="829" y="-58" on="0"/>
        <pt x="862" y="-31" on="1"/>
        <pt x="698" y="-16" on="0"/>
        <pt x="451" y="72" on="0"/>
        <pt x="287" y="204" on="0"/>
        <pt x="205" y="371" on="0"/>
        <pt x="205" y="463" on="1"/>
        <pt x="205" y="1374" on="1"/>
        <pt x="575" y="1374" on="1"/>
        <pt x="575" y="596" on="1"/>
        <pt x="575" y="527" on="0"/>
        <pt x="610" y="404" on="0"/>
        <pt x="707" y="312" on="0"/>
        <pt x="882" y="258" on="0"/>
        <pt x="1022" y="258" on="1"/>
        <pt x="1161" y="258" on="0"/>
        <pt x="1335" y="312" on="0"/>
        <pt x="1432" y="404" on="0"/>
        <pt x="1466" y="527" on="0"/>
        <pt x="1466" y="596" on="1"/>
        <pt x="1466" y="1374" on="1"/>
        <pt x="1837" y="1374" on="1"/>
        <pt x="1837" y="463" on="1"/>
      </contour>
    </TTGlyph>
    <TTGlyph name="Uring" xMin="205" yMin="-37" xMax="1837" yMax="1955">
      <component glyphName="U" x="0" y="0" flags="0x204"/>
      <component glyphName="ring" x="481" y="362" flags="0x4"/>
    </TTGlyph>
    <TTGlyph name="Utilde" xMin="205" yMin="-37" xMax="1837" yMax="1873">
      <component glyphName="U" x="0" y="0" flags="0x204"/>
      <component glyphName="tilde" x="483" y="362" flags="0x4"/>
    </TTGlyph>
    <TTGlyph name="V" xMin="10" yMin="0" xMax="1837" yMax="1374">
      <contour>
        <pt x="1137" y="0" on="1"/>
        <pt x="705" y="0" on="1"/>
        <pt x="10" y="1374" on="1"/>
        <pt x="424" y="1374" on="1"/>
        <pt x="924" y="340" on="1"/>
        <pt x="1423" y="1374" on="1"/>
        <pt x="1837" y="1374" on="1"/>
      </contour>
    </TTGlyph>
    <TTGlyph name="W" xMin="20" yMin="0" xMax="2666" yMax="1374">
      <contour>
        <pt x="1550" y="1374" on="1"/>
        <pt x="1901" y="420" on="1"/>
        <pt x="2281" y="1374" on="1"/>
        <pt x="2666" y="1374" on="1"/>
        <pt x="2114" y="0" on="1"/>
        <pt x="1702" y="0" on="1"/>
        <pt x="1343" y="924" on="1"/>
        <pt x="985" y="0" on="1"/>
        <pt x="573" y="0" on="1"/>
        <pt x="20" y="1374" on="1"/>
        <pt x="406" y="1374" on="1"/>
        <pt x="778" y="440" on="1"/>
        <pt x="1137" y="1374" on="1"/>
      </contour>
    </TTGlyph>
    <TTGlyph name="Wacute" xMin="20" yMin="0" xMax="2666" yMax="1951">
      <component glyphName="W" x="0" y="0" flags="0x204"/>
      <component glyphName="acute" x="807" y="362" flags="0x4"/>
    </TTGlyph>
    <TTGlyph name="Wcircumflex" xMin="20" yMin="0" xMax="2666" yMax="1955">
      <component glyphName="W" x="0" y="0" flags="0x204"/>
      <component glyphName="circumflex" x="801" y="362" flags="0x4"/>
    </TTGlyph>
    <TTGlyph name="Wdieresis" xMin="20" yMin="0" xMax="2666" yMax="1832">
      <component glyphName="W" x="0" y="0" flags="0x204"/>
      <component glyphName="dieresis" x="801" y="362" flags="0x4"/>
    </TTGlyph>
    <TTGlyph name="Wgrave" xMin="20" yMin="0" xMax="2666" yMax="1951">
      <component glyphName="W" x="0" y="0" flags="0x204"/>
      <component glyphName="grave" x="801" y="362" flags="0x4"/>
    </TTGlyph>
    <TTGlyph name="X" xMin="29" yMin="0" xMax="1776" yMax="1374">
      <contour>
        <pt x="1124" y="705" on="1"/>
        <pt x="1776" y="0" on="1"/>
        <pt x="1331" y="0" on="1"/>
        <pt x="901" y="463" on="1"/>
        <pt x="473" y="0" on="1"/>
        <pt x="29" y="0" on="1"/>
        <pt x="680" y="705" on="1"/>
        <pt x="61" y="1374" on="1"/>
        <pt x="506" y="1374" on="1"/>
        <pt x="901" y="944" on="1"/>
        <pt x="1298" y="1374" on="1"/>
        <pt x="1743" y="1374" on="1"/>
      </contour>
    </TTGlyph>
    <TTGlyph name="Y" xMin="41" yMin="0" xMax="1743" yMax="1374">
      <contour>
        <pt x="1077" y="561" on="1"/>
        <pt x="1077" y="0" on="1"/>
        <pt x="707" y="0" on="1"/>
        <pt x="707" y="561" on="1"/>
        <pt x="41" y="1374" on="1"/>
        <pt x="457" y="1374" on="1"/>
        <pt x="893" y="821" on="1"/>
        <pt x="1327" y="1374" on="1"/>
        <pt x="1743" y="1374" on="1"/>
      </contour>
    </TTGlyph>
    <TTGlyph name="Yacute" xMin="41" yMin="0" xMax="1743" yMax="1951">
      <component glyphName="Y" x="0" y="0" flags="0x204"/>
      <component glyphName="acute" x="358" y="362" flags="0x4"/>
    </TTGlyph>
    <TTGlyph name="Ycircumflex" xMin="41" yMin="0" xMax="1743" yMax="1955">
      <component glyphName="Y" x="0" y="0" flags="0x204"/>
      <component glyphName="circumflex" x="352" y="362" flags="0x4"/>
    </TTGlyph>
    <TTGlyph name="Ydieresis" xMin="41" yMin="0" xMax="1743" yMax="1832">
      <component glyphName="Y" x="0" y="0" flags="0x204"/>
      <component glyphName="dieresis" x="352" y="362" flags="0x4"/>
    </TTGlyph>
    <TTGlyph name="Ygrave" xMin="41" yMin="0" xMax="1743" yMax="1951">
      <component glyphName="Y" x="0" y="0" flags="0x204"/>
      <component glyphName="grave" x="352" y="362" flags="0x4"/>
    </TTGlyph>
    <TTGlyph name="Z" xMin="135" yMin="0" xMax="1591" yMax="1374">
      <contour>
        <pt x="135" y="0" on="1"/>
        <pt x="135" y="287" on="1"/>
        <pt x="1038" y="1073" on="1"/>
        <pt x="162" y="1073" on="1"/>
        <pt x="162" y="1374" on="1"/>
        <pt x="1571" y="1374" on="1"/>
        <pt x="1571" y="1122" on="1"/>
        <pt x="627" y="301" on="1"/>
        <pt x="1591" y="301" on="1"/>
        <pt x="1591" y="0" on="1"/>
      </contour>
    </TTGlyph>
    <TTGlyph name="Zacute" xMin="135" yMin="0" xMax="1591" yMax="1951">
      <component glyphName="Z" x="0" y="0" flags="0x204"/>
      <component glyphName="acute" x="326" y="362" flags="0x4"/>
    </TTGlyph>
    <TTGlyph name="Zcaron" xMin="135" yMin="0" xMax="1591" yMax="1955">
      <component glyphName="Z" x="0" y="0" flags="0x204"/>
      <component glyphName="caron" x="319" y="362" flags="0x4"/>
    </TTGlyph>
    <TTGlyph name="Zdotaccent" xMin="135" yMin="0" xMax="1591" yMax="1839">
      <component glyphName="Z" x="0" y="0" flags="0x204"/>
      <component glyphName="dotaccent" x="319" y="362" flags="0x4"/>
    </TTGlyph>
    <TTGlyph name="a" xMin="113" yMin="-27" xMax="1751" yMax="1399">
      <contour>
        <pt x="1380" y="0" on="1"/>
        <pt x="1380" y="135" on="1"/>
        <pt x="1309" y="96" on="0"/>
        <pt x="1146" y="36" on="0"/>
        <pt x="970" y="-6" on="0"/>
        <pt x="783" y="-27" on="0"/>
        <pt x="688" y="-27" on="1"/>
        <pt x="577" y="-27" on="0"/>
        <pt x="370" y="15" on="0"/>
        <pt x="210" y="109" on="0"/>
        <pt x="113" y="261" on="0"/>
        <pt x="113" y="371" on="1"/>
        <pt x="113" y="510" on="0"/>
        <pt x="265" y="695" on="0"/>
        <pt x="577" y="813" on="0"/>
        <pt x="1054" y="877" on="0"/>
        <pt x="1380" y="895" on="1"/>
        <pt x="1380" y="924" on="1"/>
        <pt x="1380" y="958" on="0"/>
        <pt x="1344" y="1025" on="0"/>
        <pt x="1249" y="1076" on="0"/>
        <pt x="1084" y="1108" on="0"/>
        <pt x="956" y="1108" on="1"/>
        <pt x="855" y="1108" on="0"/>
        <pt x="658" y="1087" on="0"/>
        <pt x="475" y="1051" on="0"/>
        <pt x="311" y="1003" on="0"/>
        <pt x="244" y="977" on="1"/>
        <pt x="244" y="1307" on="1"/>
        <pt x="314" y="1325" on="0"/>
        <pt x="488" y="1359" on="0"/>
        <pt x="676" y="1384" on="0"/>
        <pt x="868" y="1399" on="0"/>
        <pt x="956" y="1399" on="1"/>
        <pt x="1129" y="1399" on="0"/>
        <pt x="1421" y="1342" on="0"/>
        <pt x="1632" y="1222" on="0"/>
        <pt x="1751" y="1038" on="0"/>
        <pt x="1751" y="911" on="1"/>
        <pt x="1751" y="0" on="1"/>
      </contour>
      <contour>
        <pt x="1380" y="627" on="1"/>
        <pt x="1166" y="619" on="0"/>
        <pt x="867" y="589" on="0"/>
        <pt x="669" y="549" on="0"/>
        <pt x="556" y="503" on="0"/>
        <pt x="500" y="455" on="0"/>
        <pt x="487" y="407" on="0"/>
        <pt x="487" y="387" on="1"/>
        <pt x="487" y="363" on="0"/>
        <pt x="513" y="318" on="0"/>
        <pt x="578" y="284" on="0"/>
        <pt x="686" y="264" on="0"/>
        <pt x="768" y="264" on="1"/>
        <pt x="859" y="264" on="0"/>
        <pt x="1033" y="292" on="0"/>
        <pt x="1189" y="341" on="0"/>
        <pt x="1326" y="408" on="0"/>
        <pt x="1380" y="446" on="1"/>
      </contour>
    </TTGlyph>
    <TTGlyph name="aacute" xMin="113" yMin="-27" xMax="1751" yMax="1951">
      <component glyphName="a" x="0" y="0" flags="0x204"/>
      <component glyphName="acute" x="424" y="362" flags="0x4"/>
    </TTGlyph>
    <TTGlyph name="abreve" xMin="113" yMin="-27" xMax="1751" yMax="1914">
      <component glyphName="a" x="0" y="0" flags="0x204"/>
      <component glyphName="breve" x="438" y="362" flags="0x4"/>
    </TTGlyph>
    <TTGlyph name="acircumflex" xMin="113" yMin="-27" xMax="1751" yMax="1955">
      <component glyphName="a" x="0" y="0" flags="0x204"/>
      <component glyphName="circumflex" x="438" y="362" flags="0x4"/>
    </TTGlyph>
    <TTGlyph name="acute" xMin="324" yMin="1139" xMax="936" yMax="1589">
      <contour>
        <pt x="936" y="1325" on="1"/>
        <pt x="414" y="1139" on="1"/>
        <pt x="324" y="1309" on="1"/>
        <pt x="805" y="1589" on="1"/>
      </contour>
    </TTGlyph>
    <TTGlyph name="adieresis" xMin="113" yMin="-27" xMax="1751" yMax="1832">
      <component glyphName="a" x="0" y="0" flags="0x204"/>
      <component glyphName="dieresis" x="438" y="362" flags="0x4"/>
    </TTGlyph>
    <TTGlyph name="ae" xMin="113" yMin="-37" xMax="3117" yMax="1409">
      <contour>
        <pt x="3004" y="68" on="1"/>
        <pt x="2835" y="12" on="0"/>
        <pt x="2499" y="-37" on="0"/>
        <pt x="2322" y="-37" on="1"/>
        <pt x="2062" y="-37" on="0"/>
        <pt x="1688" y="88" on="0"/>
        <pt x="1573" y="209" on="1"/>
        <pt x="1495" y="167" on="0"/>
        <pt x="1322" y="83" on="0"/>
        <pt x="1117" y="16" on="0"/>
        <pt x="870" y="-27" on="0"/>
        <pt x="719" y="-27" on="1"/>
        <pt x="597" y="-27" on="0"/>
        <pt x="377" y="15" on="0"/>
        <pt x="211" y="109" on="0"/>
        <pt x="113" y="261" on="0"/>
        <pt x="113" y="371" on="1"/>
        <pt x="113" y="510" on="0"/>
        <pt x="265" y="695" on="0"/>
        <pt x="577" y="813" on="0"/>
        <pt x="1054" y="877" on="0"/>
        <pt x="1380" y="895" on="1"/>
        <pt x="1380" y="924" on="1"/>
        <pt x="1380" y="958" on="0"/>
        <pt x="1344" y="1025" on="0"/>
        <pt x="1249" y="1076" on="0"/>
        <pt x="1084" y="1108" on="0"/>
        <pt x="956" y="1108" on="1"/>
        <pt x="855" y="1108" on="0"/>
        <pt x="658" y="1087" on="0"/>
        <pt x="475" y="1051" on="0"/>
        <pt x="311" y="1003" on="0"/>
        <pt x="244" y="977" on="1"/>
        <pt x="244" y="1307" on="1"/>
        <pt x="314" y="1325" on="0"/>
        <pt x="488" y="1359" on="0"/>
        <pt x="676" y="1384" on="0"/>
        <pt x="868" y="1399" on="0"/>
        <pt x="956" y="1399" on="1"/>
        <pt x="1185" y="1399" on="0"/>
        <pt x="1530" y="1298" on="0"/>
        <pt x="1626" y="1192" on="1"/>
        <pt x="1741" y="1294" on="0"/>
        <pt x="2066" y="1409" on="0"/>
        <pt x="2273" y="1409" on="1"/>
        <pt x="2460" y="1409" on="0"/>
        <pt x="2771" y="1308" on="0"/>
        <pt x="2994" y="1110" on="0"/>
        <pt x="3117" y="820" on="0"/>
        <pt x="3117" y="631" on="1"/>
        <pt x="3117" y="539" on="1"/>
        <pt x="1763" y="539" on="1"/>
        <pt x="1781" y="474" on="0"/>
        <pt x="1864" y="366" on="0"/>
        <pt x="2006" y="290" on="0"/>
        <pt x="2213" y="248" on="0"/>
        <pt x="2357" y="248" on="1"/>
        <pt x="2459" y="248" on="0"/>
        <pt x="2656" y="273" on="0"/>
        <pt x="2826" y="314" on="0"/>
        <pt x="2962" y="364" on="0"/>
        <pt x="3004" y="389" on="1"/>
      </contour>
      <contour>
        <pt x="1413" y="451" on="1"/>
        <pt x="1405" y="478" on="0"/>
        <pt x="1385" y="562" on="0"/>
        <pt x="1380" y="627" on="1"/>
        <pt x="1166" y="619" on="0"/>
        <pt x="867" y="589" on="0"/>
        <pt x="669" y="549" on="0"/>
        <pt x="556" y="503" on="0"/>
        <pt x="500" y="455" on="0"/>
        <pt x="487" y="407" on="0"/>
        <pt x="487" y="387" on="1"/>
        <pt x="487" y="363" on="0"/>
        <pt x="513" y="318" on="0"/>
        <pt x="578" y="284" on="0"/>
        <pt x="686" y="264" on="0"/>
        <pt x="768" y="264" on="1"/>
        <pt x="859" y="264" on="0"/>
        <pt x="1043" y="293" on="0"/>
        <pt x="1212" y="344" on="0"/>
        <pt x="1359" y="412" on="0"/>
      </contour>
      <contour>
        <pt x="2748" y="811" on="1"/>
        <pt x="2743" y="862" on="0"/>
        <pt x="2692" y="971" on="0"/>
        <pt x="2583" y="1059" on="0"/>
        <pt x="2404" y="1116" on="0"/>
        <pt x="2271" y="1116" on="1"/>
        <pt x="2146" y="1116" on="0"/>
        <pt x="1964" y="1054" on="0"/>
        <pt x="1841" y="962" on="0"/>
        <pt x="1773" y="856" on="0"/>
        <pt x="1763" y="811" on="1"/>
      </contour>
    </TTGlyph>
    <TTGlyph name="aeacute" xMin="113" yMin="-37" xMax="3117" yMax="1951">
      <component glyphName="ae" x="0" y="0" flags="0x204"/>
      <component glyphName="acute" x="1114" y="362" flags="0x4"/>
    </TTGlyph>
    <TTGlyph name="agrave" xMin="113" yMin="-27" xMax="1751" yMax="1951">
      <component glyphName="a" x="0" y="0" flags="0x204"/>
      <component glyphName="grave" x="418" y="362" flags="0x4"/>
    </TTGlyph>
    <TTGlyph name="amacron" xMin="113" yMin="-27" xMax="1751" yMax="1798">
      <component glyphName="a" x="0" y="0" flags="0x204"/>
      <component glyphName="macron" x="438" y="362" flags="0x4"/>
    </TTGlyph>
    <TTGlyph name="ampersand" xMin="135" yMin="-27" xMax="1892" yMax="1399">
      <contour>
        <pt x="1792" y="711" on="1"/>
        <pt x="1773" y="571" on="0"/>
        <pt x="1635" y="339" on="0"/>
        <pt x="1530" y="248" on="1"/>
        <pt x="1617" y="186" on="0"/>
        <pt x="1798" y="62" on="0"/>
        <pt x="1892" y="0" on="1"/>
        <pt x="1423" y="0" on="1"/>
        <pt x="1355" y="43" on="0"/>
        <pt x="1288" y="90" on="1"/>
        <pt x="1167" y="33" on="0"/>
        <pt x="903" y="-27" on="0"/>
        <pt x="772" y="-27" on="1"/>
        <pt x="621" y="-27" on="0"/>
        <pt x="384" y="24" on="0"/>
        <pt x="221" y="124" on="0"/>
        <pt x="135" y="273" on="0"/>
        <pt x="135" y="371" on="1"/>
        <pt x="135" y="446" on="0"/>
        <pt x="187" y="570" on="0"/>
        <pt x="276" y="672" on="0"/>
        <pt x="394" y="756" on="0"/>
        <pt x="459" y="791" on="1"/>
        <pt x="405" y="865" on="0"/>
        <pt x="346" y="1007" on="0"/>
        <pt x="346" y="1075" on="1"/>
        <pt x="346" y="1152" on="0"/>
        <pt x="416" y="1272" on="0"/>
        <pt x="552" y="1355" on="0"/>
        <pt x="749" y="1399" on="0"/>
        <pt x="877" y="1399" on="1"/>
        <pt x="991" y="1399" on="0"/>
        <pt x="1164" y="1352" on="0"/>
        <pt x="1279" y="1272" on="0"/>
        <pt x="1337" y="1169" on="0"/>
        <pt x="1337" y="1114" on="1"/>
        <pt x="1337" y="1045" on="0"/>
        <pt x="1268" y="933" on="0"/>
        <pt x="1154" y="839" on="0"/>
        <pt x="1008" y="760" on="0"/>
        <pt x="930" y="725" on="1"/>
        <pt x="1005" y="654" on="0"/>
        <pt x="1188" y="501" on="0"/>
        <pt x="1296" y="420" on="1"/>
        <pt x="1355" y="472" on="0"/>
        <pt x="1430" y="617" on="0"/>
        <pt x="1440" y="711" on="1"/>
      </contour>
      <contour>
        <pt x="778" y="242" on="1"/>
        <pt x="834" y="242" on="0"/>
        <pt x="959" y="257" on="0"/>
        <pt x="1024" y="274" on="1"/>
        <pt x="916" y="355" on="0"/>
        <pt x="723" y="510" on="0"/>
        <pt x="641" y="588" on="1"/>
        <pt x="570" y="550" on="0"/>
        <pt x="483" y="464" on="0"/>
        <pt x="483" y="412" on="1"/>
        <pt x="483" y="383" on="0"/>
        <pt x="509" y="322" on="0"/>
        <pt x="576" y="273" on="0"/>
        <pt x="690" y="242" on="0"/>
      </contour>
      <contour>
        <pt x="694" y="1055" on="1"/>
        <pt x="694" y="1027" on="0"/>
        <pt x="724" y="960" on="0"/>
        <pt x="752" y="920" on="1"/>
        <pt x="804" y="941" on="0"/>
        <pt x="894" y="980" on="0"/>
        <pt x="961" y="1019" on="0"/>
        <pt x="999" y="1061" on="0"/>
        <pt x="999" y="1085" on="1"/>
        <pt x="999" y="1097" on="0"/>
        <pt x="987" y="1127" on="0"/>
        <pt x="957" y="1153" on="0"/>
        <pt x="904" y="1171" on="0"/>
        <pt x="862" y="1171" on="1"/>
        <pt x="811" y="1171" on="0"/>
        <pt x="745" y="1152" on="0"/>
        <pt x="708" y="1121" on="0"/>
        <pt x="694" y="1079" on="0"/>
      </contour>
    </TTGlyph>
    <TTGlyph name="aogonek" xMin="113" yMin="-483" xMax="1843" yMax="1399">
      <contour>
        <pt x="1599" y="0" on="1"/>
        <pt x="1544" y="-48" on="0"/>
        <pt x="1479" y="-157" on="0"/>
        <pt x="1479" y="-207" on="1"/>
        <pt x="1479" y="-249" on="0"/>
        <pt x="1536" y="-283" on="0"/>
        <pt x="1599" y="-283" on="1"/>
        <pt x="1627" y="-283" on="0"/>
        <pt x="1695" y="-271" on="0"/>
        <pt x="1762" y="-254" on="0"/>
        <pt x="1822" y="-234" on="0"/>
        <pt x="1843" y="-225" on="1"/>
        <pt x="1843" y="-432" on="1"/>
        <pt x="1822" y="-438" on="0"/>
        <pt x="1757" y="-456" on="0"/>
        <pt x="1670" y="-472" on="0"/>
        <pt x="1564" y="-483" on="0"/>
        <pt x="1503" y="-483" on="1"/>
        <pt x="1443" y="-483" on="0"/>
        <pt x="1333" y="-461" on="0"/>
        <pt x="1250" y="-411" on="0"/>
        <pt x="1200" y="-331" on="0"/>
        <pt x="1200" y="-272" on="1"/>
        <pt x="1200" y="-243" on="0"/>
        <pt x="1225" y="-171" on="0"/>
        <pt x="1272" y="-97" on="0"/>
        <pt x="1339" y="-27" on="0"/>
        <pt x="1380" y="0" on="1"/>
        <pt x="1380" y="135" on="1"/>
        <pt x="1309" y="96" on="0"/>
        <pt x="1146" y="36" on="0"/>
        <pt x="970" y="-6" on="0"/>
        <pt x="783" y="-27" on="0"/>
        <pt x="688" y="-27" on="1"/>
        <pt x="577" y="-27" on="0"/>
        <pt x="370" y="15" on="0"/>
        <pt x="210" y="109" on="0"/>
        <pt x="113" y="261" on="0"/>
        <pt x="113" y="371" on="1"/>
        <pt x="113" y="510" on="0"/>
        <pt x="265" y="695" on="0"/>
        <pt x="577" y="813" on="0"/>
        <pt x="1054" y="877" on="0"/>
        <pt x="1380" y="895" on="1"/>
        <pt x="1380" y="924" on="1"/>
        <pt x="1380" y="958" on="0"/>
        <pt x="1344" y="1025" on="0"/>
        <pt x="1249" y="1076" on="0"/>
        <pt x="1084" y="1108" on="0"/>
        <pt x="956" y="1108" on="1"/>
        <pt x="855" y="1108" on="0"/>
        <pt x="658" y="1087" on="0"/>
        <pt x="475" y="1051" on="0"/>
        <pt x="311" y="1003" on="0"/>
        <pt x="244" y="977" on="1"/>
        <pt x="244" y="1307" on="1"/>
        <pt x="314" y="1325" on="0"/>
        <pt x="488" y="1359" on="0"/>
        <pt x="676" y="1384" on="0"/>
        <pt x="868" y="1399" on="0"/>
        <pt x="956" y="1399" on="1"/>
        <pt x="1129" y="1399" on="0"/>
        <pt x="1421" y="1342" on="0"/>
        <pt x="1632" y="1222" on="0"/>
        <pt x="1751" y="1038" on="0"/>
        <pt x="1751" y="911" on="1"/>
        <pt x="1751" y="0" on="1"/>
      </contour>
      <contour>
        <pt x="1380" y="627" on="1"/>
        <pt x="1166" y="619" on="0"/>
        <pt x="867" y="589" on="0"/>
        <pt x="669" y="549" on="0"/>
        <pt x="556" y="503" on="0"/>
        <pt x="500" y="455" on="0"/>
        <pt x="487" y="407" on="0"/>
        <pt x="487" y="387" on="1"/>
        <pt x="487" y="363" on="0"/>
        <pt x="513" y="318" on="0"/>
        <pt x="578" y="284" on="0"/>
        <pt x="686" y="264" on="0"/>
        <pt x="768" y="264" on="1"/>
        <pt x="859" y="264" on="0"/>
        <pt x="1033" y="292" on="0"/>
        <pt x="1189" y="341" on="0"/>
        <pt x="1326" y="408" on="0"/>
        <pt x="1380" y="446" on="1"/>
      </contour>
    </TTGlyph>
    <TTGlyph name="approxequal" xMin="152" yMin="233" xMax="1231" yMax="1141">
      <contour>
        <pt x="1231" y="338" on="1"/>
        <pt x="1210" y="317" on="0"/>
        <pt x="1152" y="281" on="0"/>
        <pt x="1082" y="254" on="0"/>
        <pt x="1005" y="238" on="0"/>
        <pt x="965" y="238" on="1"/>
        <pt x="903" y="238" on="0"/>
        <pt x="762" y="272" on="0"/>
        <pt x="616" y="312" on="0"/>
        <pt x="472" y="346" on="0"/>
        <pt x="408" y="346" on="1"/>
        <pt x="373" y="346" on="0"/>
        <pt x="299" y="326" on="0"/>
        <pt x="230" y="294" on="0"/>
        <pt x="171" y="253" on="0"/>
        <pt x="152" y="233" on="1"/>
        <pt x="152" y="537" on="1"/>
        <pt x="173" y="558" on="0"/>
        <pt x="235" y="596" on="0"/>
        <pt x="307" y="623" on="0"/>
        <pt x="382" y="639" on="0"/>
        <pt x="416" y="639" on="1"/>
        <pt x="477" y="639" on="0"/>
        <pt x="620" y="604" on="0"/>
        <pt x="767" y="563" on="0"/>
        <pt x="911" y="528" on="0"/>
        <pt x="975" y="528" on="1"/>
        <pt x="1009" y="528" on="0"/>
        <pt x="1083" y="548" on="0"/>
        <pt x="1152" y="581" on="0"/>
        <pt x="1211" y="622" on="0"/>
        <pt x="1231" y="643" on="1"/>
      </contour>
      <contour>
        <pt x="1231" y="836" on="1"/>
        <pt x="1210" y="815" on="0"/>
        <pt x="1152" y="778" on="0"/>
        <pt x="1082" y="751" on="0"/>
        <pt x="1005" y="735" on="0"/>
        <pt x="965" y="735" on="1"/>
        <pt x="903" y="735" on="0"/>
        <pt x="762" y="769" on="0"/>
        <pt x="616" y="810" on="0"/>
        <pt x="472" y="844" on="0"/>
        <pt x="408" y="844" on="1"/>
        <pt x="373" y="844" on="0"/>
        <pt x="299" y="824" on="0"/>
        <pt x="230" y="791" on="0"/>
        <pt x="171" y="751" on="0"/>
        <pt x="152" y="731" on="1"/>
        <pt x="152" y="1034" on="1"/>
        <pt x="173" y="1056" on="0"/>
        <pt x="235" y="1093" on="0"/>
        <pt x="307" y="1121" on="0"/>
        <pt x="382" y="1137" on="0"/>
        <pt x="416" y="1137" on="1"/>
        <pt x="477" y="1137" on="0"/>
        <pt x="620" y="1102" on="0"/>
        <pt x="767" y="1061" on="0"/>
        <pt x="911" y="1026" on="0"/>
        <pt x="975" y="1026" on="1"/>
        <pt x="1009" y="1026" on="0"/>
        <pt x="1083" y="1046" on="0"/>
        <pt x="1152" y="1079" on="0"/>
        <pt x="1211" y="1120" on="0"/>
        <pt x="1231" y="1141" on="1"/>
      </contour>
    </TTGlyph>
    <TTGlyph name="aring" xMin="113" yMin="-27" xMax="1751" yMax="1955">
      <component glyphName="a" x="0" y="0" flags="0x204"/>
      <component glyphName="ring" x="438" y="362" flags="0x4"/>
    </TTGlyph>
    <TTGlyph name="asciicircum" xMin="51" yMin="784" xMax="1157" yMax="1374">
      <contour>
        <pt x="819" y="784" on="1"/>
        <pt x="604" y="1135" on="1"/>
        <pt x="389" y="784" on="1"/>
        <pt x="51" y="784" on="1"/>
        <pt x="455" y="1374" on="1"/>
        <pt x="754" y="1374" on="1"/>
        <pt x="1157" y="784" on="1"/>
      </contour>
    </TTGlyph>
    <TTGlyph name="asciitilde" xMin="152" yMin="481" xMax="1231" yMax="891">
      <contour>
        <pt x="1210" y="565" on="0"/>
        <pt x="1152" y="528" on="0"/>
        <pt x="1082" y="501" on="0"/>
        <pt x="1005" y="485" on="0"/>
        <pt x="965" y="485" on="1"/>
        <pt x="903" y="485" on="0"/>
        <pt x="762" y="519" on="0"/>
        <pt x="616" y="560" on="0"/>
        <pt x="472" y="594" on="0"/>
        <pt x="408" y="594" on="1"/>
        <pt x="373" y="594" on="0"/>
        <pt x="299" y="574" on="0"/>
        <pt x="230" y="542" on="0"/>
        <pt x="171" y="501" on="0"/>
        <pt x="152" y="481" on="1"/>
        <pt x="152" y="784" on="1"/>
        <pt x="173" y="806" on="0"/>
        <pt x="235" y="843" on="0"/>
        <pt x="307" y="871" on="0"/>
        <pt x="382" y="887" on="0"/>
        <pt x="416" y="887" on="1"/>
        <pt x="477" y="887" on="0"/>
        <pt x="620" y="852" on="0"/>
        <pt x="767" y="811" on="0"/>
        <pt x="911" y="776" on="0"/>
        <pt x="975" y="776" on="1"/>
        <pt x="1009" y="776" on="0"/>
        <pt x="1083" y="796" on="0"/>
        <pt x="1152" y="829" on="0"/>
        <pt x="1211" y="870" on="0"/>
        <pt x="1231" y="891" on="1"/>
        <pt x="1231" y="586" on="1"/>
      </contour>
    </TTGlyph>
    <TTGlyph name="asterisk" xMin="102" yMin="537" xMax="973" yMax="1374">
      <contour>
        <pt x="432" y="537" on="1"/>
        <pt x="465" y="827" on="1"/>
        <pt x="211" y="641" on="1"/>
        <pt x="102" y="827" on="1"/>
        <pt x="391" y="954" on="1"/>
        <pt x="104" y="1081" on="1"/>
        <pt x="211" y="1268" on="1"/>
        <pt x="465" y="1081" on="1"/>
        <pt x="432" y="1374" on="1"/>
        <pt x="647" y="1374" on="1"/>
        <pt x="614" y="1085" on="1"/>
        <pt x="864" y="1268" on="1"/>
        <pt x="971" y="1081" on="1"/>
        <pt x="686" y="954" on="1"/>
        <pt x="973" y="829" on="1"/>
        <pt x="864" y="643" on="1"/>
        <pt x="614" y="825" on="1"/>
        <pt x="647" y="537" on="1"/>
      </contour>
    </TTGlyph>
    <TTGlyph name="at" xMin="135" yMin="-39" xMax="1946" yMax="1425">
      <contour>
        <pt x="1221" y="436" on="1"/>
        <pt x="1200" y="417" on="0"/>
        <pt x="1151" y="377" on="0"/>
        <pt x="1084" y="345" on="0"/>
        <pt x="996" y="324" on="0"/>
        <pt x="936" y="324" on="1"/>
        <pt x="867" y="324" on="0"/>
        <pt x="747" y="362" on="0"/>
        <pt x="657" y="437" on="0"/>
        <pt x="606" y="547" on="0"/>
        <pt x="606" y="618" on="1"/>
        <pt x="606" y="690" on="0"/>
        <pt x="648" y="810" on="0"/>
        <pt x="718" y="907" on="0"/>
        <pt x="808" y="980" on="0"/>
        <pt x="907" y="1028" on="0"/>
        <pt x="1006" y="1053" on="0"/>
        <pt x="1049" y="1053" on="1"/>
        <pt x="1118" y="1053" on="0"/>
        <pt x="1206" y="1017" on="0"/>
        <pt x="1229" y="1001" on="1"/>
        <pt x="1237" y="1038" on="1"/>
        <pt x="1470" y="1038" on="1"/>
        <pt x="1409" y="666" on="1"/>
        <pt x="1408" y="663" on="0"/>
        <pt x="1404" y="637" on="0"/>
        <pt x="1400" y="607" on="0"/>
        <pt x="1397" y="582" on="0"/>
        <pt x="1397" y="580" on="1"/>
        <pt x="1397" y="569" on="0"/>
        <pt x="1402" y="543" on="0"/>
        <pt x="1417" y="521" on="0"/>
        <pt x="1443" y="506" on="0"/>
        <pt x="1464" y="506" on="1"/>
        <pt x="1520" y="506" on="0"/>
        <pt x="1594" y="566" on="0"/>
        <pt x="1637" y="653" on="0"/>
        <pt x="1655" y="750" on="0"/>
        <pt x="1655" y="788" on="1"/>
        <pt x="1655" y="873" on="0"/>
        <pt x="1600" y="1020" on="0"/>
        <pt x="1470" y="1128" on="0"/>
        <pt x="1257" y="1190" on="0"/>
        <pt x="1100" y="1190" on="1"/>
        <pt x="983" y="1190" on="0"/>
        <pt x="792" y="1146" on="0"/>
        <pt x="643" y="1070" on="0"/>
        <pt x="535" y="966" on="0"/>
        <pt x="464" y="846" on="0"/>
        <pt x="430" y="716" on="0"/>
        <pt x="430" y="651" on="1"/>
        <pt x="430" y="557" on="0"/>
        <pt x="488" y="391" on="0"/>
        <pt x="628" y="267" on="0"/>
        <pt x="859" y="195" on="0"/>
        <pt x="1032" y="195" on="1"/>
        <pt x="1090" y="195" on="0"/>
        <pt x="1187" y="201" on="0"/>
        <pt x="1269" y="213" on="0"/>
        <pt x="1340" y="230" on="0"/>
        <pt x="1374" y="242" on="1"/>
        <pt x="1438" y="18" on="1"/>
        <pt x="1401" y="5" on="0"/>
        <pt x="1302" y="-16" on="0"/>
        <pt x="1192" y="-31" on="0"/>
        <pt x="1077" y="-39" on="0"/>
        <pt x="1024" y="-39" on="1"/>
        <pt x="800" y="-39" on="0"/>
        <pt x="466" y="57" on="0"/>
        <pt x="245" y="237" on="0"/>
        <pt x="135" y="492" on="0"/>
        <pt x="135" y="651" on="1"/>
        <pt x="135" y="758" on="0"/>
        <pt x="200" y="955" on="0"/>
        <pt x="321" y="1127" on="0"/>
        <pt x="493" y="1268" on="0"/>
        <pt x="706" y="1370" on="0"/>
        <pt x="957" y="1425" on="0"/>
        <pt x="1096" y="1425" on="1"/>
        <pt x="1243" y="1425" on="0"/>
        <pt x="1484" y="1377" on="0"/>
        <pt x="1673" y="1291" on="0"/>
        <pt x="1811" y="1172" on="0"/>
        <pt x="1902" y="1032" on="0"/>
        <pt x="1946" y="875" on="0"/>
        <pt x="1946" y="793" on="1"/>
        <pt x="1946" y="701" on="0"/>
        <pt x="1887" y="532" on="0"/>
        <pt x="1767" y="402" on="0"/>
        <pt x="1583" y="324" on="0"/>
        <pt x="1458" y="324" on="1"/>
        <pt x="1419" y="324" on="0"/>
        <pt x="1345" y="338" on="0"/>
        <pt x="1283" y="366" on="0"/>
        <pt x="1234" y="408" on="0"/>
      </contour>
      <contour>
        <pt x="979" y="500" on="1"/>
        <pt x="1013" y="500" on="0"/>
        <pt x="1065" y="518" on="0"/>
        <pt x="1107" y="548" on="0"/>
        <pt x="1142" y="588" on="0"/>
        <pt x="1157" y="610" on="1"/>
        <pt x="1194" y="815" on="1"/>
        <pt x="1184" y="830" on="0"/>
        <pt x="1154" y="853" on="0"/>
        <pt x="1121" y="869" on="0"/>
        <pt x="1085" y="877" on="0"/>
        <pt x="1069" y="877" on="1"/>
        <pt x="1024" y="877" on="0"/>
        <pt x="943" y="837" on="0"/>
        <pt x="883" y="770" on="0"/>
        <pt x="848" y="680" on="0"/>
        <pt x="848" y="629" on="1"/>
        <pt x="848" y="603" on="0"/>
        <pt x="862" y="556" on="0"/>
        <pt x="894" y="521" on="0"/>
        <pt x="944" y="500" on="0"/>
      </contour>
    </TTGlyph>
    <TTGlyph name="atilde" xMin="113" yMin="-27" xMax="1751" yMax="1873">
      <component glyphName="a" x="0" y="0" flags="0x204"/>
      <component glyphName="tilde" x="440" y="362" flags="0x4"/>
    </TTGlyph>
    <TTGlyph name="b" xMin="215" yMin="0" xMax="1782" yMax="1374">
      <contour>
        <pt x="1782" y="379" on="1"/>
        <pt x="1782" y="299" on="0"/>
        <pt x="1740" y="181" on="0"/>
        <pt x="1665" y="96" on="0"/>
        <pt x="1560" y="43" on="0"/>
        <pt x="1433" y="12" on="0"/>
        <pt x="1289" y="0" on="0"/>
        <pt x="1212" y="0" on="1"/>
        <pt x="215" y="0" on="1"/>
        <pt x="215" y="1374" on="1"/>
        <pt x="1194" y="1374" on="1"/>
        <pt x="1253" y="1374" on="0"/>
        <pt x="1372" y="1364" on="0"/>
        <pt x="1480" y="1337" on="0"/>
        <pt x="1573" y="1289" on="0"/>
        <pt x="1642" y="1211" on="0"/>
        <pt x="1681" y="1101" on="0"/>
        <pt x="1681" y="1026" on="1"/>
        <pt x="1681" y="892" on="0"/>
        <pt x="1549" y="735" on="0"/>
        <pt x="1407" y="709" on="1"/>
        <pt x="1507" y="702" on="0"/>
        <pt x="1650" y="655" on="0"/>
        <pt x="1740" y="574" on="0"/>
        <pt x="1782" y="457" on="0"/>
      </contour>
      <contour>
        <pt x="1319" y="967" on="1"/>
        <pt x="1319" y="993" on="0"/>
        <pt x="1303" y="1040" on="0"/>
        <pt x="1261" y="1076" on="0"/>
        <pt x="1189" y="1098" on="0"/>
        <pt x="1133" y="1098" on="1"/>
        <pt x="586" y="1098" on="1"/>
        <pt x="586" y="840" on="1"/>
        <pt x="1133" y="840" on="1"/>
        <pt x="1189" y="840" on="0"/>
        <pt x="1261" y="860" on="0"/>
        <pt x="1303" y="894" on="0"/>
        <pt x="1319" y="941" on="0"/>
      </contour>
      <contour>
        <pt x="1405" y="422" on="1"/>
        <pt x="1405" y="469" on="0"/>
        <pt x="1373" y="526" on="0"/>
        <pt x="1305" y="557" on="0"/>
        <pt x="1197" y="567" on="0"/>
        <pt x="1122" y="567" on="1"/>
        <pt x="586" y="567" on="1"/>
        <pt x="586" y="276" on="1"/>
        <pt x="1122" y="276" on="1"/>
        <pt x="1197" y="276" on="0"/>
        <pt x="1305" y="286" on="0"/>
        <pt x="1373" y="318" on="0"/>
        <pt x="1405" y="375" on="0"/>
      </contour>
    </TTGlyph>
    <TTGlyph name="backslash" xMin="92" yMin="-41" xMax="1096" yMax="1436">
      <contour>
        <pt x="92" y="1436" on="1"/>
        <pt x="418" y="1436" on="1"/>
        <pt x="1096" y="-41" on="1"/>
        <pt x="770" y="-41" on="1"/>
      </contour>
    </TTGlyph>
    <TTGlyph name="bar" xMin="164" yMin="-483" xMax="451" yMax="1565">
      <contour>
        <pt x="164" y="-483" on="1"/>
        <pt x="164" y="1565" on="1"/>
        <pt x="451" y="1565" on="1"/>
        <pt x="451" y="-483" on="1"/>
      </contour>
    </TTGlyph>
    <TTGlyph name="braceleft" xMin="51" yMin="-121" xMax="883" yMax="1489">
      <contour>
        <pt x="281" y="272" on="1"/>
        <pt x="281" y="347" on="0"/>
        <pt x="269" y="453" on="0"/>
        <pt x="228" y="521" on="0"/>
        <pt x="153" y="553" on="0"/>
        <pt x="90" y="553" on="1"/>
        <pt x="51" y="553" on="1"/>
        <pt x="51" y="819" on="1"/>
        <pt x="90" y="819" on="1"/>
        <pt x="154" y="819" on="0"/>
        <pt x="230" y="852" on="0"/>
        <pt x="270" y="921" on="0"/>
        <pt x="281" y="1028" on="0"/>
        <pt x="281" y="1102" on="1"/>
        <pt x="281" y="1143" on="1"/>
        <pt x="281" y="1236" on="0"/>
        <pt x="334" y="1367" on="0"/>
        <pt x="429" y="1451" on="0"/>
        <pt x="561" y="1489" on="0"/>
        <pt x="639" y="1489" on="1"/>
        <pt x="883" y="1489" on="1"/>
        <pt x="883" y="1219" on="1"/>
        <pt x="797" y="1219" on="1"/>
        <pt x="751" y="1219" on="0"/>
        <pt x="681" y="1209" on="0"/>
        <pt x="634" y="1169" on="0"/>
        <pt x="610" y="1087" on="0"/>
        <pt x="610" y="1014" on="1"/>
        <pt x="610" y="999" on="1"/>
        <pt x="610" y="943" on="0"/>
        <pt x="596" y="842" on="0"/>
        <pt x="557" y="759" on="0"/>
        <pt x="487" y="700" on="0"/>
        <pt x="430" y="686" on="1"/>
        <pt x="486" y="671" on="0"/>
        <pt x="557" y="612" on="0"/>
        <pt x="596" y="530" on="0"/>
        <pt x="610" y="429" on="0"/>
        <pt x="610" y="373" on="1"/>
        <pt x="610" y="354" on="1"/>
        <pt x="610" y="281" on="0"/>
        <pt x="634" y="199" on="0"/>
        <pt x="681" y="159" on="0"/>
        <pt x="751" y="150" on="0"/>
        <pt x="797" y="150" on="1"/>
        <pt x="883" y="150" on="1"/>
        <pt x="883" y="-121" on="1"/>
        <pt x="639" y="-121" on="1"/>
        <pt x="561" y="-121" on="0"/>
        <pt x="429" y="-83" on="0"/>
        <pt x="334" y="1" on="0"/>
        <pt x="281" y="132" on="0"/>
        <pt x="281" y="225" on="1"/>
      </contour>
    </TTGlyph>
    <TTGlyph name="braceright" xMin="92" yMin="-121" xMax="924" yMax="1489">
      <contour>
        <pt x="694" y="225" on="1"/>
        <pt x="694" y="132" on="0"/>
        <pt x="641" y="1" on="0"/>
        <pt x="546" y="-83" on="0"/>
        <pt x="414" y="-121" on="0"/>
        <pt x="336" y="-121" on="1"/>
        <pt x="92" y="-121" on="1"/>
        <pt x="92" y="150" on="1"/>
        <pt x="178" y="150" on="1"/>
        <pt x="224" y="150" on="0"/>
        <pt x="294" y="159" on="0"/>
        <pt x="341" y="199" on="0"/>
        <pt x="365" y="281" on="0"/>
        <pt x="365" y="354" on="1"/>
        <pt x="365" y="373" on="1"/>
        <pt x="365" y="429" on="0"/>
        <pt x="379" y="530" on="0"/>
        <pt x="418" y="612" on="0"/>
        <pt x="489" y="671" on="0"/>
        <pt x="545" y="686" on="1"/>
        <pt x="488" y="700" on="0"/>
        <pt x="417" y="759" on="0"/>
        <pt x="378" y="842" on="0"/>
        <pt x="365" y="943" on="0"/>
        <pt x="365" y="999" on="1"/>
        <pt x="365" y="1014" on="1"/>
        <pt x="365" y="1087" on="0"/>
        <pt x="341" y="1169" on="0"/>
        <pt x="294" y="1209" on="0"/>
        <pt x="224" y="1219" on="0"/>
        <pt x="178" y="1219" on="1"/>
        <pt x="92" y="1219" on="1"/>
        <pt x="92" y="1489" on="1"/>
        <pt x="336" y="1489" on="1"/>
        <pt x="414" y="1489" on="0"/>
        <pt x="546" y="1451" on="0"/>
        <pt x="641" y="1367" on="0"/>
        <pt x="694" y="1236" on="0"/>
        <pt x="694" y="1143" on="1"/>
        <pt x="694" y="1102" on="1"/>
        <pt x="694" y="1028" on="0"/>
        <pt x="705" y="921" on="0"/>
        <pt x="745" y="852" on="0"/>
        <pt x="820" y="819" on="0"/>
        <pt x="885" y="819" on="1"/>
        <pt x="924" y="819" on="1"/>
        <pt x="924" y="553" on="1"/>
        <pt x="885" y="553" on="1"/>
        <pt x="822" y="553" on="0"/>
        <pt x="747" y="521" on="0"/>
        <pt x="706" y="453" on="0"/>
        <pt x="694" y="347" on="0"/>
        <pt x="694" y="272" on="1"/>
      </contour>
    </TTGlyph>
    <TTGlyph name="bracketleft" xMin="236" yMin="-121" xMax="918" yMax="1489">
      <contour>
        <pt x="236" y="-121" on="1"/>
        <pt x="236" y="1489" on="1"/>
        <pt x="918" y="1489" on="1"/>
        <pt x="918" y="1219" on="1"/>
        <pt x="565" y="1219" on="1"/>
        <pt x="565" y="150" on="1"/>
        <pt x="918" y="150" on="1"/>
        <pt x="918" y="-121" on="1"/>
      </contour>
    </TTGlyph>
    <TTGlyph name="bracketright" xMin="92" yMin="-121" xMax="774" yMax="1489">
      <contour>
        <pt x="92" y="-121" on="1"/>
        <pt x="92" y="150" on="1"/>
        <pt x="444" y="150" on="1"/>
        <pt x="444" y="1219" on="1"/>
        <pt x="92" y="1219" on="1"/>
        <pt x="92" y="1489" on="1"/>
        <pt x="774" y="1489" on="1"/>
        <pt x="774" y="-121" on="1"/>
      </contour>
    </TTGlyph>
    <TTGlyph name="breve" xMin="133" yMin="1151" xMax="948" yMax="1552">
      <contour>
        <pt x="947" y="1527" on="0"/>
        <pt x="933" y="1449" on="0"/>
        <pt x="899" y="1360" on="0"/>
        <pt x="842" y="1270" on="0"/>
        <pt x="752" y="1197" on="0"/>
        <pt x="626" y="1151" on="0"/>
        <pt x="541" y="1151" on="1"/>
        <pt x="455" y="1151" on="0"/>
        <pt x="329" y="1197" on="0"/>
        <pt x="240" y="1270" on="0"/>
        <pt x="182" y="1360" on="0"/>
        <pt x="149" y="1449" on="0"/>
        <pt x="134" y="1527" on="0"/>
        <pt x="133" y="1552" on="1"/>
        <pt x="322" y="1552" on="1"/>
        <pt x="328" y="1534" on="0"/>
        <pt x="353" y="1484" on="0"/>
        <pt x="402" y="1438" on="0"/>
        <pt x="481" y="1405" on="0"/>
        <pt x="541" y="1405" on="1"/>
        <pt x="600" y="1405" on="0"/>
        <pt x="679" y="1438" on="0"/>
        <pt x="729" y="1484" on="0"/>
        <pt x="756" y="1534" on="0"/>
        <pt x="762" y="1552" on="1"/>
        <pt x="948" y="1552" on="1"/>
      </contour>
    </TTGlyph>
    <TTGlyph name="brokenbar" xMin="164" yMin="-352" xMax="451" yMax="1430">
      <contour>
        <pt x="164" y="672" on="1"/>
        <pt x="164" y="1430" on="1"/>
        <pt x="451" y="1430" on="1"/>
        <pt x="451" y="672" on="1"/>
      </contour>
      <contour>
        <pt x="164" y="-352" on="1"/>
        <pt x="164" y="406" on="1"/>
        <pt x="451" y="406" on="1"/>
        <pt x="451" y="-352" on="1"/>
      </contour>
    </TTGlyph>
    <TTGlyph name="bullet" xMin="143" yMin="412" xMax="731" yMax="999">
      <contour>
        <pt x="143" y="705" on="1"/>
        <pt x="143" y="765" on="0"/>
        <pt x="189" y="872" on="0"/>
        <pt x="268" y="952" on="0"/>
        <pt x="375" y="999" on="0"/>
        <pt x="436" y="999" on="1"/>
        <pt x="497" y="999" on="0"/>
        <pt x="604" y="952" on="0"/>
        <pt x="684" y="872" on="0"/>
        <pt x="731" y="765" on="0"/>
        <pt x="731" y="705" on="1"/>
        <pt x="731" y="644" on="0"/>
        <pt x="684" y="537" on="0"/>
        <pt x="604" y="458" on="0"/>
        <pt x="497" y="412" on="0"/>
        <pt x="436" y="412" on="1"/>
        <pt x="375" y="412" on="0"/>
        <pt x="268" y="458" on="0"/>
        <pt x="189" y="537" on="0"/>
        <pt x="143" y="644" on="0"/>
      </contour>
    </TTGlyph>
    <TTGlyph name="c" xMin="123" yMin="-37" xMax="1729" yMax="1409">
      <contour>
        <pt x="1657" y="64" on="0"/>
        <pt x="1511" y="16" on="0"/>
        <pt x="1355" y="-19" on="0"/>
        <pt x="1182" y="-37" on="0"/>
        <pt x="1083" y="-37" on="1"/>
        <pt x="873" y="-37" on="0"/>
        <pt x="520" y="53" on="0"/>
        <pt x="265" y="234" on="0"/>
        <pt x="123" y="505" on="0"/>
        <pt x="123" y="686" on="1"/>
        <pt x="123" y="867" on="0"/>
        <pt x="265" y="1138" on="0"/>
        <pt x="520" y="1319" on="0"/>
        <pt x="873" y="1409" on="0"/>
        <pt x="1083" y="1409" on="1"/>
        <pt x="1182" y="1409" on="0"/>
        <pt x="1355" y="1391" on="0"/>
        <pt x="1511" y="1356" on="0"/>
        <pt x="1657" y="1308" on="0"/>
        <pt x="1729" y="1278" on="1"/>
        <pt x="1729" y="944" on="1"/>
        <pt x="1672" y="975" on="0"/>
        <pt x="1546" y="1036" on="0"/>
        <pt x="1394" y="1085" on="0"/>
        <pt x="1212" y="1116" on="0"/>
        <pt x="1098" y="1116" on="1"/>
        <pt x="923" y="1116" on="0"/>
        <pt x="692" y="1044" on="0"/>
        <pt x="554" y="924" on="0"/>
        <pt x="498" y="769" on="0"/>
        <pt x="498" y="686" on="1"/>
        <pt x="498" y="631" on="0"/>
        <pt x="522" y="524" on="0"/>
        <pt x="578" y="429" on="0"/>
        <pt x="668" y="349" on="0"/>
        <pt x="802" y="291" on="0"/>
        <pt x="981" y="258" on="0"/>
        <pt x="1098" y="258" on="1"/>
        <pt x="1212" y="258" on="0"/>
        <pt x="1394" y="287" on="0"/>
        <pt x="1546" y="335" on="0"/>
        <pt x="1672" y="396" on="0"/>
        <pt x="1729" y="428" on="1"/>
        <pt x="1729" y="94" on="1"/>
      </contour>
    </TTGlyph>
    <TTGlyph name="cacute" xMin="123" yMin="-37" xMax="1729" yMax="1951">
      <component glyphName="c" x="0" y="0" flags="0x204"/>
      <component glyphName="acute" x="532" y="362" flags="0x4"/>
    </TTGlyph>
    <TTGlyph name="caron" xMin="72" yMin="1139" xMax="1010" yMax="1593">
      <contour>
        <pt x="193" y="1593" on="1"/>
        <pt x="541" y="1413" on="1"/>
        <pt x="889" y="1593" on="1"/>
        <pt x="1010" y="1405" on="1"/>
        <pt x="541" y="1139" on="1"/>
        <pt x="72" y="1405" on="1"/>
      </contour>
    </TTGlyph>
    <TTGlyph name="ccaron" xMin="123" yMin="-37" xMax="1729" yMax="1955">
      <component glyphName="c" x="0" y="0" flags="0x204"/>
      <component glyphName="caron" x="526" y="362" flags="0x4"/>
    </TTGlyph>
    <TTGlyph name="ccedilla" xMin="123" yMin="-523" xMax="1729" yMax="1409">
      <component glyphName="c" x="0" y="0" flags="0x204"/>
      <component glyphName="cedilla" x="500" y="-19" flags="0x4"/>
    </TTGlyph>
    <TTGlyph name="ccircumflex" xMin="123" yMin="-37" xMax="1729" yMax="1955">
      <component glyphName="c" x="0" y="0" flags="0x204"/>
      <component glyphName="circumflex" x="526" y="362" flags="0x4"/>
    </TTGlyph>
    <TTGlyph name="cdotaccent" xMin="123" yMin="-37" xMax="1729" yMax="1839">
      <component glyphName="c" x="0" y="0" flags="0x204"/>
      <component glyphName="dotaccent" x="526" y="362" flags="0x4"/>
    </TTGlyph>
    <TTGlyph name="cedilla" xMin="211" yMin="-504" xMax="854" yMax="20">
      <contour>
        <pt x="578" y="-78" on="1"/>
        <pt x="621" y="-78" on="0"/>
        <pt x="719" y="-93" on="0"/>
        <pt x="800" y="-137" on="0"/>
        <pt x="854" y="-215" on="0"/>
        <pt x="854" y="-279" on="1"/>
        <pt x="854" y="-343" on="0"/>
        <pt x="791" y="-429" on="0"/>
        <pt x="689" y="-482" on="0"/>
        <pt x="563" y="-504" on="0"/>
        <pt x="500" y="-504" on="1"/>
        <pt x="444" y="-504" on="0"/>
        <pt x="355" y="-498" on="0"/>
        <pt x="286" y="-490" on="0"/>
        <pt x="232" y="-481" on="0"/>
        <pt x="211" y="-477" on="1"/>
        <pt x="211" y="-283" on="1"/>
        <pt x="256" y="-303" on="0"/>
        <pt x="372" y="-332" on="0"/>
        <pt x="434" y="-332" on="1"/>
        <pt x="465" y="-332" on="0"/>
        <pt x="520" y="-325" on="0"/>
        <pt x="559" y="-311" on="0"/>
        <pt x="582" y="-289" on="0"/>
        <pt x="582" y="-274" on="1"/>
        <pt x="582" y="-256" on="0"/>
        <pt x="555" y="-235" on="0"/>
        <pt x="515" y="-223" on="0"/>
        <pt x="471" y="-219" on="0"/>
        <pt x="453" y="-219" on="1"/>
        <pt x="427" y="-219" on="0"/>
        <pt x="371" y="-225" on="0"/>
        <pt x="348" y="-231" on="1"/>
        <pt x="444" y="20" on="1"/>
        <pt x="616" y="20" on="1"/>
      </contour>
    </TTGlyph>
    <TTGlyph name="cent" xMin="61" yMin="-129" xMax="1454" yMax="1503">
      <contour>
        <pt x="1454" y="184" on="1"/>
        <pt x="1347" y="141" on="0"/>
        <pt x="1124" y="83" on="0"/>
        <pt x="991" y="74" on="1"/>
        <pt x="991" y="-129" on="1"/>
        <pt x="727" y="-129" on="1"/>
        <pt x="727" y="80" on="1"/>
        <pt x="578" y="96" on="0"/>
        <pt x="333" y="189" on="0"/>
        <pt x="157" y="344" on="0"/>
        <pt x="61" y="559" on="0"/>
        <pt x="61" y="698" on="1"/>
        <pt x="61" y="836" on="0"/>
        <pt x="157" y="1052" on="0"/>
        <pt x="333" y="1207" on="0"/>
        <pt x="578" y="1301" on="0"/>
        <pt x="727" y="1317" on="1"/>
        <pt x="727" y="1503" on="1"/>
        <pt x="991" y="1503" on="1"/>
        <pt x="991" y="1321" on="1"/>
        <pt x="1058" y="1317" on="0"/>
        <pt x="1179" y="1299" on="0"/>
        <pt x="1292" y="1270" on="0"/>
        <pt x="1400" y="1234" on="0"/>
        <pt x="1454" y="1212" on="1"/>
        <pt x="1454" y="891" on="1"/>
        <pt x="1409" y="915" on="0"/>
        <pt x="1313" y="963" on="0"/>
        <pt x="1201" y="1003" on="0"/>
        <pt x="1070" y="1033" on="0"/>
        <pt x="991" y="1038" on="1"/>
        <pt x="991" y="360" on="1"/>
        <pt x="1070" y="365" on="0"/>
        <pt x="1201" y="393" on="0"/>
        <pt x="1313" y="433" on="0"/>
        <pt x="1409" y="481" on="0"/>
        <pt x="1454" y="506" on="1"/>
      </contour>
      <contour>
        <pt x="424" y="698" on="1"/>
        <pt x="424" y="645" on="0"/>
        <pt x="455" y="544" on="0"/>
        <pt x="527" y="457" on="0"/>
        <pt x="643" y="392" on="0"/>
        <pt x="727" y="375" on="1"/>
        <pt x="727" y="1024" on="1"/>
        <pt x="643" y="1006" on="0"/>
        <pt x="527" y="939" on="0"/>
        <pt x="455" y="852" on="0"/>
        <pt x="424" y="750" on="0"/>
      </contour>
    </TTGlyph>
    <TTGlyph name="circumflex" xMin="72" yMin="1139" xMax="1010" yMax="1593">
      <contour>
        <pt x="889" y="1139" on="1"/>
        <pt x="541" y="1319" on="1"/>
        <pt x="193" y="1139" on="1"/>
        <pt x="72" y="1327" on="1"/>
        <pt x="541" y="1593" on="1"/>
        <pt x="1010" y="1327" on="1"/>
      </contour>
    </TTGlyph>
    <TTGlyph name="colon" xMin="123" yMin="0" xMax="502" yMax="995">
      <contour>
        <pt x="123" y="0" on="1"/>
        <pt x="123" y="360" on="1"/>
        <pt x="502" y="360" on="1"/>
        <pt x="502" y="0" on="1"/>
      </contour>
      <contour>
        <pt x="123" y="635" on="1"/>
        <pt x="123" y="995" on="1"/>
        <pt x="502" y="995" on="1"/>
        <pt x="502" y="635" on="1"/>
      </contour>
    </TTGlyph>
    <TTGlyph name="comma" xMin="0" yMin="-203" xMax="451" yMax="360">
      <contour>
        <pt x="305" y="-203" on="1"/>
        <pt x="0" y="-203" on="1"/>
        <pt x="82" y="360" on="1"/>
        <pt x="451" y="360" on="1"/>
      </contour>
    </TTGlyph>
    <TTGlyph name="commaaccent" xMin="356" yMin="-504" xMax="733" yMax="-123">
      <contour>
        <pt x="600" y="-504" on="1"/>
        <pt x="356" y="-504" on="1"/>
        <pt x="406" y="-123" on="1"/>
        <pt x="733" y="-123" on="1"/>
      </contour>
    </TTGlyph>
    <TTGlyph name="copyright" xMin="102" yMin="0" xMax="1477" yMax="1374">
      <contour>
        <pt x="1477" y="686" on="1"/>
        <pt x="1477" y="591" on="0"/>
        <pt x="1428" y="416" on="0"/>
        <pt x="1338" y="263" on="0"/>
        <pt x="1213" y="138" on="0"/>
        <pt x="1059" y="49" on="0"/>
        <pt x="883" y="0" on="0"/>
        <pt x="788" y="0" on="1"/>
        <pt x="694" y="0" on="0"/>
        <pt x="518" y="49" on="0"/>
        <pt x="366" y="138" on="0"/>
        <pt x="241" y="263" on="0"/>
        <pt x="151" y="416" on="0"/>
        <pt x="102" y="591" on="0"/>
        <pt x="102" y="686" on="1"/>
        <pt x="102" y="781" on="0"/>
        <pt x="151" y="957" on="0"/>
        <pt x="241" y="1110" on="0"/>
        <pt x="366" y="1236" on="0"/>
        <pt x="518" y="1325" on="0"/>
        <pt x="693" y="1374" on="0"/>
        <pt x="788" y="1374" on="1"/>
        <pt x="883" y="1374" on="0"/>
        <pt x="1059" y="1325" on="0"/>
        <pt x="1213" y="1236" on="0"/>
        <pt x="1338" y="1110" on="0"/>
        <pt x="1428" y="957" on="0"/>
        <pt x="1477" y="781" on="0"/>
      </contour>
      <contour>
        <pt x="1085" y="346" on="1"/>
        <pt x="1013" y="308" on="0"/>
        <pt x="873" y="268" on="0"/>
        <pt x="788" y="268" on="1"/>
        <pt x="704" y="268" on="0"/>
        <pt x="557" y="325" on="0"/>
        <pt x="449" y="432" on="0"/>
        <pt x="387" y="586" on="0"/>
        <pt x="387" y="684" on="1"/>
        <pt x="387" y="782" on="0"/>
        <pt x="449" y="937" on="0"/>
        <pt x="557" y="1045" on="0"/>
        <pt x="704" y="1102" on="0"/>
        <pt x="788" y="1102" on="1"/>
        <pt x="830" y="1102" on="0"/>
        <pt x="905" y="1093" on="0"/>
        <pt x="977" y="1074" on="0"/>
        <pt x="1048" y="1045" on="0"/>
        <pt x="1085" y="1026" on="1"/>
        <pt x="1085" y="844" on="1"/>
        <pt x="1044" y="875" on="0"/>
        <pt x="974" y="915" on="0"/>
        <pt x="910" y="939" on="0"/>
        <pt x="846" y="948" on="0"/>
        <pt x="811" y="948" on="1"/>
        <pt x="753" y="948" on="0"/>
        <pt x="661" y="910" on="0"/>
        <pt x="596" y="841" on="0"/>
        <pt x="561" y="743" on="0"/>
        <pt x="561" y="684" on="1"/>
        <pt x="561" y="625" on="0"/>
        <pt x="596" y="529" on="0"/>
        <pt x="661" y="460" on="0"/>
        <pt x="753" y="422" on="0"/>
        <pt x="811" y="422" on="1"/>
        <pt x="846" y="422" on="0"/>
        <pt x="910" y="431" on="0"/>
        <pt x="974" y="455" on="0"/>
        <pt x="1044" y="494" on="0"/>
        <pt x="1085" y="524" on="1"/>
      </contour>
      <contour>
        <pt x="266" y="686" on="1"/>
        <pt x="266" y="578" on="0"/>
        <pt x="348" y="387" on="0"/>
        <pt x="490" y="246" on="0"/>
        <pt x="680" y="164" on="0"/>
        <pt x="788" y="164" on="1"/>
        <pt x="897" y="164" on="0"/>
        <pt x="1088" y="246" on="0"/>
        <pt x="1231" y="387" on="0"/>
        <pt x="1313" y="578" on="0"/>
        <pt x="1313" y="686" on="1"/>
        <pt x="1313" y="795" on="0"/>
        <pt x="1231" y="986" on="0"/>
        <pt x="1088" y="1128" on="0"/>
        <pt x="897" y="1210" on="0"/>
        <pt x="788" y="1210" on="1"/>
        <pt x="680" y="1210" on="0"/>
        <pt x="490" y="1128" on="0"/>
        <pt x="348" y="986" on="0"/>
        <pt x="266" y="795" on="0"/>
      </contour>
    </TTGlyph>
    <TTGlyph name="currency" xMin="119" yMin="186" xMax="1108" yMax="1178">
      <contour>
        <pt x="961" y="864" on="1"/>
        <pt x="987" y="819" on="0"/>
        <pt x="1006" y="732" on="0"/>
        <pt x="1006" y="682" on="1"/>
        <pt x="1006" y="634" on="0"/>
        <pt x="987" y="542" on="0"/>
        <pt x="963" y="500" on="1"/>
        <pt x="1108" y="354" on="1"/>
        <pt x="942" y="186" on="1"/>
        <pt x="795" y="336" on="1"/>
        <pt x="750" y="310" on="0"/>
        <pt x="661" y="289" on="0"/>
        <pt x="614" y="289" on="1"/>
        <pt x="563" y="289" on="0"/>
        <pt x="475" y="306" on="0"/>
        <pt x="432" y="334" on="1"/>
        <pt x="285" y="186" on="1"/>
        <pt x="119" y="354" on="1"/>
        <pt x="266" y="500" on="1"/>
        <pt x="245" y="542" on="0"/>
        <pt x="221" y="636" on="0"/>
        <pt x="221" y="682" on="1"/>
        <pt x="221" y="730" on="0"/>
        <pt x="243" y="822" on="0"/>
        <pt x="266" y="864" on="1"/>
        <pt x="119" y="1012" on="1"/>
        <pt x="285" y="1178" on="1"/>
        <pt x="432" y="1030" on="1"/>
        <pt x="474" y="1053" on="0"/>
        <pt x="569" y="1073" on="0"/>
        <pt x="618" y="1073" on="1"/>
        <pt x="663" y="1073" on="0"/>
        <pt x="753" y="1053" on="0"/>
        <pt x="795" y="1030" on="1"/>
        <pt x="942" y="1178" on="1"/>
        <pt x="1108" y="1012" on="1"/>
      </contour>
      <contour>
        <pt x="453" y="682" on="1"/>
        <pt x="453" y="649" on="0"/>
        <pt x="477" y="592" on="0"/>
        <pt x="521" y="550" on="0"/>
        <pt x="579" y="524" on="0"/>
        <pt x="614" y="522" on="1"/>
        <pt x="644" y="522" on="0"/>
        <pt x="702" y="543" on="0"/>
        <pt x="748" y="584" on="0"/>
        <pt x="776" y="644" on="0"/>
        <pt x="776" y="682" on="1"/>
        <pt x="776" y="714" on="0"/>
        <pt x="750" y="773" on="0"/>
        <pt x="705" y="818" on="0"/>
        <pt x="646" y="844" on="0"/>
        <pt x="614" y="844" on="1"/>
        <pt x="579" y="844" on="0"/>
        <pt x="521" y="816" on="0"/>
        <pt x="477" y="771" on="0"/>
        <pt x="453" y="713" on="0"/>
      </contour>
    </TTGlyph>
    <TTGlyph name="d" xMin="215" yMin="0" xMax="1898" yMax="1374">
      <contour>
        <pt x="1898" y="688" on="1"/>
        <pt x="1898" y="556" on="0"/>
        <pt x="1840" y="351" on="0"/>
        <pt x="1735" y="199" on="0"/>
        <pt x="1588" y="93" on="0"/>
        <pt x="1408" y="29" on="0"/>
        <pt x="1200" y="0" on="0"/>
        <pt x="1087" y="0" on="1"/>
        <pt x="215" y="0" on="1"/>
        <pt x="215" y="1374" on="1"/>
        <pt x="1085" y="1374" on="1"/>
        <pt x="1198" y="1374" on="0"/>
        <pt x="1406" y="1345" on="0"/>
        <pt x="1587" y="1281" on="0"/>
        <pt x="1735" y="1176" on="0"/>
        <pt x="1840" y="1023" on="0"/>
        <pt x="1898" y="819" on="0"/>
      </contour>
      <contour>
        <pt x="1524" y="688" on="1"/>
        <pt x="1524" y="787" on="0"/>
        <pt x="1473" y="933" on="0"/>
        <pt x="1360" y="1028" on="0"/>
        <pt x="1178" y="1075" on="0"/>
        <pt x="1047" y="1075" on="1"/>
        <pt x="586" y="1075" on="1"/>
        <pt x="586" y="299" on="1"/>
        <pt x="1047" y="299" on="1"/>
        <pt x="1178" y="299" on="0"/>
        <pt x="1360" y="346" on="0"/>
        <pt x="1473" y="443" on="0"/>
        <pt x="1524" y="589" on="0"/>
      </contour>
    </TTGlyph>
    <TTGlyph name="dagger" xMin="164" yMin="-23" xMax="983" yMax="1374">
      <contour>
        <pt x="164" y="1067" on="1"/>
        <pt x="430" y="1067" on="1"/>
        <pt x="430" y="1374" on="1"/>
        <pt x="717" y="1374" on="1"/>
        <pt x="717" y="1067" on="1"/>
        <pt x="983" y="1067" on="1"/>
        <pt x="983" y="809" on="1"/>
        <pt x="717" y="809" on="1"/>
        <pt x="717" y="-23" on="1"/>
        <pt x="430" y="-23" on="1"/>
        <pt x="430" y="809" on="1"/>
        <pt x="164" y="809" on="1"/>
      </contour>
    </TTGlyph>
    <TTGlyph name="daggerdbl" xMin="164" yMin="-23" xMax="983" yMax="1374">
      <contour>
        <pt x="164" y="1087" on="1"/>
        <pt x="430" y="1087" on="1"/>
        <pt x="430" y="1374" on="1"/>
        <pt x="717" y="1374" on="1"/>
        <pt x="717" y="1087" on="1"/>
        <pt x="983" y="1087" on="1"/>
        <pt x="983" y="829" on="1"/>
        <pt x="717" y="829" on="1"/>
        <pt x="717" y="575" on="1"/>
        <pt x="983" y="575" on="1"/>
        <pt x="983" y="317" on="1"/>
        <pt x="717" y="317" on="1"/>
        <pt x="717" y="-23" on="1"/>
        <pt x="430" y="-23" on="1"/>
        <pt x="430" y="317" on="1"/>
        <pt x="164" y="317" on="1"/>
        <pt x="164" y="575" on="1"/>
        <pt x="430" y="575" on="1"/>
        <pt x="430" y="829" on="1"/>
        <pt x="164" y="829" on="1"/>
      </contour>
    </TTGlyph>
    <TTGlyph name="dcaron" xMin="215" yMin="0" xMax="1898" yMax="1955">
      <component glyphName="d" x="0" y="0" flags="0x204"/>
      <component glyphName="caron" x="412" y="362" flags="0x4"/>
    </TTGlyph>
    <TTGlyph name="dcroat" xMin="10" yMin="0" xMax="1898" yMax="1374">
      <component glyphName="Eth" x="0" y="0" flags="0x204"/>
    </TTGlyph>
    <TTGlyph name="degree" xMin="92" yMin="795" xMax="672" yMax="1374">
      <contour>
        <pt x="92" y="1083" on="1"/>
        <pt x="92" y="1143" on="0"/>
        <pt x="137" y="1249" on="0"/>
        <pt x="216" y="1328" on="0"/>
        <pt x="321" y="1374" on="0"/>
        <pt x="381" y="1374" on="1"/>
        <pt x="441" y="1374" on="0"/>
        <pt x="547" y="1328" on="0"/>
        <pt x="626" y="1249" on="0"/>
        <pt x="672" y="1143" on="0"/>
        <pt x="672" y="1083" on="1"/>
        <pt x="672" y="1023" on="0"/>
        <pt x="626" y="918" on="0"/>
        <pt x="547" y="840" on="0"/>
        <pt x="441" y="795" on="0"/>
        <pt x="381" y="795" on="1"/>
        <pt x="321" y="795" on="0"/>
        <pt x="216" y="840" on="0"/>
        <pt x="137" y="918" on="0"/>
        <pt x="92" y="1023" on="0"/>
      </contour>
      <contour>
        <pt x="272" y="1083" on="1"/>
        <pt x="272" y="1037" on="0"/>
        <pt x="334" y="975" on="0"/>
        <pt x="381" y="975" on="1"/>
        <pt x="404" y="975" on="0"/>
        <pt x="444" y="992" on="0"/>
        <pt x="474" y="1021" on="0"/>
        <pt x="492" y="1060" on="0"/>
        <pt x="492" y="1083" on="1"/>
        <pt x="492" y="1106" on="0"/>
        <pt x="474" y="1147" on="0"/>
        <pt x="444" y="1177" on="0"/>
        <pt x="404" y="1194" on="0"/>
        <pt x="381" y="1194" on="1"/>
        <pt x="334" y="1194" on="0"/>
        <pt x="272" y="1130" on="0"/>
      </contour>
    </TTGlyph>
    <TTGlyph name="dieresis" xMin="154" yMin="1159" xMax="928" yMax="1470">
      <contour>
        <pt x="154" y="1159" on="1"/>
        <pt x="154" y="1470" on="1"/>
        <pt x="465" y="1470" on="1"/>
        <pt x="465" y="1159" on="1"/>
      </contour>
      <contour>
        <pt x="616" y="1159" on="1"/>
        <pt x="616" y="1470" on="1"/>
        <pt x="928" y="1470" on="1"/>
        <pt x="928" y="1159" on="1"/>
      </contour>
    </TTGlyph>
    <TTGlyph name="divide" xMin="152" yMin="125" xMax="1231" yMax="1245">
      <contour>
        <pt x="152" y="539" on="1"/>
        <pt x="152" y="831" on="1"/>
        <pt x="1231" y="831" on="1"/>
        <pt x="1231" y="539" on="1"/>
      </contour>
      <contour>
        <pt x="545" y="981" on="1"/>
        <pt x="545" y="1245" on="1"/>
        <pt x="838" y="1245" on="1"/>
        <pt x="838" y="981" on="1"/>
      </contour>
      <contour>
        <pt x="545" y="125" on="1"/>
        <pt x="545" y="389" on="1"/>
        <pt x="838" y="389" on="1"/>
        <pt x="838" y="125" on="1"/>
      </contour>
    </TTGlyph>
    <TTGlyph name="dollar" xMin="143" yMin="-129" xMax="1554" yMax="1503">
      <contour>
        <pt x="707" y="2" on="1"/>
        <pt x="542" y="10" on="0"/>
        <pt x="261" y="63" on="0"/>
        <pt x="152" y="100" on="1"/>
        <pt x="152" y="401" on="1"/>
        <pt x="264" y="339" on="0"/>
        <pt x="546" y="263" on="0"/>
        <pt x="707" y="252" on="1"/>
        <pt x="707" y="582" on="1"/>
        <pt x="638" y="596" on="0"/>
        <pt x="500" y="630" on="0"/>
        <pt x="375" y="676" on="0"/>
        <pt x="267" y="737" on="0"/>
        <pt x="188" y="817" on="0"/>
        <pt x="143" y="918" on="0"/>
        <pt x="143" y="983" on="1"/>
        <pt x="143" y="1057" on="0"/>
        <pt x="190" y="1169" on="0"/>
        <pt x="271" y="1253" on="0"/>
        <pt x="380" y="1310" on="0"/>
        <pt x="506" y="1347" on="0"/>
        <pt x="641" y="1366" on="0"/>
        <pt x="707" y="1370" on="1"/>
        <pt x="707" y="1503" on="1"/>
        <pt x="971" y="1503" on="1"/>
        <pt x="971" y="1368" on="1"/>
        <pt x="1098" y="1359" on="0"/>
        <pt x="1345" y="1313" on="0"/>
        <pt x="1444" y="1284" on="1"/>
        <pt x="1444" y="995" on="1"/>
        <pt x="1412" y="1010" on="0"/>
        <pt x="1314" y="1047" on="0"/>
        <pt x="1192" y="1083" on="0"/>
        <pt x="1049" y="1112" on="0"/>
        <pt x="971" y="1120" on="1"/>
        <pt x="971" y="831" on="1"/>
        <pt x="1041" y="816" on="0"/>
        <pt x="1183" y="780" on="0"/>
        <pt x="1312" y="732" on="0"/>
        <pt x="1424" y="669" on="0"/>
        <pt x="1507" y="587" on="0"/>
        <pt x="1554" y="483" on="0"/>
        <pt x="1554" y="418" on="1"/>
        <pt x="1554" y="339" on="0"/>
        <pt x="1506" y="219" on="0"/>
        <pt x="1422" y="130" on="0"/>
        <pt x="1310" y="69" on="0"/>
        <pt x="1180" y="30" on="0"/>
        <pt x="1040" y="9" on="0"/>
        <pt x="971" y="4" on="1"/>
        <pt x="971" y="-129" on="1"/>
        <pt x="707" y="-129" on="1"/>
      </contour>
      <contour>
        <pt x="1208" y="393" on="1"/>
        <pt x="1208" y="419" on="0"/>
        <pt x="1172" y="460" on="0"/>
        <pt x="1109" y="491" on="0"/>
        <pt x="1022" y="517" on="0"/>
        <pt x="971" y="528" on="1"/>
        <pt x="971" y="254" on="1"/>
        <pt x="1039" y="261" on="0"/>
        <pt x="1130" y="290" on="0"/>
        <pt x="1185" y="328" on="0"/>
        <pt x="1208" y="371" on="0"/>
      </contour>
      <contour>
        <pt x="487" y="1012" on="1"/>
        <pt x="487" y="988" on="0"/>
        <pt x="519" y="951" on="0"/>
        <pt x="578" y="921" on="0"/>
        <pt x="659" y="896" on="0"/>
        <pt x="707" y="885" on="1"/>
        <pt x="707" y="1120" on="1"/>
        <pt x="636" y="1115" on="0"/>
        <pt x="550" y="1092" on="0"/>
        <pt x="503" y="1063" on="0"/>
        <pt x="487" y="1029" on="0"/>
      </contour>
    </TTGlyph>
    <TTGlyph name="dotaccent" xMin="381" yMin="1159" xMax="700" yMax="1477">
      <contour>
        <pt x="381" y="1159" on="1"/>
        <pt x="381" y="1477" on="1"/>
        <pt x="700" y="1477" on="1"/>
        <pt x="700" y="1159" on="1"/>
      </contour>
    </TTGlyph>
    <TTGlyph name="dotlessi" xMin="215" yMin="0" xMax="586" yMax="1374">
      <contour>
        <pt x="215" y="0" on="1"/>
        <pt x="215" y="1374" on="1"/>
        <pt x="586" y="1374" on="1"/>
        <pt x="586" y="0" on="1"/>
      </contour>
    </TTGlyph>
    <TTGlyph name="dotlessj" xMin="0" yMin="-16" xMax="1210" yMax="1374">
      <contour>
        <pt x="1210" y="508" on="1"/>
        <pt x="1210" y="371" on="0"/>
        <pt x="1121" y="173" on="0"/>
        <pt x="950" y="45" on="0"/>
        <pt x="702" y="-16" on="0"/>
        <pt x="543" y="-16" on="1"/>
        <pt x="468" y="-16" on="0"/>
        <pt x="310" y="-1" on="0"/>
        <pt x="164" y="21" on="0"/>
        <pt x="41" y="46" on="0"/>
        <pt x="0" y="57" on="1"/>
        <pt x="0" y="379" on="1"/>
        <pt x="42" y="362" on="0"/>
        <pt x="142" y="327" on="0"/>
        <pt x="265" y="299" on="0"/>
        <pt x="414" y="281" on="0"/>
        <pt x="504" y="281" on="1"/>
        <pt x="601" y="281" on="0"/>
        <pt x="730" y="324" on="0"/>
        <pt x="808" y="401" on="0"/>
        <pt x="840" y="505" on="0"/>
        <pt x="840" y="567" on="1"/>
        <pt x="840" y="1374" on="1"/>
        <pt x="1210" y="1374" on="1"/>
      </contour>
    </TTGlyph>
    <TTGlyph name="e" xMin="123" yMin="-37" xMax="1860" yMax="1409">
      <contour>
        <pt x="1747" y="68" on="1"/>
        <pt x="1578" y="12" on="0"/>
        <pt x="1241" y="-37" on="0"/>
        <pt x="1065" y="-37" on="1"/>
        <pt x="840" y="-37" on="0"/>
        <pt x="489" y="60" on="0"/>
        <pt x="249" y="244" on="0"/>
        <pt x="123" y="510" on="0"/>
        <pt x="123" y="678" on="1"/>
        <pt x="123" y="834" on="0"/>
        <pt x="250" y="1101" on="0"/>
        <pt x="483" y="1298" on="0"/>
        <pt x="813" y="1409" on="0"/>
        <pt x="1016" y="1409" on="1"/>
        <pt x="1203" y="1409" on="0"/>
        <pt x="1514" y="1308" on="0"/>
        <pt x="1737" y="1110" on="0"/>
        <pt x="1860" y="820" on="0"/>
        <pt x="1860" y="631" on="1"/>
        <pt x="1860" y="539" on="1"/>
        <pt x="506" y="539" on="1"/>
        <pt x="524" y="474" on="0"/>
        <pt x="607" y="366" on="0"/>
        <pt x="749" y="290" on="0"/>
        <pt x="956" y="248" on="0"/>
        <pt x="1100" y="248" on="1"/>
        <pt x="1202" y="248" on="0"/>
        <pt x="1398" y="273" on="0"/>
        <pt x="1568" y="314" on="0"/>
        <pt x="1705" y="364" on="0"/>
        <pt x="1747" y="389" on="1"/>
      </contour>
      <contour>
        <pt x="1491" y="811" on="1"/>
        <pt x="1486" y="862" on="0"/>
        <pt x="1435" y="971" on="0"/>
        <pt x="1325" y="1059" on="0"/>
        <pt x="1147" y="1116" on="0"/>
        <pt x="1014" y="1116" on="1"/>
        <pt x="889" y="1116" on="0"/>
        <pt x="707" y="1054" on="0"/>
        <pt x="584" y="962" on="0"/>
        <pt x="516" y="856" on="0"/>
        <pt x="506" y="811" on="1"/>
      </contour>
    </TTGlyph>
    <TTGlyph name="eacute" xMin="123" yMin="-37" xMax="1860" yMax="1951">
      <component glyphName="e" x="0" y="0" flags="0x204"/>
      <component glyphName="acute" x="471" y="362" flags="0x4"/>
    </TTGlyph>
    <TTGlyph name="ebreve" xMin="123" yMin="-37" xMax="1860" yMax="1914">
      <component glyphName="e" x="0" y="0" flags="0x204"/>
      <component glyphName="breve" x="465" y="362" flags="0x4"/>
    </TTGlyph>
    <TTGlyph name="ecaron" xMin="123" yMin="-37" xMax="1860" yMax="1955">
      <component glyphName="e" x="0" y="0" flags="0x204"/>
      <component glyphName="caron" x="465" y="362" flags="0x4"/>
    </TTGlyph>
    <TTGlyph name="ecircumflex" xMin="123" yMin="-37" xMax="1860" yMax="1955">
      <component glyphName="e" x="0" y="0" flags="0x204"/>
      <component glyphName="circumflex" x="465" y="362" flags="0x4"/>
    </TTGlyph>
    <TTGlyph name="edieresis" xMin="123" yMin="-37" xMax="1860" yMax="1832">
      <component glyphName="e" x="0" y="0" flags="0x204"/>
      <component glyphName="dieresis" x="465" y="362" flags="0x4"/>
    </TTGlyph>
    <TTGlyph name="edotaccent" xMin="123" yMin="-37" xMax="1860" yMax="1839">
      <component glyphName="e" x="0" y="0" flags="0x204"/>
      <component glyphName="dotaccent" x="465" y="362" flags="0x4"/>
    </TTGlyph>
    <TTGlyph name="egrave" xMin="123" yMin="-37" xMax="1860" yMax="1951">
      <component glyphName="e" x="0" y="0" flags="0x204"/>
      <component glyphName="grave" x="465" y="362" flags="0x4"/>
    </TTGlyph>
    <TTGlyph name="eight" xMin="90" yMin="-37" xMax="1659" yMax="1409">
      <contour>
        <pt x="1272" y="752" on="1"/>
        <pt x="1375" y="720" on="0"/>
        <pt x="1521" y="646" on="0"/>
        <pt x="1615" y="556" on="0"/>
        <pt x="1659" y="446" on="0"/>
        <pt x="1659" y="379" on="1"/>
        <pt x="1659" y="280" on="0"/>
        <pt x="1553" y="125" on="0"/>
        <pt x="1351" y="19" on="0"/>
        <pt x="1059" y="-37" on="0"/>
        <pt x="874" y="-37" on="1"/>
        <pt x="689" y="-37" on="0"/>
        <pt x="398" y="19" on="0"/>
        <pt x="196" y="125" on="0"/>
        <pt x="90" y="280" on="0"/>
        <pt x="90" y="379" on="1"/>
        <pt x="90" y="446" on="0"/>
        <pt x="134" y="556" on="0"/>
        <pt x="228" y="646" on="0"/>
        <pt x="374" y="720" on="0"/>
        <pt x="477" y="752" on="1"/>
        <pt x="396" y="784" on="0"/>
        <pt x="288" y="848" on="0"/>
        <pt x="223" y="919" on="0"/>
        <pt x="197" y="1001" on="0"/>
        <pt x="197" y="1051" on="1"/>
        <pt x="197" y="1128" on="0"/>
        <pt x="285" y="1259" on="0"/>
        <pt x="456" y="1355" on="0"/>
        <pt x="709" y="1409" on="0"/>
        <pt x="874" y="1409" on="1"/>
        <pt x="1052" y="1409" on="0"/>
        <pt x="1310" y="1352" on="0"/>
        <pt x="1475" y="1254" on="0"/>
        <pt x="1554" y="1124" on="0"/>
        <pt x="1554" y="1051" on="1"/>
        <pt x="1554" y="1001" on="0"/>
        <pt x="1527" y="919" on="0"/>
        <pt x="1462" y="848" on="0"/>
        <pt x="1353" y="784" on="0"/>
      </contour>
      <contour>
        <pt x="1186" y="1016" on="1"/>
        <pt x="1186" y="1053" on="0"/>
        <pt x="1139" y="1103" on="0"/>
        <pt x="1055" y="1134" on="0"/>
        <pt x="941" y="1147" on="0"/>
        <pt x="874" y="1147" on="1"/>
        <pt x="807" y="1147" on="0"/>
        <pt x="694" y="1134" on="0"/>
        <pt x="611" y="1103" on="0"/>
        <pt x="565" y="1053" on="0"/>
        <pt x="565" y="1016" on="1"/>
        <pt x="565" y="979" on="0"/>
        <pt x="617" y="925" on="0"/>
        <pt x="703" y="886" on="0"/>
        <pt x="814" y="861" on="0"/>
        <pt x="874" y="854" on="1"/>
        <pt x="924" y="861" on="0"/>
        <pt x="1034" y="886" on="0"/>
        <pt x="1126" y="925" on="0"/>
        <pt x="1186" y="979" on="0"/>
      </contour>
      <contour>
        <pt x="874" y="608" on="1"/>
        <pt x="749" y="587" on="0"/>
        <pt x="589" y="545" on="0"/>
        <pt x="498" y="498" on="0"/>
        <pt x="463" y="445" on="0"/>
        <pt x="463" y="414" on="1"/>
        <pt x="463" y="402" on="0"/>
        <pt x="472" y="367" on="0"/>
        <pt x="501" y="328" on="0"/>
        <pt x="556" y="289" on="0"/>
        <pt x="647" y="258" on="0"/>
        <pt x="780" y="238" on="0"/>
        <pt x="874" y="238" on="1"/>
        <pt x="968" y="238" on="0"/>
        <pt x="1102" y="257" on="0"/>
        <pt x="1193" y="288" on="0"/>
        <pt x="1248" y="327" on="0"/>
        <pt x="1277" y="366" on="0"/>
        <pt x="1286" y="402" on="0"/>
        <pt x="1286" y="414" on="1"/>
        <pt x="1286" y="445" on="0"/>
        <pt x="1251" y="498" on="0"/>
        <pt x="1159" y="545" on="0"/>
        <pt x="999" y="587" on="0"/>
      </contour>
    </TTGlyph>
    <TTGlyph name="ellipsis" xMin="102" yMin="0" xMax="1649" yMax="360">
      <contour>
        <pt x="102" y="0" on="1"/>
        <pt x="102" y="360" on="1"/>
        <pt x="481" y="360" on="1"/>
        <pt x="481" y="0" on="1"/>
      </contour>
      <contour>
        <pt x="686" y="0" on="1"/>
        <pt x="686" y="360" on="1"/>
        <pt x="1065" y="360" on="1"/>
        <pt x="1065" y="0" on="1"/>
      </contour>
      <contour>
        <pt x="1270" y="0" on="1"/>
        <pt x="1270" y="360" on="1"/>
        <pt x="1649" y="360" on="1"/>
        <pt x="1649" y="0" on="1"/>
      </contour>
    </TTGlyph>
    <TTGlyph name="emacron" xMin="123" yMin="-37" xMax="1860" yMax="1798">
      <component glyphName="e" x="0" y="0" flags="0x204"/>
      <component glyphName="macron" x="465" y="362" flags="0x4"/>
    </TTGlyph>
    <TTGlyph name="emdash" xMin="0" yMin="549" xMax="2048" yMax="823">
      <contour>
        <pt x="0" y="549" on="1"/>
        <pt x="0" y="823" on="1"/>
        <pt x="2048" y="823" on="1"/>
        <pt x="2048" y="549" on="1"/>
      </contour>
    </TTGlyph>
    <TTGlyph name="endash" xMin="102" yMin="549" xMax="922" yMax="823">
      <contour>
        <pt x="102" y="549" on="1"/>
        <pt x="102" y="823" on="1"/>
        <pt x="922" y="823" on="1"/>
        <pt x="922" y="549" on="1"/>
      </contour>
    </TTGlyph>
    <TTGlyph name="eng" xMin="215" yMin="-12" xMax="1894" yMax="1409">
      <contour>
        <pt x="1524" y="770" on="1"/>
        <pt x="1524" y="847" on="0"/>
        <pt x="1498" y="972" on="0"/>
        <pt x="1427" y="1061" on="0"/>
        <pt x="1300" y="1110" on="0"/>
        <pt x="1200" y="1110" on="1"/>
        <pt x="1124" y="1110" on="0"/>
        <pt x="957" y="1069" on="0"/>
        <pt x="793" y="1001" on="0"/>
        <pt x="644" y="911" on="0"/>
        <pt x="586" y="862" on="1"/>
        <pt x="586" y="0" on="1"/>
        <pt x="215" y="0" on="1"/>
        <pt x="215" y="1374" on="1"/>
        <pt x="586" y="1374" on="1"/>
        <pt x="586" y="1186" on="1"/>
        <pt x="656" y="1226" on="0"/>
        <pt x="814" y="1305" on="0"/>
        <pt x="992" y="1369" on="0"/>
        <pt x="1192" y="1409" on="0"/>
        <pt x="1303" y="1409" on="1"/>
        <pt x="1442" y="1409" on="0"/>
        <pt x="1661" y="1342" on="0"/>
        <pt x="1813" y="1219" on="0"/>
        <pt x="1894" y="1044" on="0"/>
        <pt x="1894" y="936" on="1"/>
        <pt x="1894" y="485" on="1"/>
        <pt x="1894" y="371" on="0"/>
        <pt x="1819" y="187" on="0"/>
        <pt x="1669" y="58" on="0"/>
        <pt x="1441" y="-12" on="0"/>
        <pt x="1288" y="-12" on="1"/>
        <pt x="1223" y="-12" on="0"/>
        <pt x="1093" y="2" on="0"/>
        <pt x="973" y="22" on="0"/>
        <pt x="868" y="46" on="0"/>
        <pt x="827" y="57" on="1"/>
        <pt x="827" y="375" on="1"/>
        <pt x="869" y="359" on="0"/>
        <pt x="963" y="327" on="0"/>
        <pt x="1072" y="301" on="0"/>
        <pt x="1199" y="285" on="0"/>
        <pt x="1274" y="285" on="1"/>
        <pt x="1351" y="285" on="0"/>
        <pt x="1448" y="330" on="0"/>
        <pt x="1504" y="406" on="0"/>
        <pt x="1524" y="506" on="0"/>
        <pt x="1524" y="561" on="1"/>
      </contour>
    </TTGlyph>
    <TTGlyph name="eogonek" xMin="123" yMin="-483" xMax="1860" yMax="1409">
      <contour>
        <pt x="1747" y="68" on="1"/>
        <pt x="1672" y="51" on="0"/>
        <pt x="1539" y="-1" on="0"/>
        <pt x="1439" y="-70" on="0"/>
        <pt x="1380" y="-156" on="0"/>
        <pt x="1380" y="-207" on="1"/>
        <pt x="1380" y="-249" on="0"/>
        <pt x="1438" y="-283" on="0"/>
        <pt x="1501" y="-283" on="1"/>
        <pt x="1529" y="-283" on="0"/>
        <pt x="1597" y="-271" on="0"/>
        <pt x="1664" y="-254" on="0"/>
        <pt x="1724" y="-234" on="0"/>
        <pt x="1745" y="-225" on="1"/>
        <pt x="1745" y="-432" on="1"/>
        <pt x="1724" y="-438" on="0"/>
        <pt x="1659" y="-456" on="0"/>
        <pt x="1572" y="-472" on="0"/>
        <pt x="1466" y="-483" on="0"/>
        <pt x="1405" y="-483" on="1"/>
        <pt x="1345" y="-483" on="0"/>
        <pt x="1235" y="-461" on="0"/>
        <pt x="1152" y="-411" on="0"/>
        <pt x="1102" y="-331" on="0"/>
        <pt x="1102" y="-272" on="1"/>
        <pt x="1102" y="-247" on="0"/>
        <pt x="1122" y="-183" on="0"/>
        <pt x="1166" y="-116" on="0"/>
        <pt x="1233" y="-51" on="0"/>
        <pt x="1280" y="-25" on="1"/>
        <pt x="1258" y="-27" on="0"/>
        <pt x="1202" y="-32" on="0"/>
        <pt x="1143" y="-35" on="0"/>
        <pt x="1087" y="-37" on="0"/>
        <pt x="1065" y="-37" on="1"/>
        <pt x="840" y="-37" on="0"/>
        <pt x="489" y="60" on="0"/>
        <pt x="249" y="244" on="0"/>
        <pt x="123" y="510" on="0"/>
        <pt x="123" y="678" on="1"/>
        <pt x="123" y="834" on="0"/>
        <pt x="250" y="1101" on="0"/>
        <pt x="483" y="1298" on="0"/>
        <pt x="813" y="1409" on="0"/>
        <pt x="1016" y="1409" on="1"/>
        <pt x="1203" y="1409" on="0"/>
        <pt x="1514" y="1308" on="0"/>
        <pt x="1737" y="1110" on="0"/>
        <pt x="1860" y="820" on="0"/>
        <pt x="1860" y="631" on="1"/>
        <pt x="1860" y="539" on="1"/>
        <pt x="506" y="539" on="1"/>
        <pt x="524" y="474" on="0"/>
        <pt x="607" y="366" on="0"/>
        <pt x="749" y="290" on="0"/>
        <pt x="956" y="248" on="0"/>
        <pt x="1100" y="248" on="1"/>
        <pt x="1202" y="248" on="0"/>
        <pt x="1398" y="273" on="0"/>
        <pt x="1568" y="314" on="0"/>
        <pt x="1705" y="364" on="0"/>
        <pt x="1747" y="389" on="1"/>
      </contour>
      <contour>
        <pt x="1491" y="811" on="1"/>
        <pt x="1486" y="862" on="0"/>
        <pt x="1435" y="971" on="0"/>
        <pt x="1325" y="1059" on="0"/>
        <pt x="1147" y="1116" on="0"/>
        <pt x="1014" y="1116" on="1"/>
        <pt x="889" y="1116" on="0"/>
        <pt x="707" y="1054" on="0"/>
        <pt x="584" y="962" on="0"/>
        <pt x="516" y="856" on="0"/>
        <pt x="506" y="811" on="1"/>
      </contour>
    </TTGlyph>
    <TTGlyph name="equal" xMin="152" yMin="274" xMax="1231" yMax="1094">
      <contour>
        <pt x="152" y="801" on="1"/>
        <pt x="152" y="1094" on="1"/>
        <pt x="1231" y="1094" on="1"/>
        <pt x="1231" y="801" on="1"/>
      </contour>
      <contour>
        <pt x="152" y="274" on="1"/>
        <pt x="152" y="569" on="1"/>
        <pt x="1231" y="569" on="1"/>
        <pt x="1231" y="274" on="1"/>
      </contour>
    </TTGlyph>
    <TTGlyph name="eth" xMin="10" yMin="0" xMax="1898" yMax="1374">
      <component glyphName="Eth" x="0" y="0" flags="0x204"/>
    </TTGlyph>
    <TTGlyph name="exclam" xMin="184" yMin="0" xMax="584" yMax="1374">
      <contour>
        <pt x="508" y="471" on="1"/>
        <pt x="260" y="471" on="1"/>
        <pt x="184" y="1075" on="1"/>
        <pt x="184" y="1374" on="1"/>
        <pt x="584" y="1374" on="1"/>
        <pt x="584" y="1075" on="1"/>
      </contour>
      <contour>
        <pt x="205" y="0" on="1"/>
        <pt x="205" y="319" on="1"/>
        <pt x="563" y="319" on="1"/>
        <pt x="563" y="0" on="1"/>
      </contour>
    </TTGlyph>
    <TTGlyph name="exclamdown" xMin="184" yMin="-2" xMax="584" yMax="1372">
      <contour>
        <pt x="260" y="901" on="1"/>
        <pt x="508" y="901" on="1"/>
        <pt x="584" y="297" on="1"/>
        <pt x="584" y="-2" on="1"/>
        <pt x="184" y="-2" on="1"/>
        <pt x="184" y="297" on="1"/>
      </contour>
      <contour>
        <pt x="563" y="1372" on="1"/>
        <pt x="563" y="1053" on="1"/>
        <pt x="205" y="1053" on="1"/>
        <pt x="205" y="1372" on="1"/>
      </contour>
    </TTGlyph>
    <TTGlyph name="f" xMin="215" yMin="0" xMax="1671" yMax="1374">
      <contour>
        <pt x="864" y="1081" on="1"/>
        <pt x="799" y="1081" on="0"/>
        <pt x="696" y="1071" on="0"/>
        <pt x="624" y="1033" on="0"/>
        <pt x="586" y="958" on="0"/>
        <pt x="586" y="893" on="1"/>
        <pt x="586" y="842" on="1"/>
        <pt x="1622" y="842" on="1"/>
        <pt x="1622" y="549" on="1"/>
        <pt x="586" y="549" on="1"/>
        <pt x="586" y="0" on="1"/>
        <pt x="215" y="0" on="1"/>
        <pt x="215" y="924" on="1"/>
        <pt x="215" y="1030" on="0"/>
        <pt x="278" y="1198" on="0"/>
        <pt x="426" y="1313" on="0"/>
        <pt x="670" y="1374" on="0"/>
        <pt x="852" y="1374" on="1"/>
        <pt x="1671" y="1374" on="1"/>
        <pt x="1671" y="1081" on="1"/>
      </contour>
    </TTGlyph>
    <TTGlyph name="fi" xMin="215" yMin="0" xMax="2261" yMax="1374">
      <component glyphName="f" x="0" y="0" flags="0x4"/>
      <component glyphName="i" x="1675" y="0" flags="0x4"/>
    </TTGlyph>
    <TTGlyph name="five" xMin="119" yMin="-37" xMax="1550" yMax="1374">
      <contour>
        <pt x="1434" y="1083" on="1"/>
        <pt x="520" y="1083" on="1"/>
        <pt x="520" y="872" on="1"/>
        <pt x="552" y="878" on="0"/>
        <pt x="630" y="887" on="0"/>
        <pt x="714" y="893" on="0"/>
        <pt x="800" y="897" on="0"/>
        <pt x="842" y="897" on="1"/>
        <pt x="1009" y="897" on="0"/>
        <pt x="1272" y="837" on="0"/>
        <pt x="1454" y="721" on="0"/>
        <pt x="1550" y="551" on="0"/>
        <pt x="1550" y="440" on="1"/>
        <pt x="1550" y="337" on="0"/>
        <pt x="1461" y="162" on="0"/>
        <pt x="1268" y="35" on="0"/>
        <pt x="960" y="-37" on="0"/>
        <pt x="741" y="-37" on="1"/>
        <pt x="640" y="-37" on="0"/>
        <pt x="457" y="-22" on="0"/>
        <pt x="298" y="4" on="0"/>
        <pt x="167" y="36" on="0"/>
        <pt x="119" y="53" on="1"/>
        <pt x="119" y="377" on="1"/>
        <pt x="162" y="357" on="0"/>
        <pt x="279" y="314" on="0"/>
        <pt x="434" y="279" on="0"/>
        <pt x="629" y="256" on="0"/>
        <pt x="750" y="256" on="1"/>
        <pt x="974" y="256" on="0"/>
        <pt x="1180" y="351" on="0"/>
        <pt x="1180" y="434" on="1"/>
        <pt x="1180" y="532" on="0"/>
        <pt x="955" y="625" on="0"/>
        <pt x="743" y="625" on="1"/>
        <pt x="672" y="625" on="0"/>
        <pt x="535" y="615" on="0"/>
        <pt x="412" y="598" on="0"/>
        <pt x="306" y="575" on="0"/>
        <pt x="264" y="563" on="1"/>
        <pt x="174" y="563" on="1"/>
        <pt x="174" y="1374" on="1"/>
        <pt x="1434" y="1374" on="1"/>
      </contour>
    </TTGlyph>
    <TTGlyph name="fl" xMin="215" yMin="0" xMax="3162" yMax="1374">
      <component glyphName="f" x="0" y="0" flags="0x4"/>
      <component glyphName="l" x="1569" y="0" flags="0x4"/>
    </TTGlyph>
    <TTGlyph name="florin" xMin="51" yMin="-70" xMax="1755" yMax="1409">
      <contour>
        <pt x="803" y="893" on="1"/>
        <pt x="840" y="1028" on="1"/>
        <pt x="862" y="1103" on="0"/>
        <pt x="951" y="1240" on="0"/>
        <pt x="1095" y="1346" on="0"/>
        <pt x="1300" y="1409" on="0"/>
        <pt x="1438" y="1409" on="1"/>
        <pt x="1474" y="1409" on="0"/>
        <pt x="1557" y="1403" on="0"/>
        <pt x="1642" y="1393" on="0"/>
        <pt x="1722" y="1377" on="0"/>
        <pt x="1755" y="1368" on="1"/>
        <pt x="1755" y="1057" on="1"/>
        <pt x="1733" y="1072" on="0"/>
        <pt x="1685" y="1100" on="0"/>
        <pt x="1624" y="1123" on="0"/>
        <pt x="1542" y="1137" on="0"/>
        <pt x="1485" y="1137" on="1"/>
        <pt x="1442" y="1137" on="0"/>
        <pt x="1355" y="1122" on="0"/>
        <pt x="1277" y="1081" on="0"/>
        <pt x="1214" y="1010" on="0"/>
        <pt x="1196" y="954" on="1"/>
        <pt x="1180" y="893" on="1"/>
        <pt x="1440" y="893" on="1"/>
        <pt x="1440" y="643" on="1"/>
        <pt x="1108" y="643" on="1"/>
        <pt x="1028" y="373" on="1"/>
        <pt x="999" y="277" on="0"/>
        <pt x="900" y="115" on="0"/>
        <pt x="741" y="-4" on="0"/>
        <pt x="515" y="-70" on="0"/>
        <pt x="360" y="-70" on="1"/>
        <pt x="328" y="-70" on="0"/>
        <pt x="250" y="-64" on="0"/>
        <pt x="168" y="-52" on="0"/>
        <pt x="86" y="-34" on="0"/>
        <pt x="51" y="-23" on="1"/>
        <pt x="51" y="287" on="1"/>
        <pt x="76" y="272" on="0"/>
        <pt x="137" y="242" on="0"/>
        <pt x="208" y="218" on="0"/>
        <pt x="292" y="203" on="0"/>
        <pt x="340" y="203" on="1"/>
        <pt x="407" y="203" on="0"/>
        <pt x="512" y="228" on="0"/>
        <pt x="594" y="288" on="0"/>
        <pt x="656" y="390" on="0"/>
        <pt x="680" y="467" on="1"/>
        <pt x="731" y="643" on="1"/>
        <pt x="506" y="643" on="1"/>
        <pt x="506" y="893" on="1"/>
      </contour>
    </TTGlyph>
    <TTGlyph name="four" xMin="51" yMin="0" xMax="1606" yMax="1374">
      <contour>
        <pt x="1294" y="270" on="1"/>
        <pt x="1294" y="0" on="1"/>
        <pt x="926" y="0" on="1"/>
        <pt x="926" y="270" on="1"/>
        <pt x="51" y="270" on="1"/>
        <pt x="51" y="563" on="1"/>
        <pt x="838" y="1374" on="1"/>
        <pt x="1294" y="1374" on="1"/>
        <pt x="1294" y="563" on="1"/>
        <pt x="1606" y="563" on="1"/>
        <pt x="1606" y="270" on="1"/>
      </contour>
      <contour>
        <pt x="926" y="1051" on="1"/>
        <pt x="453" y="563" on="1"/>
        <pt x="926" y="563" on="1"/>
      </contour>
    </TTGlyph>
    <TTGlyph name="fraction" xMin="-459" yMin="0" xMax="915" yMax="1374">
      <contour>
        <pt x="-180" y="0" on="1"/>
        <pt x="-459" y="0" on="1"/>
        <pt x="639" y="1374" on="1"/>
        <pt x="915" y="1374" on="1"/>
      </contour>
    </TTGlyph>
    <TTGlyph name="g" xMin="123" yMin="-37" xMax="1827" yMax="1409">
      <contour>
        <pt x="1100" y="1409" on="1"/>
        <pt x="1302" y="1409" on="0"/>
        <pt x="1649" y="1340" on="0"/>
        <pt x="1794" y="1286" on="1"/>
        <pt x="1794" y="950" on="1"/>
        <pt x="1737" y="982" on="0"/>
        <pt x="1594" y="1042" on="0"/>
        <pt x="1426" y="1088" on="0"/>
        <pt x="1234" y="1116" on="0"/>
        <pt x="1128" y="1116" on="1"/>
        <pt x="996" y="1116" on="0"/>
        <pt x="800" y="1078" on="0"/>
        <pt x="660" y="1014" on="0"/>
        <pt x="570" y="929" on="0"/>
        <pt x="518" y="833" on="0"/>
        <pt x="498" y="733" on="0"/>
        <pt x="498" y="686" on="1"/>
        <pt x="498" y="645" on="0"/>
        <pt x="515" y="549" on="0"/>
        <pt x="562" y="453" on="0"/>
        <pt x="646" y="365" on="0"/>
        <pt x="781" y="297" on="0"/>
        <pt x="971" y="256" on="0"/>
        <pt x="1102" y="256" on="1"/>
        <pt x="1168" y="256" on="0"/>
        <pt x="1266" y="264" on="0"/>
        <pt x="1347" y="278" on="0"/>
        <pt x="1418" y="298" on="0"/>
        <pt x="1456" y="309" on="1"/>
        <pt x="1456" y="475" on="1"/>
        <pt x="1040" y="475" on="1"/>
        <pt x="1040" y="776" on="1"/>
        <pt x="1827" y="776" on="1"/>
        <pt x="1827" y="74" on="1"/>
        <pt x="1753" y="49" on="0"/>
        <pt x="1570" y="8" on="0"/>
        <pt x="1375" y="-21" on="0"/>
        <pt x="1179" y="-37" on="0"/>
        <pt x="1092" y="-37" on="1"/>
        <pt x="957" y="-37" on="0"/>
        <pt x="709" y="-1" on="0"/>
        <pt x="494" y="74" on="0"/>
        <pt x="317" y="190" on="0"/>
        <pt x="192" y="350" on="0"/>
        <pt x="123" y="557" on="0"/>
        <pt x="123" y="686" on="1"/>
        <pt x="123" y="814" on="0"/>
        <pt x="195" y="1022" on="0"/>
        <pt x="324" y="1182" on="0"/>
        <pt x="505" y="1298" on="0"/>
        <pt x="722" y="1373" on="0"/>
        <pt x="969" y="1409" on="0"/>
      </contour>
    </TTGlyph>
    <TTGlyph name="gbreve" xMin="123" yMin="-37" xMax="1827" yMax="1914">
      <component glyphName="g" x="0" y="0" flags="0x204"/>
      <component glyphName="breve" x="543" y="362" flags="0x4"/>
    </TTGlyph>
    <TTGlyph name="gcircumflex" xMin="123" yMin="-37" xMax="1827" yMax="1955">
      <component glyphName="g" x="0" y="0" flags="0x204"/>
      <component glyphName="circumflex" x="543" y="362" flags="0x4"/>
    </TTGlyph>
    <TTGlyph name="gcommaaccent" xMin="123" yMin="-504" xMax="1827" yMax="1409">
      <component glyphName="G" x="0" y="0" flags="0x204"/>
      <component glyphName="commaaccent" x="502" y="0" flags="0x4"/>
    </TTGlyph>
    <TTGlyph name="gdotaccent" xMin="123" yMin="-37" xMax="1827" yMax="1839">
      <component glyphName="g" x="0" y="0" flags="0x204"/>
      <component glyphName="dotaccent" x="543" y="362" flags="0x4"/>
    </TTGlyph>
    <TTGlyph name="germandbls" xMin="215" yMin="-20" xMax="1917" yMax="1415">
      <contour>
        <pt x="782" y="333" on="0"/>
        <pt x="876" y="305" on="0"/>
        <pt x="993" y="281" on="0"/>
        <pt x="1130" y="266" on="0"/>
        <pt x="1208" y="266" on="1"/>
        <pt x="1303" y="266" on="0"/>
        <pt x="1431" y="296" on="0"/>
        <pt x="1508" y="344" on="0"/>
        <pt x="1540" y="405" on="0"/>
        <pt x="1540" y="436" on="1"/>
        <pt x="1540" y="477" on="0"/>
        <pt x="1501" y="535" on="0"/>
        <pt x="1409" y="573" on="0"/>
        <pt x="1258" y="590" on="0"/>
        <pt x="1147" y="590" on="1"/>
        <pt x="827" y="590" on="1"/>
        <pt x="827" y="870" on="1"/>
        <pt x="1133" y="870" on="1"/>
        <pt x="1203" y="870" on="0"/>
        <pt x="1311" y="879" on="0"/>
        <pt x="1385" y="904" on="0"/>
        <pt x="1423" y="952" on="0"/>
        <pt x="1423" y="991" on="1"/>
        <pt x="1423" y="1020" on="0"/>
        <pt x="1379" y="1070" on="0"/>
        <pt x="1289" y="1107" on="0"/>
        <pt x="1153" y="1128" on="0"/>
        <pt x="1061" y="1128" on="1"/>
        <pt x="956" y="1128" on="0"/>
        <pt x="782" y="1107" on="0"/>
        <pt x="656" y="1044" on="0"/>
        <pt x="586" y="931" on="0"/>
        <pt x="586" y="838" on="1"/>
        <pt x="586" y="0" on="1"/>
        <pt x="215" y="0" on="1"/>
        <pt x="215" y="864" on="1"/>
        <pt x="215" y="989" on="0"/>
        <pt x="327" y="1193" on="0"/>
        <pt x="540" y="1337" on="0"/>
        <pt x="847" y="1415" on="0"/>
        <pt x="1042" y="1415" on="1"/>
        <pt x="1240" y="1415" on="0"/>
        <pt x="1526" y="1350" on="0"/>
        <pt x="1711" y="1240" on="0"/>
        <pt x="1798" y="1095" on="0"/>
        <pt x="1798" y="1016" on="1"/>
        <pt x="1798" y="954" on="0"/>
        <pt x="1744" y="859" on="0"/>
        <pt x="1663" y="792" on="0"/>
        <pt x="1567" y="749" on="0"/>
        <pt x="1526" y="739" on="1"/>
        <pt x="1614" y="728" on="0"/>
        <pt x="1758" y="676" on="0"/>
        <pt x="1861" y="592" on="0"/>
        <pt x="1917" y="474" on="0"/>
        <pt x="1917" y="399" on="1"/>
        <pt x="1917" y="306" on="0"/>
        <pt x="1829" y="151" on="0"/>
        <pt x="1655" y="41" on="0"/>
        <pt x="1396" y="-20" on="0"/>
        <pt x="1225" y="-20" on="1"/>
        <pt x="1150" y="-20" on="0"/>
        <pt x="999" y="-10" on="0"/>
        <pt x="870" y="5" on="0"/>
        <pt x="772" y="20" on="0"/>
        <pt x="748" y="25" on="1"/>
        <pt x="748" y="346" on="1"/>
      </contour>
    </TTGlyph>
    <TTGlyph name="grave" xMin="145" yMin="1139" xMax="758" yMax="1589">
      <contour>
        <pt x="276" y="1589" on="1"/>
        <pt x="758" y="1309" on="1"/>
        <pt x="668" y="1139" on="1"/>
        <pt x="145" y="1325" on="1"/>
      </contour>
    </TTGlyph>
    <TTGlyph name="greater" xMin="152" yMin="117" xMax="1188" yMax="1253">
      <contour>
        <pt x="152" y="117" on="1"/>
        <pt x="152" y="436" on="1"/>
        <pt x="756" y="684" on="1"/>
        <pt x="152" y="934" on="1"/>
        <pt x="152" y="1253" on="1"/>
        <pt x="1188" y="793" on="1"/>
        <pt x="1188" y="575" on="1"/>
      </contour>
    </TTGlyph>
    <TTGlyph name="greaterequal" xMin="152" yMin="0" xMax="1231" yMax="1294">
      <contour>
        <pt x="152" y="0" on="1"/>
        <pt x="152" y="293" on="1"/>
        <pt x="1231" y="293" on="1"/>
        <pt x="1231" y="0" on="1"/>
      </contour>
      <contour>
        <pt x="152" y="322" on="1"/>
        <pt x="152" y="633" on="1"/>
        <pt x="778" y="807" on="1"/>
        <pt x="152" y="983" on="1"/>
        <pt x="152" y="1294" on="1"/>
        <pt x="1231" y="915" on="1"/>
        <pt x="1231" y="698" on="1"/>
      </contour>
    </TTGlyph>
    <TTGlyph name="guillemotleft" xMin="61" yMin="264" xMax="1137" yMax="1108">
      <contour>
        <pt x="61" y="641" on="1"/>
        <pt x="61" y="731" on="1"/>
        <pt x="408" y="1108" on="1"/>
        <pt x="604" y="926" on="1"/>
        <pt x="367" y="686" on="1"/>
        <pt x="604" y="446" on="1"/>
        <pt x="408" y="264" on="1"/>
      </contour>
      <contour>
        <pt x="594" y="641" on="1"/>
        <pt x="594" y="731" on="1"/>
        <pt x="940" y="1108" on="1"/>
        <pt x="1137" y="926" on="1"/>
        <pt x="899" y="686" on="1"/>
        <pt x="1137" y="446" on="1"/>
        <pt x="940" y="264" on="1"/>
      </contour>
    </TTGlyph>
    <TTGlyph name="guillemotright" xMin="72" yMin="264" xMax="1147" yMax="1108">
      <contour>
        <pt x="1147" y="731" on="1"/>
        <pt x="1147" y="641" on="1"/>
        <pt x="801" y="264" on="1"/>
        <pt x="604" y="446" on="1"/>
        <pt x="842" y="686" on="1"/>
        <pt x="604" y="926" on="1"/>
        <pt x="801" y="1108" on="1"/>
      </contour>
      <contour>
        <pt x="614" y="731" on="1"/>
        <pt x="614" y="641" on="1"/>
        <pt x="268" y="264" on="1"/>
        <pt x="72" y="446" on="1"/>
        <pt x="309" y="686" on="1"/>
        <pt x="72" y="926" on="1"/>
        <pt x="268" y="1108" on="1"/>
      </contour>
    </TTGlyph>
    <TTGlyph name="guilsinglleft" xMin="61" yMin="264" xMax="604" yMax="1108">
      <contour>
        <pt x="61" y="641" on="1"/>
        <pt x="61" y="731" on="1"/>
        <pt x="408" y="1108" on="1"/>
        <pt x="604" y="926" on="1"/>
        <pt x="367" y="686" on="1"/>
        <pt x="604" y="446" on="1"/>
        <pt x="408" y="264" on="1"/>
      </contour>
    </TTGlyph>
    <TTGlyph name="guilsinglright" xMin="72" yMin="264" xMax="614" yMax="1108">
      <contour>
        <pt x="614" y="731" on="1"/>
        <pt x="614" y="641" on="1"/>
        <pt x="268" y="264" on="1"/>
        <pt x="72" y="446" on="1"/>
        <pt x="309" y="686" on="1"/>
        <pt x="72" y="926" on="1"/>
        <pt x="268" y="1108" on="1"/>
      </contour>
    </TTGlyph>
    <TTGlyph name="h" xMin="215" yMin="0" xMax="1901" yMax="1374">
      <contour>
        <pt x="1530" y="0" on="1"/>
        <pt x="1530" y="573" on="1"/>
        <pt x="586" y="573" on="1"/>
        <pt x="586" y="0" on="1"/>
        <pt x="215" y="0" on="1"/>
        <pt x="215" y="1374" on="1"/>
        <pt x="586" y="1374" on="1"/>
        <pt x="586" y="874" on="1"/>
        <pt x="1530" y="874" on="1"/>
        <pt x="1530" y="1374" on="1"/>
        <pt x="1901" y="1374" on="1"/>
        <pt x="1901" y="0" on="1"/>
      </contour>
    </TTGlyph>
    <TTGlyph name="hbar" xMin="55" yMin="0" xMax="2060" yMax="1374">
      <contour>
        <pt x="1530" y="0" on="1"/>
        <pt x="1530" y="532" on="1"/>
        <pt x="586" y="532" on="1"/>
        <pt x="586" y="0" on="1"/>
        <pt x="215" y="0" on="1"/>
        <pt x="215" y="961" on="1"/>
        <pt x="55" y="961" on="1"/>
        <pt x="55" y="1176" on="1"/>
        <pt x="215" y="1176" on="1"/>
        <pt x="215" y="1374" on="1"/>
        <pt x="586" y="1374" on="1"/>
        <pt x="586" y="1176" on="1"/>
        <pt x="1530" y="1176" on="1"/>
        <pt x="1530" y="1374" on="1"/>
        <pt x="1901" y="1374" on="1"/>
        <pt x="1901" y="1176" on="1"/>
        <pt x="2060" y="1176" on="1"/>
        <pt x="2060" y="961" on="1"/>
        <pt x="1901" y="961" on="1"/>
        <pt x="1901" y="0" on="1"/>
      </contour>
      <contour>
        <pt x="1530" y="834" on="1"/>
        <pt x="1530" y="961" on="1"/>
        <pt x="586" y="961" on="1"/>
        <pt x="586" y="834" on="1"/>
      </contour>
    </TTGlyph>
    <TTGlyph name="hcircumflex" xMin="215" yMin="0" xMax="1901" yMax="1955">
      <component glyphName="h" x="0" y="0" flags="0x204"/>
      <component glyphName="circumflex" x="510" y="362" flags="0x4"/>
    </TTGlyph>
    <TTGlyph name="hungarumlaut" xMin="195" yMin="1139" xMax="1079" yMax="1538">
      <contour>
        <pt x="649" y="1325" on="1"/>
        <pt x="270" y="1139" on="1"/>
        <pt x="195" y="1251" on="1"/>
        <pt x="516" y="1538" on="1"/>
      </contour>
      <contour>
        <pt x="1079" y="1325" on="1"/>
        <pt x="700" y="1139" on="1"/>
        <pt x="629" y="1251" on="1"/>
        <pt x="946" y="1538" on="1"/>
      </contour>
    </TTGlyph>
    <TTGlyph name="hyphen" xMin="143" yMin="522" xMax="963" yMax="850">
      <contour>
        <pt x="143" y="522" on="1"/>
        <pt x="143" y="850" on="1"/>
        <pt x="963" y="850" on="1"/>
        <pt x="963" y="522" on="1"/>
      </contour>
    </TTGlyph>
    <TTGlyph name="i" xMin="215" yMin="0" xMax="586" yMax="1374">
      <contour>
        <pt x="215" y="0" on="1"/>
        <pt x="215" y="1374" on="1"/>
        <pt x="586" y="1374" on="1"/>
        <pt x="586" y="0" on="1"/>
      </contour>
    </TTGlyph>
    <TTGlyph name="iacute" xMin="188" yMin="0" xMax="800" yMax="1951">
      <component glyphName="dotlessi" x="0" y="0" flags="0x204"/>
      <component glyphName="acute" x="-136" y="362" flags="0x4"/>
    </TTGlyph>
    <TTGlyph name="ibreve" xMin="-9" yMin="0" xMax="806" yMax="1914">
      <component glyphName="dotlessi" x="0" y="0" flags="0x204"/>
      <component glyphName="breve" x="-142" y="362" flags="0x4"/>
    </TTGlyph>
    <TTGlyph name="icircumflex" xMin="-70" yMin="0" xMax="868" yMax="1955">
      <component glyphName="dotlessi" x="0" y="0" flags="0x204"/>
      <component glyphName="circumflex" x="-142" y="362" flags="0x4"/>
    </TTGlyph>
    <TTGlyph name="idieresis" xMin="12" yMin="0" xMax="786" yMax="1832">
      <component glyphName="dotlessi" x="0" y="0" flags="0x204"/>
      <component glyphName="dieresis" x="-142" y="362" flags="0x4"/>
    </TTGlyph>
    <TTGlyph name="igrave" xMin="3" yMin="0" xMax="616" yMax="1964">
      <component glyphName="dotlessi" x="0" y="0" flags="0x204"/>
      <component glyphName="grave" x="-142" y="375" flags="0x4"/>
    </TTGlyph>
    <TTGlyph name="ij" xMin="215" yMin="-16" xMax="2011" yMax="1374">
      <component glyphName="i" x="0" y="0" flags="0x4"/>
      <component glyphName="j" x="801" y="0" flags="0x4"/>
    </TTGlyph>
    <TTGlyph name="imacron" xMin="63" yMin="0" xMax="735" yMax="1798">
      <component glyphName="dotlessi" x="0" y="0" flags="0x204"/>
      <component glyphName="macron" x="-142" y="362" flags="0x4"/>
    </TTGlyph>
    <TTGlyph name="iogonek" xMin="81" yMin="-483" xMax="724" yMax="1374">
      <component glyphName="i" x="0" y="0" flags="0x204"/>
      <component glyphName="ogonek" x="-130" y="0" flags="0x4"/>
    </TTGlyph>
    <TTGlyph name="itilde" xMin="7" yMin="0" xMax="794" yMax="1873">
      <component glyphName="dotlessi" x="0" y="0" flags="0x204"/>
      <component glyphName="tilde" x="-140" y="362" flags="0x4"/>
    </TTGlyph>
    <TTGlyph name="j" xMin="0" yMin="-16" xMax="1210" yMax="1374">
      <contour>
        <pt x="1210" y="508" on="1"/>
        <pt x="1210" y="371" on="0"/>
        <pt x="1121" y="173" on="0"/>
        <pt x="950" y="45" on="0"/>
        <pt x="702" y="-16" on="0"/>
        <pt x="543" y="-16" on="1"/>
        <pt x="468" y="-16" on="0"/>
        <pt x="310" y="-1" on="0"/>
        <pt x="164" y="21" on="0"/>
        <pt x="41" y="46" on="0"/>
        <pt x="0" y="57" on="1"/>
        <pt x="0" y="379" on="1"/>
        <pt x="42" y="362" on="0"/>
        <pt x="142" y="327" on="0"/>
        <pt x="265" y="299" on="0"/>
        <pt x="414" y="281" on="0"/>
        <pt x="504" y="281" on="1"/>
        <pt x="601" y="281" on="0"/>
        <pt x="730" y="324" on="0"/>
        <pt x="808" y="401" on="0"/>
        <pt x="840" y="505" on="0"/>
        <pt x="840" y="567" on="1"/>
        <pt x="840" y="1374" on="1"/>
        <pt x="1210" y="1374" on="1"/>
      </contour>
    </TTGlyph>
    <TTGlyph name="jcircumflex" xMin="0" yMin="-16" xMax="1495" yMax="1955">
      <component glyphName="dotlessj" x="0" y="0" flags="0x204"/>
      <component glyphName="circumflex" x="485" y="362" flags="0x4"/>
    </TTGlyph>
    <TTGlyph name="k" xMin="215" yMin="0" xMax="1898" yMax="1374">
      <contour>
        <pt x="1520" y="0" on="1"/>
        <pt x="1510" y="112" on="0"/>
        <pt x="1422" y="281" on="0"/>
        <pt x="1289" y="403" on="0"/>
        <pt x="1122" y="483" on="0"/>
        <pt x="946" y="530" on="0"/>
        <pt x="771" y="549" on="0"/>
        <pt x="696" y="549" on="1"/>
        <pt x="586" y="549" on="1"/>
        <pt x="586" y="0" on="1"/>
        <pt x="215" y="0" on="1"/>
        <pt x="215" y="1374" on="1"/>
        <pt x="586" y="1374" on="1"/>
        <pt x="586" y="844" on="1"/>
        <pt x="662" y="844" on="1"/>
        <pt x="739" y="844" on="0"/>
        <pt x="907" y="868" on="0"/>
        <pt x="1072" y="920" on="0"/>
        <pt x="1224" y="1002" on="0"/>
        <pt x="1344" y="1120" on="0"/>
        <pt x="1424" y="1275" on="0"/>
        <pt x="1434" y="1374" on="1"/>
        <pt x="1812" y="1374" on="1"/>
        <pt x="1802" y="1265" on="0"/>
        <pt x="1735" y="1089" on="0"/>
        <pt x="1636" y="950" on="0"/>
        <pt x="1514" y="846" on="0"/>
        <pt x="1386" y="771" on="0"/>
        <pt x="1259" y="722" on="0"/>
        <pt x="1204" y="709" on="1"/>
        <pt x="1274" y="698" on="0"/>
        <pt x="1425" y="651" on="0"/>
        <pt x="1573" y="574" on="0"/>
        <pt x="1708" y="462" on="0"/>
        <pt x="1816" y="312" on="0"/>
        <pt x="1888" y="120" on="0"/>
        <pt x="1898" y="0" on="1"/>
      </contour>
    </TTGlyph>
    <TTGlyph name="kcommaaccent" xMin="215" yMin="-504" xMax="1898" yMax="1374">
      <component glyphName="k" x="0" y="0" flags="0x204"/>
      <component glyphName="commaaccent" x="455" y="0" flags="0x4"/>
    </TTGlyph>
    <TTGlyph name="kgreenlandic" xMin="110" yMin="0" xMax="1793" yMax="1374">
      <component glyphName="k" x="-105" y="0" flags="0x4"/>
    </TTGlyph>
    <TTGlyph name="l" xMin="215" yMin="0" xMax="1593" yMax="1374">
      <contour>
        <pt x="586" y="588" on="1"/>
        <pt x="586" y="502" on="0"/>
        <pt x="618" y="393" on="0"/>
        <pt x="690" y="329" on="0"/>
        <pt x="805" y="305" on="0"/>
        <pt x="889" y="305" on="1"/>
        <pt x="1593" y="305" on="1"/>
        <pt x="1593" y="0" on="1"/>
        <pt x="813" y="0" on="1"/>
        <pt x="651" y="0" on="0"/>
        <pt x="424" y="53" on="0"/>
        <pt x="280" y="164" on="0"/>
        <pt x="215" y="334" on="0"/>
        <pt x="215" y="451" on="1"/>
        <pt x="215" y="1374" on="1"/>
        <pt x="586" y="1374" on="1"/>
      </contour>
    </TTGlyph>
    <TTGlyph name="lacute" xMin="192" yMin="0" xMax="1593" yMax="1951">
      <component glyphName="l" x="0" y="0" flags="0x204"/>
      <component glyphName="acute" x="-132" y="362" flags="0x4"/>
    </TTGlyph>
    <TTGlyph name="lcaron" xMin="215" yMin="0" xMax="1593" yMax="1374">
      <component glyphName="l" x="0" y="0" flags="0x204"/>
      <component glyphName="quoteright" x="940" y="0" flags="0x4"/>
    </TTGlyph>
    <TTGlyph name="lcommaaccent" xMin="215" yMin="-504" xMax="1593" yMax="1374">
      <component glyphName="l" x="0" y="0" flags="0x204"/>
      <component glyphName="commaaccent" x="354" y="0" flags="0x4"/>
    </TTGlyph>
    <TTGlyph name="ldotaccent" xMin="215" yMin="0" xMax="1593" yMax="1374">
      <component glyphName="l" x="0" y="0" flags="0x204"/>
      <component glyphName="periodcentered" x="967" y="57" flags="0x4"/>
    </TTGlyph>
    <TTGlyph name="less" xMin="135" yMin="117" xMax="1171" yMax="1253">
      <contour>
        <pt x="135" y="575" on="1"/>
        <pt x="135" y="793" on="1"/>
        <pt x="1171" y="1253" on="1"/>
        <pt x="1171" y="934" on="1"/>
        <pt x="567" y="684" on="1"/>
        <pt x="1171" y="436" on="1"/>
        <pt x="1171" y="117" on="1"/>
      </contour>
    </TTGlyph>
    <TTGlyph name="lessequal" xMin="152" yMin="0" xMax="1231" yMax="1294">
      <contour>
        <pt x="152" y="0" on="1"/>
        <pt x="152" y="293" on="1"/>
        <pt x="1231" y="293" on="1"/>
        <pt x="1231" y="0" on="1"/>
      </contour>
      <contour>
        <pt x="152" y="698" on="1"/>
        <pt x="152" y="915" on="1"/>
        <pt x="1231" y="1294" on="1"/>
        <pt x="1231" y="983" on="1"/>
        <pt x="604" y="807" on="1"/>
        <pt x="1231" y="633" on="1"/>
        <pt x="1231" y="322" on="1"/>
      </contour>
    </TTGlyph>
    <TTGlyph name="logicalnot" xMin="152" yMin="295" xMax="1231" yMax="895">
      <contour>
        <pt x="938" y="295" on="1"/>
        <pt x="938" y="602" on="1"/>
        <pt x="152" y="602" on="1"/>
        <pt x="152" y="895" on="1"/>
        <pt x="1231" y="895" on="1"/>
        <pt x="1231" y="295" on="1"/>
      </contour>
    </TTGlyph>
    <TTGlyph name="lslash" xMin="-27" yMin="0" xMax="1593" yMax="1374">
      <contour>
        <pt x="586" y="924" on="1"/>
        <pt x="817" y="1014" on="1"/>
        <pt x="907" y="793" on="1"/>
        <pt x="586" y="668" on="1"/>
        <pt x="586" y="588" on="1"/>
        <pt x="586" y="502" on="0"/>
        <pt x="618" y="393" on="0"/>
        <pt x="690" y="329" on="0"/>
        <pt x="805" y="305" on="0"/>
        <pt x="889" y="305" on="1"/>
        <pt x="1593" y="305" on="1"/>
        <pt x="1593" y="0" on="1"/>
        <pt x="813" y="0" on="1"/>
        <pt x="651" y="0" on="0"/>
        <pt x="424" y="53" on="0"/>
        <pt x="280" y="164" on="0"/>
        <pt x="215" y="334" on="0"/>
        <pt x="215" y="451" on="1"/>
        <pt x="215" y="522" on="1"/>
        <pt x="63" y="465" on="1"/>
        <pt x="-27" y="686" on="1"/>
        <pt x="215" y="780" on="1"/>
        <pt x="215" y="1374" on="1"/>
        <pt x="586" y="1374" on="1"/>
      </contour>
    </TTGlyph>
    <TTGlyph name="m" xMin="215" yMin="0" xMax="2650" yMax="1409">
      <contour>
        <pt x="586" y="1374" on="1"/>
        <pt x="586" y="1223" on="1"/>
        <pt x="635" y="1254" on="0"/>
        <pt x="750" y="1320" on="0"/>
        <pt x="885" y="1374" on="0"/>
        <pt x="1040" y="1409" on="0"/>
        <pt x="1130" y="1409" on="1"/>
        <pt x="1218" y="1409" on="0"/>
        <pt x="1350" y="1372" on="0"/>
        <pt x="1447" y="1313" on="0"/>
        <pt x="1515" y="1240" on="0"/>
        <pt x="1540" y="1204" on="1"/>
        <pt x="1611" y="1250" on="0"/>
        <pt x="1749" y="1326" on="0"/>
        <pt x="1889" y="1380" on="0"/>
        <pt x="2035" y="1409" on="0"/>
        <pt x="2114" y="1409" on="1"/>
        <pt x="2240" y="1409" on="0"/>
        <pt x="2439" y="1339" on="0"/>
        <pt x="2577" y="1217" on="0"/>
        <pt x="2650" y="1052" on="0"/>
        <pt x="2650" y="958" on="1"/>
        <pt x="2650" y="0" on="1"/>
        <pt x="2279" y="0" on="1"/>
        <pt x="2279" y="905" on="1"/>
        <pt x="2279" y="960" on="0"/>
        <pt x="2245" y="1040" on="0"/>
        <pt x="2188" y="1090" on="0"/>
        <pt x="2111" y="1114" on="0"/>
        <pt x="2068" y="1114" on="1"/>
        <pt x="1868" y="1114" on="0"/>
        <pt x="1612" y="934" on="1"/>
        <pt x="1615" y="917" on="0"/>
        <pt x="1618" y="871" on="0"/>
        <pt x="1618" y="848" on="1"/>
        <pt x="1618" y="0" on="1"/>
        <pt x="1247" y="0" on="1"/>
        <pt x="1247" y="913" on="1"/>
        <pt x="1247" y="968" on="0"/>
        <pt x="1213" y="1045" on="0"/>
        <pt x="1154" y="1093" on="0"/>
        <pt x="1077" y="1114" on="0"/>
        <pt x="1034" y="1114" on="1"/>
        <pt x="982" y="1114" on="0"/>
        <pt x="867" y="1084" on="0"/>
        <pt x="750" y="1030" on="0"/>
        <pt x="637" y="956" on="0"/>
        <pt x="586" y="913" on="1"/>
        <pt x="586" y="0" on="1"/>
        <pt x="215" y="0" on="1"/>
        <pt x="215" y="1374" on="1"/>
      </contour>
    </TTGlyph>
    <TTGlyph name="macron" xMin="205" yMin="1180" xMax="877" yMax="1436">
      <contour>
        <pt x="205" y="1180" on="1"/>
        <pt x="205" y="1436" on="1"/>
        <pt x="877" y="1436" on="1"/>
        <pt x="877" y="1180" on="1"/>
      </contour>
    </TTGlyph>
    <TTGlyph name="micro" xMin="51" yMin="-410" xMax="1442" yMax="958">
      <contour>
        <pt x="645" y="958" on="1"/>
        <pt x="537" y="401" on="1"/>
        <pt x="541" y="373" on="0"/>
        <pt x="565" y="311" on="0"/>
        <pt x="607" y="260" on="0"/>
        <pt x="666" y="227" on="0"/>
        <pt x="705" y="227" on="1"/>
        <pt x="763" y="227" on="0"/>
        <pt x="858" y="277" on="0"/>
        <pt x="935" y="356" on="0"/>
        <pt x="998" y="456" on="0"/>
        <pt x="1024" y="506" on="1"/>
        <pt x="1112" y="958" on="1"/>
        <pt x="1442" y="958" on="1"/>
        <pt x="1327" y="362" on="1"/>
        <pt x="1319" y="320" on="0"/>
        <pt x="1313" y="254" on="0"/>
        <pt x="1313" y="225" on="1"/>
        <pt x="1313" y="191" on="0"/>
        <pt x="1320" y="134" on="0"/>
        <pt x="1332" y="82" on="0"/>
        <pt x="1347" y="29" on="0"/>
        <pt x="1356" y="0" on="1"/>
        <pt x="1026" y="0" on="1"/>
        <pt x="1019" y="22" on="0"/>
        <pt x="1009" y="58" on="0"/>
        <pt x="1001" y="97" on="0"/>
        <pt x="993" y="147" on="0"/>
        <pt x="989" y="184" on="1"/>
        <pt x="962" y="142" on="0"/>
        <pt x="905" y="67" on="0"/>
        <pt x="832" y="10" on="0"/>
        <pt x="739" y="-23" on="0"/>
        <pt x="678" y="-23" on="1"/>
        <pt x="652" y="-23" on="0"/>
        <pt x="596" y="-9" on="0"/>
        <pt x="543" y="23" on="0"/>
        <pt x="497" y="75" on="0"/>
        <pt x="481" y="113" on="1"/>
        <pt x="381" y="-410" on="1"/>
        <pt x="51" y="-410" on="1"/>
        <pt x="315" y="958" on="1"/>
      </contour>
    </TTGlyph>
    <TTGlyph name="minus" xMin="152" yMin="539" xMax="1231" yMax="831">
      <contour>
        <pt x="1231" y="831" on="1"/>
        <pt x="1231" y="539" on="1"/>
        <pt x="152" y="539" on="1"/>
        <pt x="152" y="831" on="1"/>
      </contour>
    </TTGlyph>
    <TTGlyph name="mu" xMin="51" yMin="-410" xMax="1442" yMax="958">
      <contour>
        <pt x="645" y="958" on="1"/>
        <pt x="537" y="401" on="1"/>
        <pt x="541" y="373" on="0"/>
        <pt x="565" y="311" on="0"/>
        <pt x="607" y="260" on="0"/>
        <pt x="666" y="227" on="0"/>
        <pt x="705" y="227" on="1"/>
        <pt x="763" y="227" on="0"/>
        <pt x="858" y="277" on="0"/>
        <pt x="935" y="356" on="0"/>
        <pt x="998" y="456" on="0"/>
        <pt x="1024" y="506" on="1"/>
        <pt x="1112" y="958" on="1"/>
        <pt x="1442" y="958" on="1"/>
        <pt x="1327" y="362" on="1"/>
        <pt x="1319" y="320" on="0"/>
        <pt x="1313" y="254" on="0"/>
        <pt x="1313" y="225" on="1"/>
        <pt x="1313" y="191" on="0"/>
        <pt x="1320" y="134" on="0"/>
        <pt x="1332" y="82" on="0"/>
        <pt x="1347" y="29" on="0"/>
        <pt x="1356" y="0" on="1"/>
        <pt x="1026" y="0" on="1"/>
        <pt x="1019" y="22" on="0"/>
        <pt x="1009" y="58" on="0"/>
        <pt x="1001" y="97" on="0"/>
        <pt x="993" y="147" on="0"/>
        <pt x="989" y="184" on="1"/>
        <pt x="962" y="142" on="0"/>
        <pt x="905" y="67" on="0"/>
        <pt x="832" y="10" on="0"/>
        <pt x="739" y="-23" on="0"/>
        <pt x="678" y="-23" on="1"/>
        <pt x="652" y="-23" on="0"/>
        <pt x="596" y="-9" on="0"/>
        <pt x="543" y="23" on="0"/>
        <pt x="497" y="75" on="0"/>
        <pt x="481" y="113" on="1"/>
        <pt x="381" y="-410" on="1"/>
        <pt x="51" y="-410" on="1"/>
        <pt x="315" y="958" on="1"/>
      </contour>
    </TTGlyph>
    <TTGlyph name="multiply" xMin="147" yMin="143" xMax="1233" yMax="1229">
      <contour>
        <pt x="897" y="686" on="1"/>
        <pt x="1233" y="350" on="1"/>
        <pt x="1026" y="143" on="1"/>
        <pt x="690" y="479" on="1"/>
        <pt x="354" y="143" on="1"/>
        <pt x="147" y="350" on="1"/>
        <pt x="483" y="686" on="1"/>
        <pt x="147" y="1022" on="1"/>
        <pt x="354" y="1229" on="1"/>
        <pt x="690" y="893" on="1"/>
        <pt x="1026" y="1229" on="1"/>
        <pt x="1233" y="1022" on="1"/>
      </contour>
    </TTGlyph>
    <TTGlyph name="n" xMin="215" yMin="0" xMax="1894" yMax="1409">
      <contour>
        <pt x="1524" y="0" on="1"/>
        <pt x="1524" y="770" on="1"/>
        <pt x="1524" y="847" on="0"/>
        <pt x="1498" y="972" on="0"/>
        <pt x="1427" y="1061" on="0"/>
        <pt x="1300" y="1110" on="0"/>
        <pt x="1200" y="1110" on="1"/>
        <pt x="1124" y="1110" on="0"/>
        <pt x="957" y="1069" on="0"/>
        <pt x="793" y="1001" on="0"/>
        <pt x="644" y="911" on="0"/>
        <pt x="586" y="862" on="1"/>
        <pt x="586" y="0" on="1"/>
        <pt x="215" y="0" on="1"/>
        <pt x="215" y="1374" on="1"/>
        <pt x="586" y="1374" on="1"/>
        <pt x="586" y="1186" on="1"/>
        <pt x="656" y="1226" on="0"/>
        <pt x="814" y="1305" on="0"/>
        <pt x="992" y="1369" on="0"/>
        <pt x="1192" y="1409" on="0"/>
        <pt x="1303" y="1409" on="1"/>
        <pt x="1442" y="1409" on="0"/>
        <pt x="1661" y="1342" on="0"/>
        <pt x="1813" y="1219" on="0"/>
        <pt x="1894" y="1044" on="0"/>
        <pt x="1894" y="936" on="1"/>
        <pt x="1894" y="0" on="1"/>
      </contour>
    </TTGlyph>
    <TTGlyph name="nacute" xMin="215" yMin="0" xMax="1894" yMax="1951">
      <component glyphName="n" x="0" y="0" flags="0x204"/>
      <component glyphName="acute" x="590" y="362" flags="0x4"/>
    </TTGlyph>
    <TTGlyph name="napostrophe" xMin="1" yMin="0" xMax="2183" yMax="1409">
      <component glyphName="quoteright" x="-50" y="0" flags="0x4"/>
      <component glyphName="n" x="289" y="0" flags="0x4"/>
    </TTGlyph>
    <TTGlyph name="ncaron" xMin="215" yMin="0" xMax="1894" yMax="1955">
      <component glyphName="n" x="0" y="0" flags="0x204"/>
      <component glyphName="caron" x="584" y="362" flags="0x4"/>
    </TTGlyph>
    <TTGlyph name="ncommaaccent" xMin="215" yMin="-504" xMax="1894" yMax="1409">
      <component glyphName="n" x="0" y="0" flags="0x204"/>
      <component glyphName="commaaccent" x="506" y="0" flags="0x4"/>
    </TTGlyph>
    <TTGlyph name="nine" xMin="102" yMin="-37" xMax="1632" yMax="1409">
      <contour>
        <pt x="721" y="242" on="1"/>
        <pt x="861" y="242" on="0"/>
        <pt x="1062" y="292" on="0"/>
        <pt x="1194" y="381" on="0"/>
        <pt x="1260" y="500" on="0"/>
        <pt x="1264" y="569" on="1"/>
        <pt x="1212" y="544" on="0"/>
        <pt x="1097" y="499" on="0"/>
        <pt x="966" y="464" on="0"/>
        <pt x="815" y="444" on="0"/>
        <pt x="727" y="444" on="1"/>
        <pt x="594" y="444" on="0"/>
        <pt x="366" y="497" on="0"/>
        <pt x="198" y="608" on="0"/>
        <pt x="102" y="782" on="0"/>
        <pt x="102" y="903" on="1"/>
        <pt x="102" y="1038" on="0"/>
        <pt x="214" y="1229" on="0"/>
        <pt x="410" y="1352" on="0"/>
        <pt x="676" y="1409" on="0"/>
        <pt x="831" y="1409" on="1"/>
        <pt x="1009" y="1409" on="0"/>
        <pt x="1304" y="1321" on="0"/>
        <pt x="1516" y="1145" on="0"/>
        <pt x="1632" y="880" on="0"/>
        <pt x="1632" y="702" on="1"/>
        <pt x="1632" y="550" on="0"/>
        <pt x="1528" y="281" on="0"/>
        <pt x="1309" y="80" on="0"/>
        <pt x="970" y="-37" on="0"/>
        <pt x="735" y="-37" on="1"/>
        <pt x="668" y="-37" on="0"/>
        <pt x="526" y="-27" on="0"/>
        <pt x="391" y="-10" on="0"/>
        <pt x="269" y="13" on="0"/>
        <pt x="223" y="25" on="1"/>
        <pt x="223" y="332" on="1"/>
        <pt x="256" y="319" on="0"/>
        <pt x="351" y="287" on="0"/>
        <pt x="476" y="260" on="0"/>
        <pt x="629" y="242" on="0"/>
      </contour>
      <contour>
        <pt x="1257" y="872" on="1"/>
        <pt x="1246" y="914" on="0"/>
        <pt x="1177" y="1002" on="0"/>
        <pt x="1066" y="1075" on="0"/>
        <pt x="916" y="1122" on="0"/>
        <pt x="825" y="1122" on="1"/>
        <pt x="751" y="1122" on="0"/>
        <pt x="623" y="1099" on="0"/>
        <pt x="528" y="1051" on="0"/>
        <pt x="473" y="978" on="0"/>
        <pt x="473" y="928" on="1"/>
        <pt x="473" y="874" on="0"/>
        <pt x="517" y="798" on="0"/>
        <pt x="601" y="751" on="0"/>
        <pt x="724" y="729" on="0"/>
        <pt x="803" y="729" on="1"/>
        <pt x="868" y="729" on="0"/>
        <pt x="997" y="753" on="0"/>
        <pt x="1115" y="792" on="0"/>
        <pt x="1218" y="844" on="0"/>
      </contour>
    </TTGlyph>
    <TTGlyph name="notequal" xMin="152" yMin="49" xMax="1231" yMax="1319">
      <contour>
        <pt x="659" y="274" on="1"/>
        <pt x="580" y="49" on="1"/>
        <pt x="336" y="49" on="1"/>
        <pt x="416" y="274" on="1"/>
        <pt x="152" y="274" on="1"/>
        <pt x="152" y="569" on="1"/>
        <pt x="520" y="569" on="1"/>
        <pt x="602" y="801" on="1"/>
        <pt x="152" y="801" on="1"/>
        <pt x="152" y="1094" on="1"/>
        <pt x="707" y="1094" on="1"/>
        <pt x="786" y="1319" on="1"/>
        <pt x="1030" y="1319" on="1"/>
        <pt x="950" y="1094" on="1"/>
        <pt x="1231" y="1094" on="1"/>
        <pt x="1231" y="801" on="1"/>
        <pt x="846" y="801" on="1"/>
        <pt x="764" y="569" on="1"/>
        <pt x="1231" y="569" on="1"/>
        <pt x="1231" y="274" on="1"/>
      </contour>
    </TTGlyph>
    <TTGlyph name="ntilde" xMin="215" yMin="0" xMax="1894" yMax="1873">
      <component glyphName="n" x="0" y="0" flags="0x204"/>
      <component glyphName="tilde" x="586" y="362" flags="0x4"/>
    </TTGlyph>
    <TTGlyph name="numbersign" xMin="102" yMin="0" xMax="1456" yMax="1374">
      <contour>
        <pt x="1196" y="809" on="1"/>
        <pt x="1143" y="567" on="1"/>
        <pt x="1341" y="567" on="1"/>
        <pt x="1341" y="311" on="1"/>
        <pt x="1087" y="311" on="1"/>
        <pt x="1016" y="0" on="1"/>
        <pt x="752" y="0" on="1"/>
        <pt x="823" y="311" on="1"/>
        <pt x="573" y="311" on="1"/>
        <pt x="502" y="0" on="1"/>
        <pt x="238" y="0" on="1"/>
        <pt x="309" y="311" on="1"/>
        <pt x="102" y="311" on="1"/>
        <pt x="102" y="567" on="1"/>
        <pt x="362" y="567" on="1"/>
        <pt x="418" y="809" on="1"/>
        <pt x="217" y="809" on="1"/>
        <pt x="217" y="1065" on="1"/>
        <pt x="475" y="1065" on="1"/>
        <pt x="541" y="1374" on="1"/>
        <pt x="805" y="1374" on="1"/>
        <pt x="739" y="1065" on="1"/>
        <pt x="989" y="1065" on="1"/>
        <pt x="1055" y="1374" on="1"/>
        <pt x="1319" y="1374" on="1"/>
        <pt x="1253" y="1065" on="1"/>
        <pt x="1456" y="1065" on="1"/>
        <pt x="1456" y="809" on="1"/>
      </contour>
      <contour>
        <pt x="682" y="809" on="1"/>
        <pt x="627" y="567" on="1"/>
        <pt x="879" y="567" on="1"/>
        <pt x="932" y="809" on="1"/>
      </contour>
    </TTGlyph>
    <TTGlyph name="o" xMin="123" yMin="-37" xMax="1993" yMax="1409">
      <contour>
        <pt x="1993" y="686" on="1"/>
        <pt x="1993" y="509" on="0"/>
        <pt x="1863" y="238" on="0"/>
        <pt x="1621" y="56" on="0"/>
        <pt x="1276" y="-37" on="0"/>
        <pt x="1061" y="-37" on="1"/>
        <pt x="846" y="-37" on="0"/>
        <pt x="499" y="56" on="0"/>
        <pt x="255" y="238" on="0"/>
        <pt x="123" y="509" on="0"/>
        <pt x="123" y="686" on="1"/>
        <pt x="123" y="863" on="0"/>
        <pt x="255" y="1134" on="0"/>
        <pt x="499" y="1316" on="0"/>
        <pt x="846" y="1409" on="0"/>
        <pt x="1061" y="1409" on="1"/>
        <pt x="1276" y="1409" on="0"/>
        <pt x="1621" y="1316" on="0"/>
        <pt x="1863" y="1134" on="0"/>
        <pt x="1993" y="863" on="0"/>
      </contour>
      <contour>
        <pt x="1618" y="686" on="1"/>
        <pt x="1618" y="763" on="0"/>
        <pt x="1569" y="916" on="0"/>
        <pt x="1444" y="1038" on="0"/>
        <pt x="1228" y="1114" on="0"/>
        <pt x="1061" y="1114" on="1"/>
        <pt x="949" y="1114" on="0"/>
        <pt x="779" y="1079" on="0"/>
        <pt x="655" y="1017" on="0"/>
        <pt x="571" y="934" on="0"/>
        <pt x="521" y="839" on="0"/>
        <pt x="500" y="736" on="0"/>
        <pt x="500" y="686" on="1"/>
        <pt x="500" y="635" on="0"/>
        <pt x="521" y="531" on="0"/>
        <pt x="571" y="436" on="0"/>
        <pt x="655" y="354" on="0"/>
        <pt x="779" y="293" on="0"/>
        <pt x="949" y="258" on="0"/>
        <pt x="1061" y="258" on="1"/>
        <pt x="1228" y="258" on="0"/>
        <pt x="1444" y="334" on="0"/>
        <pt x="1569" y="456" on="0"/>
        <pt x="1618" y="609" on="0"/>
      </contour>
    </TTGlyph>
    <TTGlyph name="oacute" xMin="123" yMin="-37" xMax="1993" yMax="1951">
      <component glyphName="o" x="0" y="0" flags="0x204"/>
      <component glyphName="acute" x="526" y="362" flags="0x4"/>
    </TTGlyph>
    <TTGlyph name="obreve" xMin="123" yMin="-37" xMax="1993" yMax="1914">
      <component glyphName="o" x="0" y="0" flags="0x204"/>
      <component glyphName="breve" x="520" y="362" flags="0x4"/>
    </TTGlyph>
    <TTGlyph name="ocircumflex" xMin="123" yMin="-37" xMax="1993" yMax="1955">
      <component glyphName="o" x="0" y="0" flags="0x204"/>
      <component glyphName="circumflex" x="520" y="362" flags="0x4"/>
    </TTGlyph>
    <TTGlyph name="odieresis" xMin="123" yMin="-37" xMax="1993" yMax="1832">
      <component glyphName="o" x="0" y="0" flags="0x204"/>
      <component glyphName="dieresis" x="520" y="362" flags="0x4"/>
    </TTGlyph>
    <TTGlyph name="oe" xMin="123" yMin="-37" xMax="3355" yMax="1409">
      <contour>
        <pt x="3242" y="68" on="1"/>
        <pt x="3073" y="12" on="0"/>
        <pt x="2737" y="-37" on="0"/>
        <pt x="2560" y="-37" on="1"/>
        <pt x="2297" y="-37" on="0"/>
        <pt x="1920" y="91" on="0"/>
        <pt x="1804" y="215" on="1"/>
        <pt x="1689" y="90" on="0"/>
        <pt x="1315" y="-37" on="0"/>
        <pt x="1061" y="-37" on="1"/>
        <pt x="846" y="-37" on="0"/>
        <pt x="499" y="56" on="0"/>
        <pt x="255" y="238" on="0"/>
        <pt x="123" y="509" on="0"/>
        <pt x="123" y="686" on="1"/>
        <pt x="123" y="863" on="0"/>
        <pt x="255" y="1134" on="0"/>
        <pt x="499" y="1316" on="0"/>
        <pt x="846" y="1409" on="0"/>
        <pt x="1061" y="1409" on="1"/>
        <pt x="1321" y="1409" on="0"/>
        <pt x="1701" y="1276" on="0"/>
        <pt x="1817" y="1145" on="1"/>
        <pt x="1873" y="1206" on="0"/>
        <pt x="2018" y="1303" on="0"/>
        <pt x="2193" y="1372" on="0"/>
        <pt x="2397" y="1409" on="0"/>
        <pt x="2511" y="1409" on="1"/>
        <pt x="2698" y="1409" on="0"/>
        <pt x="3009" y="1308" on="0"/>
        <pt x="3232" y="1110" on="0"/>
        <pt x="3355" y="820" on="0"/>
        <pt x="3355" y="631" on="1"/>
        <pt x="3355" y="539" on="1"/>
        <pt x="2001" y="539" on="1"/>
        <pt x="2019" y="474" on="0"/>
        <pt x="2102" y="366" on="0"/>
        <pt x="2244" y="290" on="0"/>
        <pt x="2451" y="248" on="0"/>
        <pt x="2595" y="248" on="1"/>
        <pt x="2697" y="248" on="0"/>
        <pt x="2893" y="273" on="0"/>
        <pt x="3063" y="314" on="0"/>
        <pt x="3200" y="364" on="0"/>
        <pt x="3242" y="389" on="1"/>
      </contour>
      <contour>
        <pt x="1618" y="686" on="1"/>
        <pt x="1618" y="763" on="0"/>
        <pt x="1569" y="916" on="0"/>
        <pt x="1444" y="1038" on="0"/>
        <pt x="1228" y="1114" on="0"/>
        <pt x="1061" y="1114" on="1"/>
        <pt x="949" y="1114" on="0"/>
        <pt x="779" y="1079" on="0"/>
        <pt x="655" y="1017" on="0"/>
        <pt x="571" y="934" on="0"/>
        <pt x="521" y="839" on="0"/>
        <pt x="500" y="736" on="0"/>
        <pt x="500" y="686" on="1"/>
        <pt x="500" y="635" on="0"/>
        <pt x="521" y="531" on="0"/>
        <pt x="571" y="436" on="0"/>
        <pt x="655" y="354" on="0"/>
        <pt x="779" y="293" on="0"/>
        <pt x="949" y="258" on="0"/>
        <pt x="1061" y="258" on="1"/>
        <pt x="1228" y="258" on="0"/>
        <pt x="1444" y="334" on="0"/>
        <pt x="1569" y="456" on="0"/>
        <pt x="1618" y="609" on="0"/>
      </contour>
      <contour>
        <pt x="2986" y="811" on="1"/>
        <pt x="2981" y="862" on="0"/>
        <pt x="2930" y="971" on="0"/>
        <pt x="2820" y="1059" on="0"/>
        <pt x="2642" y="1116" on="0"/>
        <pt x="2509" y="1116" on="1"/>
        <pt x="2384" y="1116" on="0"/>
        <pt x="2202" y="1054" on="0"/>
        <pt x="2079" y="962" on="0"/>
        <pt x="2011" y="856" on="0"/>
        <pt x="2001" y="811" on="1"/>
      </contour>
    </TTGlyph>
    <TTGlyph name="ogonek" xMin="211" yMin="-483" xMax="854" yMax="20">
      <contour>
        <pt x="637" y="20" on="1"/>
        <pt x="603" y="-4" on="0"/>
        <pt x="549" y="-61" on="0"/>
        <pt x="510" y="-121" on="0"/>
        <pt x="489" y="-180" on="0"/>
        <pt x="489" y="-207" on="1"/>
        <pt x="489" y="-249" on="0"/>
        <pt x="547" y="-283" on="0"/>
        <pt x="610" y="-283" on="1"/>
        <pt x="638" y="-283" on="0"/>
        <pt x="706" y="-271" on="0"/>
        <pt x="773" y="-254" on="0"/>
        <pt x="833" y="-234" on="0"/>
        <pt x="854" y="-225" on="1"/>
        <pt x="854" y="-432" on="1"/>
        <pt x="833" y="-438" on="0"/>
        <pt x="768" y="-456" on="0"/>
        <pt x="681" y="-472" on="0"/>
        <pt x="575" y="-483" on="0"/>
        <pt x="514" y="-483" on="1"/>
        <pt x="454" y="-483" on="0"/>
        <pt x="344" y="-461" on="0"/>
        <pt x="261" y="-411" on="0"/>
        <pt x="211" y="-331" on="0"/>
        <pt x="211" y="-272" on="1"/>
        <pt x="211" y="-240" on="0"/>
        <pt x="241" y="-159" on="0"/>
        <pt x="297" y="-78" on="0"/>
        <pt x="377" y="-5" on="0"/>
        <pt x="426" y="20" on="1"/>
      </contour>
    </TTGlyph>
    <TTGlyph name="ograve" xMin="123" yMin="-37" xMax="1993" yMax="1951">
      <component glyphName="o" x="0" y="0" flags="0x204"/>
      <component glyphName="grave" x="520" y="362" flags="0x4"/>
    </TTGlyph>
    <TTGlyph name="ohungarumlaut" xMin="123" yMin="-37" xMax="1993" yMax="1900">
      <component glyphName="o" x="0" y="0" flags="0x204"/>
      <component glyphName="hungarumlaut" x="520" y="362" flags="0x4"/>
    </TTGlyph>
    <TTGlyph name="omacron" xMin="123" yMin="-37" xMax="1993" yMax="1798">
      <component glyphName="o" x="0" y="0" flags="0x204"/>
      <component glyphName="macron" x="520" y="362" flags="0x4"/>
    </TTGlyph>
    <TTGlyph name="one" xMin="20" yMin="0" xMax="758" yMax="1374">
      <contour>
        <pt x="389" y="0" on="1"/>
        <pt x="389" y="1100" on="1"/>
        <pt x="20" y="985" on="1"/>
        <pt x="20" y="1260" on="1"/>
        <pt x="389" y="1374" on="1"/>
        <pt x="758" y="1374" on="1"/>
        <pt x="758" y="0" on="1"/>
      </contour>
    </TTGlyph>
    <TTGlyph name="onehalf" xMin="41" yMin="0" xMax="1950" yMax="1374">
      <contour>
        <pt x="1133" y="0" on="1"/>
        <pt x="1133" y="174" on="1"/>
        <pt x="1256" y="228" on="0"/>
        <pt x="1449" y="309" on="0"/>
        <pt x="1582" y="379" on="0"/>
        <pt x="1653" y="443" on="0"/>
        <pt x="1653" y="479" on="1"/>
        <pt x="1653" y="521" on="0"/>
        <pt x="1572" y="561" on="0"/>
        <pt x="1481" y="561" on="1"/>
        <pt x="1444" y="561" on="0"/>
        <pt x="1355" y="548" on="0"/>
        <pt x="1264" y="525" on="0"/>
        <pt x="1177" y="493" on="0"/>
        <pt x="1141" y="473" on="1"/>
        <pt x="1141" y="680" on="1"/>
        <pt x="1179" y="694" on="0"/>
        <pt x="1278" y="717" on="0"/>
        <pt x="1382" y="733" on="0"/>
        <pt x="1483" y="742" on="0"/>
        <pt x="1524" y="741" on="1"/>
        <pt x="1598" y="740" on="0"/>
        <pt x="1749" y="720" on="0"/>
        <pt x="1870" y="665" on="0"/>
        <pt x="1946" y="568" on="0"/>
        <pt x="1946" y="492" on="1"/>
        <pt x="1946" y="443" on="0"/>
        <pt x="1897" y="364" on="0"/>
        <pt x="1794" y="292" on="0"/>
        <pt x="1635" y="224" on="0"/>
        <pt x="1526" y="186" on="1"/>
        <pt x="1950" y="186" on="1"/>
        <pt x="1950" y="0" on="1"/>
      </contour>
      <contour>
        <pt x="217" y="645" on="1"/>
        <pt x="217" y="1198" on="1"/>
        <pt x="41" y="1145" on="1"/>
        <pt x="41" y="1321" on="1"/>
        <pt x="217" y="1374" on="1"/>
        <pt x="492" y="1374" on="1"/>
        <pt x="492" y="645" on="1"/>
      </contour>
      <contour>
        <pt x="475" y="0" on="1"/>
        <pt x="197" y="0" on="1"/>
        <pt x="1294" y="1374" on="1"/>
        <pt x="1571" y="1374" on="1"/>
      </contour>
    </TTGlyph>
    <TTGlyph name="onequarter" xMin="41" yMin="0" xMax="1923" yMax="1374">
      <contour>
        <pt x="1923" y="135" on="1"/>
        <pt x="1749" y="135" on="1"/>
        <pt x="1749" y="0" on="1"/>
        <pt x="1475" y="0" on="1"/>
        <pt x="1475" y="135" on="1"/>
        <pt x="991" y="135" on="1"/>
        <pt x="991" y="309" on="1"/>
        <pt x="1440" y="729" on="1"/>
        <pt x="1749" y="729" on="1"/>
        <pt x="1749" y="311" on="1"/>
        <pt x="1923" y="311" on="1"/>
      </contour>
      <contour>
        <pt x="1475" y="553" on="1"/>
        <pt x="1225" y="311" on="1"/>
        <pt x="1475" y="311" on="1"/>
      </contour>
      <contour>
        <pt x="217" y="645" on="1"/>
        <pt x="217" y="1198" on="1"/>
        <pt x="41" y="1145" on="1"/>
        <pt x="41" y="1321" on="1"/>
        <pt x="217" y="1374" on="1"/>
        <pt x="492" y="1374" on="1"/>
        <pt x="492" y="645" on="1"/>
      </contour>
      <contour>
        <pt x="475" y="0" on="1"/>
        <pt x="197" y="0" on="1"/>
        <pt x="1294" y="1374" on="1"/>
        <pt x="1571" y="1374" on="1"/>
      </contour>
    </TTGlyph>
    <TTGlyph name="onesuperior" xMin="20" yMin="508" xMax="535" yMax="1374">
      <contour>
        <pt x="236" y="508" on="1"/>
        <pt x="236" y="1155" on="1"/>
        <pt x="20" y="1090" on="1"/>
        <pt x="20" y="1309" on="1"/>
        <pt x="236" y="1374" on="1"/>
        <pt x="535" y="1374" on="1"/>
        <pt x="535" y="508" on="1"/>
      </contour>
    </TTGlyph>
    <TTGlyph name="ordfeminine" xMin="61" yMin="373" xMax="946" yMax="1393">
      <contour>
        <pt x="92" y="373" on="1"/>
        <pt x="92" y="567" on="1"/>
        <pt x="946" y="567" on="1"/>
        <pt x="946" y="373" on="1"/>
      </contour>
      <contour>
        <pt x="692" y="707" on="1"/>
        <pt x="692" y="768" on="1"/>
        <pt x="618" y="730" on="0"/>
        <pt x="455" y="688" on="0"/>
        <pt x="356" y="688" on="1"/>
        <pt x="299" y="688" on="0"/>
        <pt x="193" y="708" on="0"/>
        <pt x="111" y="755" on="0"/>
        <pt x="61" y="830" on="0"/>
        <pt x="61" y="885" on="1"/>
        <pt x="61" y="953" on="0"/>
        <pt x="133" y="1044" on="0"/>
        <pt x="286" y="1103" on="0"/>
        <pt x="525" y="1134" on="0"/>
        <pt x="692" y="1143" on="1"/>
        <pt x="692" y="1149" on="1"/>
        <pt x="692" y="1166" on="0"/>
        <pt x="680" y="1195" on="0"/>
        <pt x="639" y="1217" on="0"/>
        <pt x="561" y="1229" on="0"/>
        <pt x="496" y="1229" on="1"/>
        <pt x="443" y="1229" on="0"/>
        <pt x="342" y="1219" on="0"/>
        <pt x="247" y="1201" on="0"/>
        <pt x="163" y="1178" on="0"/>
        <pt x="129" y="1165" on="1"/>
        <pt x="129" y="1346" on="1"/>
        <pt x="165" y="1355" on="0"/>
        <pt x="255" y="1372" on="0"/>
        <pt x="352" y="1385" on="0"/>
        <pt x="451" y="1393" on="0"/>
        <pt x="496" y="1393" on="1"/>
        <pt x="584" y="1393" on="0"/>
        <pt x="746" y="1364" on="0"/>
        <pt x="870" y="1304" on="0"/>
        <pt x="944" y="1213" on="0"/>
        <pt x="944" y="1151" on="1"/>
        <pt x="944" y="707" on="1"/>
      </contour>
      <contour>
        <pt x="692" y="1001" on="1"/>
        <pt x="602" y="997" on="0"/>
        <pt x="475" y="985" on="0"/>
        <pt x="390" y="969" on="0"/>
        <pt x="341" y="951" on="0"/>
        <pt x="316" y="933" on="0"/>
        <pt x="309" y="915" on="0"/>
        <pt x="309" y="907" on="1"/>
        <pt x="309" y="882" on="0"/>
        <pt x="353" y="850" on="0"/>
        <pt x="412" y="850" on="1"/>
        <pt x="460" y="850" on="0"/>
        <pt x="538" y="863" on="0"/>
        <pt x="606" y="886" on="0"/>
        <pt x="664" y="915" on="0"/>
        <pt x="692" y="930" on="1"/>
      </contour>
    </TTGlyph>
    <TTGlyph name="ordmasculine" xMin="61" yMin="373" xMax="1047" yMax="1393">
      <contour>
        <pt x="111" y="373" on="1"/>
        <pt x="111" y="567" on="1"/>
        <pt x="995" y="567" on="1"/>
        <pt x="995" y="373" on="1"/>
      </contour>
      <contour>
        <pt x="1047" y="1040" on="1"/>
        <pt x="1047" y="953" on="0"/>
        <pt x="975" y="822" on="0"/>
        <pt x="845" y="733" on="0"/>
        <pt x="664" y="688" on="0"/>
        <pt x="555" y="688" on="1"/>
        <pt x="447" y="688" on="0"/>
        <pt x="265" y="733" on="0"/>
        <pt x="134" y="822" on="0"/>
        <pt x="61" y="953" on="0"/>
        <pt x="61" y="1040" on="1"/>
        <pt x="61" y="1127" on="0"/>
        <pt x="134" y="1259" on="0"/>
        <pt x="265" y="1348" on="0"/>
        <pt x="447" y="1393" on="0"/>
        <pt x="555" y="1393" on="1"/>
        <pt x="664" y="1393" on="0"/>
        <pt x="845" y="1348" on="0"/>
        <pt x="975" y="1259" on="0"/>
        <pt x="1047" y="1127" on="0"/>
      </contour>
      <contour>
        <pt x="797" y="1040" on="1"/>
        <pt x="797" y="1070" on="0"/>
        <pt x="773" y="1130" on="0"/>
        <pt x="717" y="1178" on="0"/>
        <pt x="624" y="1208" on="0"/>
        <pt x="555" y="1208" on="1"/>
        <pt x="486" y="1208" on="0"/>
        <pt x="393" y="1177" on="0"/>
        <pt x="337" y="1129" on="0"/>
        <pt x="313" y="1069" on="0"/>
        <pt x="313" y="1040" on="1"/>
        <pt x="313" y="1010" on="0"/>
        <pt x="337" y="950" on="0"/>
        <pt x="393" y="902" on="0"/>
        <pt x="486" y="872" on="0"/>
        <pt x="555" y="872" on="1"/>
        <pt x="624" y="872" on="0"/>
        <pt x="717" y="902" on="0"/>
        <pt x="773" y="950" on="0"/>
        <pt x="797" y="1010" on="0"/>
      </contour>
    </TTGlyph>
    <TTGlyph name="oslash" xMin="123" yMin="-182" xMax="1993" yMax="1554">
      <contour>
        <pt x="1993" y="686" on="1"/>
        <pt x="1993" y="509" on="0"/>
        <pt x="1863" y="238" on="0"/>
        <pt x="1621" y="56" on="0"/>
        <pt x="1276" y="-37" on="0"/>
        <pt x="1061" y="-37" on="1"/>
        <pt x="948" y="-37" on="0"/>
        <pt x="747" y="-12" on="0"/>
        <pt x="657" y="12" on="1"/>
        <pt x="500" y="-182" on="1"/>
        <pt x="207" y="-182" on="1"/>
        <pt x="440" y="104" on="1"/>
        <pt x="288" y="195" on="0"/>
        <pt x="123" y="485" on="0"/>
        <pt x="123" y="686" on="1"/>
        <pt x="123" y="863" on="0"/>
        <pt x="255" y="1134" on="0"/>
        <pt x="499" y="1316" on="0"/>
        <pt x="846" y="1409" on="0"/>
        <pt x="1061" y="1409" on="1"/>
        <pt x="1284" y="1409" on="0"/>
        <pt x="1458" y="1360" on="1"/>
        <pt x="1616" y="1554" on="1"/>
        <pt x="1907" y="1554" on="1"/>
        <pt x="1675" y="1268" on="1"/>
        <pt x="1828" y="1178" on="0"/>
        <pt x="1993" y="887" on="0"/>
      </contour>
      <contour>
        <pt x="1618" y="686" on="1"/>
        <pt x="1618" y="730" on="0"/>
        <pt x="1603" y="818" on="0"/>
        <pt x="1567" y="902" on="0"/>
        <pt x="1509" y="978" on="0"/>
        <pt x="1466" y="1010" on="1"/>
        <pt x="870" y="274" on="1"/>
        <pt x="912" y="266" on="0"/>
        <pt x="1007" y="258" on="0"/>
        <pt x="1061" y="258" on="1"/>
        <pt x="1228" y="258" on="0"/>
        <pt x="1444" y="334" on="0"/>
        <pt x="1569" y="456" on="0"/>
        <pt x="1618" y="609" on="0"/>
      </contour>
      <contour>
        <pt x="500" y="686" on="1"/>
        <pt x="500" y="642" on="0"/>
        <pt x="515" y="554" on="0"/>
        <pt x="550" y="470" on="0"/>
        <pt x="607" y="393" on="0"/>
        <pt x="649" y="362" on="1"/>
        <pt x="1245" y="1098" on="1"/>
        <pt x="1205" y="1106" on="0"/>
        <pt x="1113" y="1114" on="0"/>
        <pt x="1061" y="1114" on="1"/>
        <pt x="949" y="1114" on="0"/>
        <pt x="779" y="1079" on="0"/>
        <pt x="655" y="1017" on="0"/>
        <pt x="571" y="934" on="0"/>
        <pt x="521" y="839" on="0"/>
        <pt x="500" y="736" on="0"/>
      </contour>
    </TTGlyph>
    <TTGlyph name="oslashacute" xMin="123" yMin="-182" xMax="1993" yMax="1951">
      <component glyphName="oslash" x="0" y="0" flags="0x204"/>
      <component glyphName="acute" x="477" y="362" flags="0x4"/>
    </TTGlyph>
    <TTGlyph name="otilde" xMin="123" yMin="-37" xMax="1993" yMax="1873">
      <component glyphName="o" x="0" y="0" flags="0x204"/>
      <component glyphName="tilde" x="522" y="362" flags="0x4"/>
    </TTGlyph>
    <TTGlyph name="p" xMin="215" yMin="0" xMax="1759" yMax="1374">
      <contour>
        <pt x="1759" y="905" on="1"/>
        <pt x="1759" y="802" on="0"/>
        <pt x="1699" y="629" on="0"/>
        <pt x="1566" y="504" on="0"/>
        <pt x="1354" y="434" on="0"/>
        <pt x="1202" y="434" on="1"/>
        <pt x="586" y="434" on="1"/>
        <pt x="586" y="0" on="1"/>
        <pt x="215" y="0" on="1"/>
        <pt x="215" y="1374" on="1"/>
        <pt x="1202" y="1374" on="1"/>
        <pt x="1354" y="1374" on="0"/>
        <pt x="1566" y="1305" on="0"/>
        <pt x="1699" y="1180" on="0"/>
        <pt x="1759" y="1008" on="0"/>
      </contour>
      <contour>
        <pt x="1384" y="899" on="1"/>
        <pt x="1384" y="947" on="0"/>
        <pt x="1357" y="1016" on="0"/>
        <pt x="1295" y="1060" on="0"/>
        <pt x="1195" y="1081" on="0"/>
        <pt x="1122" y="1081" on="1"/>
        <pt x="586" y="1081" on="1"/>
        <pt x="586" y="727" on="1"/>
        <pt x="1122" y="727" on="1"/>
        <pt x="1195" y="727" on="0"/>
        <pt x="1295" y="744" on="0"/>
        <pt x="1357" y="785" on="0"/>
        <pt x="1384" y="851" on="0"/>
      </contour>
    </TTGlyph>
    <TTGlyph name="paragraph" xMin="123" yMin="0" xMax="1098" yMax="1374">
      <contour>
        <pt x="905" y="0" on="1"/>
        <pt x="905" y="1200" on="1"/>
        <pt x="774" y="1200" on="1"/>
        <pt x="774" y="0" on="1"/>
        <pt x="582" y="0" on="1"/>
        <pt x="582" y="592" on="1"/>
        <pt x="495" y="592" on="0"/>
        <pt x="330" y="637" on="0"/>
        <pt x="201" y="731" on="0"/>
        <pt x="123" y="879" on="0"/>
        <pt x="123" y="983" on="1"/>
        <pt x="123" y="1087" on="0"/>
        <pt x="201" y="1235" on="0"/>
        <pt x="330" y="1330" on="0"/>
        <pt x="495" y="1374" on="0"/>
        <pt x="582" y="1374" on="1"/>
        <pt x="1098" y="1374" on="1"/>
        <pt x="1098" y="0" on="1"/>
      </contour>
    </TTGlyph>
    <TTGlyph name="parenleft" xMin="143" yMin="-141" xMax="762" yMax="1509">
      <contour>
        <pt x="477" y="684" on="1"/>
        <pt x="477" y="591" on="0"/>
        <pt x="511" y="434" on="0"/>
        <pt x="581" y="290" on="0"/>
        <pt x="688" y="154" on="0"/>
        <pt x="762" y="82" on="1"/>
        <pt x="555" y="-141" on="1"/>
        <pt x="463" y="-68" on="0"/>
        <pt x="312" y="100" on="0"/>
        <pt x="203" y="300" on="0"/>
        <pt x="143" y="539" on="0"/>
        <pt x="143" y="684" on="1"/>
        <pt x="143" y="829" on="0"/>
        <pt x="203" y="1068" on="0"/>
        <pt x="312" y="1268" on="0"/>
        <pt x="463" y="1435" on="0"/>
        <pt x="555" y="1509" on="1"/>
        <pt x="762" y="1286" on="1"/>
        <pt x="688" y="1214" on="0"/>
        <pt x="581" y="1078" on="0"/>
        <pt x="511" y="934" on="0"/>
        <pt x="477" y="777" on="0"/>
      </contour>
    </TTGlyph>
</ttFont>
